<svg xmlns="http://www.w3.org/2000/svg" xmlns:xlink="http://www.w3.org/1999/xlink" viewBox="0 0 464.24 62.84"><defs><style>.cls-1{fill:url(#linear-gradient);}.cls-2{fill:url(#linear-gradient-2);}.cls-3{fill:url(#linear-gradient-3);}.cls-4{fill:url(#linear-gradient-4);}.cls-5{fill:url(#linear-gradient-5);}.cls-6{fill:url(#linear-gradient-6);}.cls-7{fill:url(#linear-gradient-7);}</style><linearGradient id="linear-gradient" x1="239.89" y1="33.18" x2="261.88" y2="33.18" gradientUnits="userSpaceOnUse"><stop offset="0" stop-color="#fef275"/><stop offset="1" stop-color="#bda32b"/></linearGradient><linearGradient id="linear-gradient-2" x1="223.78" y1="40.66" x2="241.37" y2="40.66" xlink:href="#linear-gradient"/><linearGradient id="linear-gradient-3" x1="202.82" y1="33.18" x2="224.82" y2="33.18" xlink:href="#linear-gradient"/><linearGradient id="linear-gradient-4" x1="233.41" y1="30.9" x2="464.24" y2="30.9" xlink:href="#linear-gradient"/><linearGradient id="linear-gradient-5" x1="234.41" y1="37.39" x2="374.56" y2="37.39" xlink:href="#linear-gradient"/><linearGradient id="linear-gradient-6" x1="0" y1="30.29" x2="230.82" y2="30.29" xlink:href="#linear-gradient"/><linearGradient id="linear-gradient-7" x1="89.68" y1="36.79" x2="229.83" y2="36.79" xlink:href="#linear-gradient"/></defs><g id="Layer_2" data-name="Layer 2"><g id="object"><path class="cls-1" d="M260.59,35a2.13,2.13,0,0,1,1.19,1.48,4.51,4.51,0,0,1-.39,2.94,7.54,7.54,0,0,1-3.13,3.28,9.44,9.44,0,0,1-5.39,1.2,11.07,11.07,0,0,1-3.47-.83,13.63,13.63,0,0,1-3.8-2.34,16,16,0,0,1-3.1-3.65,17.61,17.61,0,0,1-1.9-4.25,20.1,20.1,0,0,1-.69-4.09c0-.64,0-1.24,0-1.79s.07-1.08.14-1.55.15-.9.22-1.26.19-.69.28-.95c.18-.51.35-.79.49-.79s.3.28.5.76l.77,2c.16.4.36.83.55,1.28s.44.91.68,1.38a20.71,20.71,0,0,0,1.79,2.77,14.17,14.17,0,0,0,2.29,2.29A10.9,10.9,0,0,0,250,34.34a8.06,8.06,0,0,0,2.07.6,3.53,3.53,0,0,0,.42.06l.36,0a1.55,1.55,0,0,1,.31,0,2.25,2.25,0,0,1,.26,0c.64,0,1.16.09,1.68.11a9.78,9.78,0,0,0,1.69,0C258.06,35,259.45,34.53,260.59,35Z"/><path class="cls-2" d="M241.37,45.3c-3.44-7.8-4.37-18.76-4.48-20.21,0-.09-.06-.15-.12-.15l-3.36-3.81a1.12,1.12,0,0,0-1.67,0l-3.36,3.81a.14.14,0,0,0-.12.15c-.11,1.45-.89,11.56-4.48,20.21,0,.07,6.92,12.48,8.48,15.08a.35.35,0,0,0,.63,0C234.45,57.78,241.4,45.37,241.37,45.3Z"/><path class="cls-3" d="M204.11,35a2.12,2.12,0,0,0-1.18,1.48,4.44,4.44,0,0,0,.39,2.94,7.51,7.51,0,0,0,3.12,3.28,9.48,9.48,0,0,0,5.4,1.2,11,11,0,0,0,3.46-.83,13.49,13.49,0,0,0,3.8-2.34,15.76,15.76,0,0,0,3.1-3.65,17.23,17.23,0,0,0,1.9-4.25,18.81,18.81,0,0,0,.69-4.09c0-.64,0-1.24,0-1.79s-.08-1.08-.14-1.55-.15-.9-.23-1.26a8,8,0,0,0-.28-.95c-.18-.51-.35-.79-.49-.79s-.29.28-.5.76l-.77,2c-.16.4-.36.83-.54,1.28s-.44.91-.68,1.38a19.84,19.84,0,0,1-1.8,2.77,14.17,14.17,0,0,1-2.29,2.29,10.67,10.67,0,0,1-2.42,1.46,8,8,0,0,1-2.07.6,3.39,3.39,0,0,1-.41.06l-.36,0a1.58,1.58,0,0,0-.32,0,2.25,2.25,0,0,0-.26,0c-.64,0-1.16.09-1.67.11a9.87,9.87,0,0,1-1.7,0C206.64,35,205.25,34.53,204.11,35Z"/><path class="cls-4" d="M458.57,17.64a15.19,15.19,0,0,1,.78,3.6,17.88,17.88,0,0,1-.07,4.43,21.11,21.11,0,0,1-4.32,9.8,41.26,41.26,0,0,1-9.73,8.91,76.74,76.74,0,0,1-13,7,90,90,0,0,1-14.46,4.77,104.7,104.7,0,0,1-14.76,2.4,133,133,0,0,1-25.9-.38c-3.56-.58-7.55-1.36-11.81-2.37s-8.77-2.28-13.41-3.77a205.48,205.48,0,0,1-28.19-11.52c-4.58-2.27-9-4.68-13.19-7.13l-3.08-1.85c-1-.6-2-1.24-2.93-1.87l-5.65-3.74c-7.3-4.84-13.67-8.79-18.13-11.36a163.8,163.8,0,0,0-17.64-8.94A64.74,64.74,0,0,0,247.44.89,24.65,24.65,0,0,0,241,.75a14.72,14.72,0,0,0-2.68.57,11,11,0,0,0-2.12,1,7,7,0,0,0-2.34,2.16c-.38.62-.47,1-.34,1.1.29.25,1.28-.84,3.47-1.55s5.65-.77,9.87.26A78.58,78.58,0,0,1,261.3,9.7c5.34,2.52,11.09,5.63,17,9.06,4.4,2.53,10.74,6.32,18.12,11l5.76,3.6c1,.62,2,1.25,3.1,1.86l3.19,1.8c4.34,2.38,8.93,4.69,13.66,6.84a199.78,199.78,0,0,0,29,10.64c4.76,1.31,9.39,2.38,13.73,3.23s8.41,1.41,12,1.81a127.47,127.47,0,0,0,26.24,1.58,104.8,104.8,0,0,0,15.25-1.89,91.53,91.53,0,0,0,15.18-4.42,78,78,0,0,0,13.85-7,52.9,52.9,0,0,0,6-4.44,38,38,0,0,0,5-5.15A25.46,25.46,0,0,0,464,26.38a22.64,22.64,0,0,0,.17-5.59,19.78,19.78,0,0,0-1-4.7,21.47,21.47,0,0,0-6.3-9.3,22.84,22.84,0,0,0-4.43-3A23.88,23.88,0,0,0,447.66,2a19.89,19.89,0,0,0-4.88-.65,15.88,15.88,0,0,0-4.7.74,12.79,12.79,0,0,0-6.81,5.09,10.21,10.21,0,0,0-1.49,3.52,7,7,0,0,0,.17,3.6,4.86,4.86,0,0,0,2,2.59,5.87,5.87,0,0,0,1.28.56l.61.12a2.31,2.31,0,0,0,.57.06,7.16,7.16,0,0,0,1.88-.13,7.59,7.59,0,0,0,1.27-.38c.65-.3,1-.53.92-.69s-.43-.25-1.08-.27c-.33,0-.73-.07-1.19-.09a9.06,9.06,0,0,1-1.49-.29,1.74,1.74,0,0,1-.38-.14l-.39-.16a3.85,3.85,0,0,1-.67-.47,2.45,2.45,0,0,1-.77-1.45,5.84,5.84,0,0,1,1.5-4.39,9.54,9.54,0,0,1,5.17-3.24,12.26,12.26,0,0,1,3.47-.33,16.06,16.06,0,0,1,3.77.69,19.83,19.83,0,0,1,3.79,1.6,18.77,18.77,0,0,1,3.47,2.47A17.22,17.22,0,0,1,458.57,17.64Z"/><path class="cls-5" d="M374.56,59.06s-2.09.52-5.89,1.38l-3.19.59c-1.17.21-2.44.47-3.82.63l-4.41.58-5,.4-.66,0-.67,0-1.36,0-2.83.08c-1,0-1.94,0-2.94,0l-3.05-.09c-.52,0-1-.06-1.57-.1l-1.59-.13c-1.07-.1-2.16-.18-3.26-.3L331,61.68l-1.7-.25c-.58-.09-1.14-.23-1.72-.34l-3.49-.73c-.59-.11-1.17-.28-1.76-.44l-1.77-.49-1.79-.49-.9-.26-.89-.3-3.6-1.24-.91-.32-.9-.37-1.8-.74L307.94,55l-.91-.39-.89-.43-3.58-1.78c-.3-.15-.6-.29-.9-.45l-.88-.5-1.76-1-1.76-1c-.29-.18-.59-.33-.87-.52l-.84-.55-3.33-2.21-.82-.55-.79-.59-1.56-1.17C288,43,287,42.22,286,41.43c-3.93-3.18-7.54-6.34-11-9.26s-6.83-5.62-10.08-8a85,85,0,0,0-9.38-6,49.16,49.16,0,0,0-15.12-5.43,43.3,43.3,0,0,0-4.41-.5l-1.56-.08,1.55-.16a37.8,37.8,0,0,1,4.51-.12,40.94,40.94,0,0,1,7.12.9c1.37.28,2.83.68,4.36,1.14s3.11,1.06,4.74,1.75A75.45,75.45,0,0,1,267,21.05c3.55,2.16,7.19,4.69,10.89,7.45s7.48,5.78,11.4,8.76c1,.74,2,1.43,3,2.16l1.51,1.09.76.55.79.5,3.19,2.06.8.52c.27.18.55.32.83.49l1.66.95,1.67,1,.83.48.85.43,3.37,1.72.83.43.86.38,1.69.75,1.69.75.83.38.85.32,3.37,1.29.83.32.85.27,1.67.54,1.66.54c.55.18,1.1.37,1.65.5l3.29.87a112,112,0,0,0,23.65,3.35l4.9.12,4.38-.08c1.38,0,2.65-.1,3.82-.16l3.22-.17Z"/><path class="cls-6" d="M1.09,15.5a19.69,19.69,0,0,0-1,4.69,22.72,22.72,0,0,0,.17,5.6A25.43,25.43,0,0,0,5.73,37.63a38.58,38.58,0,0,0,5,5.15,53.74,53.74,0,0,0,6,4.43,78.66,78.66,0,0,0,13.85,6.95,91.78,91.78,0,0,0,15.18,4.41A103.4,103.4,0,0,0,61,60.45a128.18,128.18,0,0,0,26.23-1.57c3.63-.4,7.69-1,12-1.82s9-1.91,13.73-3.23a199.12,199.12,0,0,0,29-10.62c4.74-2.15,9.33-4.46,13.67-6.83l3.19-1.8C160,34,161,33.34,162,32.72l5.76-3.6c7.39-4.64,13.73-8.43,18.12-10.95,6-3.43,11.7-6.54,17-9.06a78.65,78.65,0,0,1,14.5-5.45c4.21-1,7.69-1,9.86-.27S230.47,5.2,230.77,5c.13-.1,0-.48-.34-1.11a7.23,7.23,0,0,0-2.34-2.15,10.81,10.81,0,0,0-2.13-1,15.26,15.26,0,0,0-2.67-.58A24.68,24.68,0,0,0,216.8.3a64.74,64.74,0,0,0-15.68,4.75A162,162,0,0,0,183.48,14c-4.47,2.56-10.83,6.52-18.14,11.35l-5.65,3.74c-1,.63-1.94,1.27-2.93,1.87l-3.08,1.85c-4.18,2.45-8.61,4.85-13.19,7.12A205.93,205.93,0,0,1,112.3,51.43c-4.64,1.49-9.16,2.74-13.42,3.77S90.64,57,87.08,57.56A132.08,132.08,0,0,1,61.19,58a104.33,104.33,0,0,1-14.75-2.4A90.76,90.76,0,0,1,32,50.79a76.7,76.7,0,0,1-13-7,41.65,41.65,0,0,1-9.73-8.91A21.12,21.12,0,0,1,5,25.08a18.41,18.41,0,0,1-.08-4.43,15.59,15.59,0,0,1,.78-3.6,17.15,17.15,0,0,1,4.86-7.3A18.7,18.7,0,0,1,14,7.28a20.19,20.19,0,0,1,3.8-1.6A16.08,16.08,0,0,1,21.54,5,12,12,0,0,1,25,5.32a9.57,9.57,0,0,1,5.17,3.23,5.86,5.86,0,0,1,1.5,4.4,2.49,2.49,0,0,1-.78,1.45,3.93,3.93,0,0,1-.66.47l-.39.16a1.64,1.64,0,0,1-.39.14,9.87,9.87,0,0,1-1.48.29c-.46,0-.86.08-1.19.08-.66,0-1,.12-1.08.28s.26.39.92.68a6.95,6.95,0,0,0,3.14.52,2.76,2.76,0,0,0,.57-.06l.61-.12a5.3,5.3,0,0,0,1.28-.57,4.8,4.8,0,0,0,2-2.58,6.85,6.85,0,0,0,.16-3.6A10,10,0,0,0,33,6.56a12.78,12.78,0,0,0-6.81-5.08,15.88,15.88,0,0,0-4.7-.74,19.36,19.36,0,0,0-4.88.65A24.46,24.46,0,0,0,11.82,3.2a22.45,22.45,0,0,0-4.43,3A21.24,21.24,0,0,0,1.09,15.5Z"/><path class="cls-7" d="M89.68,58.47l6,.52,3.21.17c1.18.06,2.45.16,3.82.16l4.39.07,4.9-.11a113.43,113.43,0,0,0,23.65-3.35l3.28-.87c.56-.13,1.1-.32,1.65-.5l1.66-.54,1.68-.54.84-.27.84-.32L149,51.6l.86-.33.83-.37,1.68-.75,1.7-.76.85-.37.84-.43,3.37-1.72.85-.43.83-.49,1.66-1,1.67-1c.28-.16.56-.31.83-.48l.8-.52L168.92,41l.8-.51.75-.55L172,38.83c1-.73,2-1.43,3-2.16,3.92-3,7.69-6,11.4-8.76s7.33-5.3,10.88-7.45a75,75,0,0,1,10.29-5.31c1.63-.7,3.23-1.25,4.74-1.75s3-.86,4.36-1.14a42.07,42.07,0,0,1,7.12-.91,42.76,42.76,0,0,1,4.51.12l1.55.17-1.56.07a43.6,43.6,0,0,0-4.41.51,49,49,0,0,0-15.13,5.43,83.8,83.8,0,0,0-9.37,6c-3.25,2.35-6.6,5.05-10.08,8s-7.1,6.08-11,9.26c-1,.79-2,1.56-3.06,2.34l-1.57,1.18-.79.59-.82.55-3.32,2.21-.85.55c-.28.18-.58.34-.87.51l-1.75,1-1.76,1-.88.51-.9.45-3.59,1.77-.89.44-.91.38-1.81.76-1.8.75-.89.37-.91.32-3.6,1.24-.89.3-.9.25-1.79.5-1.77.49c-.59.16-1.17.32-1.76.43l-3.49.74c-.58.11-1.15.25-1.72.33l-1.71.26-3.34.48c-1.1.13-2.19.2-3.26.3l-1.59.14c-.53,0-1,.1-1.57.1l-3.06.09c-1,0-2,.08-2.94,0l-2.82-.07-1.36,0-.67,0-.66-.05-5-.41-4.42-.57c-1.37-.16-2.64-.42-3.81-.63l-3.19-.59C91.76,59,89.68,58.47,89.68,58.47Z"/></g></g></svg>