<svg xmlns="http://www.w3.org/2000/svg" xmlns:xlink="http://www.w3.org/1999/xlink" viewBox="0 0 501.77 57.52"><defs><style>.cls-1{fill:url(#linear-gradient);}.cls-2{fill:url(#linear-gradient-2);}.cls-3{fill:url(#linear-gradient-3);}.cls-4{fill:url(#linear-gradient-4);}.cls-5{fill:url(#linear-gradient-5);}.cls-6{fill:url(#linear-gradient-6);}.cls-7{fill:url(#linear-gradient-7);}.cls-8{fill:url(#linear-gradient-8);}.cls-9{fill:url(#linear-gradient-9);}.cls-10{fill:url(#linear-gradient-10);}.cls-11{fill:url(#linear-gradient-11);}.cls-12{fill:url(#linear-gradient-12);}.cls-13{fill:url(#linear-gradient-13);}.cls-14{fill:url(#linear-gradient-14);}.cls-15{fill:url(#linear-gradient-15);}.cls-16{fill:url(#linear-gradient-16);}.cls-17{fill:url(#linear-gradient-17);}.cls-18{fill:url(#linear-gradient-18);}.cls-19{fill:url(#linear-gradient-19);}.cls-20{fill:url(#linear-gradient-20);}.cls-21{fill:url(#linear-gradient-21);}.cls-22{fill:url(#linear-gradient-22);}.cls-23{fill:url(#linear-gradient-23);}.cls-24{fill:url(#linear-gradient-24);}.cls-25{fill:url(#linear-gradient-25);}.cls-26{fill:url(#linear-gradient-26);}.cls-27{fill:url(#linear-gradient-27);}.cls-28{fill:url(#linear-gradient-28);}.cls-29{fill:url(#linear-gradient-29);}.cls-30{fill:url(#linear-gradient-30);}.cls-31{fill:url(#linear-gradient-31);}.cls-32{fill:url(#linear-gradient-32);}.cls-33{fill:url(#linear-gradient-33);}.cls-34{fill:url(#linear-gradient-34);}.cls-35{fill:url(#linear-gradient-35);}.cls-36{fill:url(#linear-gradient-36);}.cls-37{fill:url(#linear-gradient-37);}.cls-38{fill:url(#linear-gradient-38);}.cls-39{fill:url(#linear-gradient-39);}.cls-40{fill:url(#linear-gradient-40);}.cls-41{fill:url(#linear-gradient-41);}.cls-42{fill:url(#linear-gradient-42);}.cls-43{fill:url(#linear-gradient-43);}.cls-44{fill:url(#linear-gradient-44);}.cls-45{fill:url(#linear-gradient-45);}.cls-46{fill:url(#linear-gradient-46);}</style><linearGradient id="linear-gradient" x1="249.8" y1="28.62" x2="465.18" y2="28.62" gradientUnits="userSpaceOnUse"><stop offset="0" stop-color="#fef275"/><stop offset="1" stop-color="#bda32b"/></linearGradient><linearGradient id="linear-gradient-2" x1="34.27" y1="28.62" x2="249.65" y2="28.62" xlink:href="#linear-gradient"/><linearGradient id="linear-gradient-3" x1="0" y1="28.89" x2="29.8" y2="28.89" xlink:href="#linear-gradient"/><linearGradient id="linear-gradient-4" x1="32.16" y1="28.62" x2="36.37" y2="28.62" xlink:href="#linear-gradient"/><linearGradient id="linear-gradient-5" x1="18.14" y1="12.8" x2="79.07" y2="12.8" xlink:href="#linear-gradient"/><linearGradient id="linear-gradient-6" x1="18.3" y1="44.6" x2="79.1" y2="44.6" xlink:href="#linear-gradient"/><linearGradient id="linear-gradient-7" x1="53.7" y1="20.25" x2="55.9" y2="20.25" xlink:href="#linear-gradient"/><linearGradient id="linear-gradient-8" x1="51.39" y1="20.72" x2="53.21" y2="20.72" xlink:href="#linear-gradient"/><linearGradient id="linear-gradient-9" x1="49.57" y1="21.73" x2="51.12" y2="21.73" xlink:href="#linear-gradient"/><linearGradient id="linear-gradient-10" x1="48.21" y1="22.78" x2="49.4" y2="22.78" xlink:href="#linear-gradient"/><linearGradient id="linear-gradient-11" x1="47.08" y1="23.71" x2="47.99" y2="23.71" xlink:href="#linear-gradient"/><linearGradient id="linear-gradient-12" x1="56.38" y1="20.82" x2="58.2" y2="20.82" xlink:href="#linear-gradient"/><linearGradient id="linear-gradient-13" x1="58.34" y1="22.04" x2="59.88" y2="22.04" xlink:href="#linear-gradient"/><linearGradient id="linear-gradient-14" x1="59.88" y1="23.32" x2="61.06" y2="23.32" xlink:href="#linear-gradient"/><linearGradient id="linear-gradient-15" x1="61.18" y1="24.37" x2="62.09" y2="24.37" xlink:href="#linear-gradient"/><linearGradient id="linear-gradient-16" x1="53.7" y1="37.36" x2="55.9" y2="37.36" xlink:href="#linear-gradient"/><linearGradient id="linear-gradient-17" x1="51.39" y1="36.88" x2="53.21" y2="36.88" xlink:href="#linear-gradient"/><linearGradient id="linear-gradient-18" x1="49.57" y1="35.88" x2="51.12" y2="35.88" xlink:href="#linear-gradient"/><linearGradient id="linear-gradient-19" x1="48.21" y1="34.82" x2="49.4" y2="34.82" xlink:href="#linear-gradient"/><linearGradient id="linear-gradient-20" x1="47.08" y1="33.89" x2="47.99" y2="33.89" xlink:href="#linear-gradient"/><linearGradient id="linear-gradient-21" x1="56.38" y1="36.79" x2="58.2" y2="36.79" xlink:href="#linear-gradient"/><linearGradient id="linear-gradient-22" x1="58.34" y1="35.56" x2="59.88" y2="35.56" xlink:href="#linear-gradient"/><linearGradient id="linear-gradient-23" x1="59.88" y1="34.29" x2="61.06" y2="34.29" xlink:href="#linear-gradient"/><linearGradient id="linear-gradient-24" x1="61.18" y1="33.23" x2="62.09" y2="33.23" xlink:href="#linear-gradient"/><linearGradient id="linear-gradient-25" x1="471.97" y1="28.89" x2="501.77" y2="28.89" xlink:href="#linear-gradient"/><linearGradient id="linear-gradient-26" x1="465.4" y1="28.62" x2="469.61" y2="28.62" xlink:href="#linear-gradient"/><linearGradient id="linear-gradient-27" x1="422.71" y1="12.8" x2="483.63" y2="12.8" xlink:href="#linear-gradient"/><linearGradient id="linear-gradient-28" x1="422.67" y1="44.6" x2="483.48" y2="44.6" xlink:href="#linear-gradient"/><linearGradient id="linear-gradient-29" x1="445.87" y1="20.25" x2="448.07" y2="20.25" xlink:href="#linear-gradient"/><linearGradient id="linear-gradient-30" x1="448.57" y1="20.72" x2="450.38" y2="20.72" xlink:href="#linear-gradient"/><linearGradient id="linear-gradient-31" x1="450.65" y1="21.73" x2="452.2" y2="21.73" xlink:href="#linear-gradient"/><linearGradient id="linear-gradient-32" x1="452.37" y1="22.78" x2="453.56" y2="22.78" xlink:href="#linear-gradient"/><linearGradient id="linear-gradient-33" x1="453.78" y1="23.71" x2="454.69" y2="23.71" xlink:href="#linear-gradient"/><linearGradient id="linear-gradient-34" x1="443.58" y1="20.82" x2="445.39" y2="20.82" xlink:href="#linear-gradient"/><linearGradient id="linear-gradient-35" x1="441.89" y1="22.04" x2="443.44" y2="22.04" xlink:href="#linear-gradient"/><linearGradient id="linear-gradient-36" x1="440.71" y1="23.32" x2="441.89" y2="23.32" xlink:href="#linear-gradient"/><linearGradient id="linear-gradient-37" x1="439.68" y1="24.37" x2="440.59" y2="24.37" xlink:href="#linear-gradient"/><linearGradient id="linear-gradient-38" x1="445.87" y1="37.36" x2="448.07" y2="37.36" xlink:href="#linear-gradient"/><linearGradient id="linear-gradient-39" x1="448.57" y1="36.88" x2="450.38" y2="36.88" xlink:href="#linear-gradient"/><linearGradient id="linear-gradient-40" x1="450.65" y1="35.88" x2="452.2" y2="35.88" xlink:href="#linear-gradient"/><linearGradient id="linear-gradient-41" x1="452.37" y1="34.82" x2="453.56" y2="34.82" xlink:href="#linear-gradient"/><linearGradient id="linear-gradient-42" x1="453.78" y1="33.89" x2="454.69" y2="33.89" xlink:href="#linear-gradient"/><linearGradient id="linear-gradient-43" x1="443.58" y1="36.79" x2="445.39" y2="36.79" xlink:href="#linear-gradient"/><linearGradient id="linear-gradient-44" x1="441.89" y1="35.56" x2="443.44" y2="35.56" xlink:href="#linear-gradient"/><linearGradient id="linear-gradient-45" x1="440.71" y1="34.29" x2="441.89" y2="34.29" xlink:href="#linear-gradient"/><linearGradient id="linear-gradient-46" x1="439.68" y1="33.23" x2="440.59" y2="33.23" xlink:href="#linear-gradient"/></defs><g id="Layer_2" data-name="Layer 2"><g id="object"><rect class="cls-1" x="249.8" y="27.81" width="215.38" height="1.6"/><rect class="cls-2" x="34.27" y="27.81" width="215.38" height="1.6"/><path class="cls-3" d="M11.4,22.31c5.86,2.55,14.06,3.2,15.14,3.28.07,0,.12,0,.12.09l2.86,2.5a.84.84,0,0,1,0,1.25L26.69,32s-.05.08-.12.09a53.76,53.76,0,0,0-15.11,3.42c-.05,0-9.36-5.14-11.31-6.3a.25.25,0,0,1,0-.46C2.08,27.53,11.35,22.28,11.4,22.31Z"/><circle class="cls-4" cx="34.27" cy="28.62" r="2.1"/><path class="cls-5" d="M28.93,12.1l.15.13a2.51,2.51,0,0,0,1.42.53,2.48,2.48,0,0,0,1.3-.26,2.59,2.59,0,0,0,.67-.46,3.33,3.33,0,0,0,.93-1.63,3.79,3.79,0,0,0,.09-1.08,3.57,3.57,0,0,0-1-2.19,4.06,4.06,0,0,0-1.08-.79A4.34,4.34,0,0,0,30,5.91a4.55,4.55,0,0,0-3,.59,4.71,4.71,0,0,0-1.26,1.1,5.29,5.29,0,0,0-.85,1.48,5.73,5.73,0,0,0-.19,3.58,6.15,6.15,0,0,0,.82,1.74A5.61,5.61,0,0,0,27,15.81a9.07,9.07,0,0,0,.83.54,7.58,7.58,0,0,0,.92.41,7.07,7.07,0,0,0,2,.43A7,7,0,0,0,32.78,17a7.61,7.61,0,0,0,1-.31,9.7,9.7,0,0,0,1-.48,6.82,6.82,0,0,0,1.69-1.39,7.67,7.67,0,0,0,.68-.85c.2-.3.38-.62.56-.94a8.76,8.76,0,0,0,.95-4.29,8.65,8.65,0,0,0-2.2-5.46c-.17-.17-.32-.37-.51-.53l-.54-.48-.57-.41a5.36,5.36,0,0,0-.59-.38l-.61-.34C33.44,1,33.22,1,33,.86A10.52,10.52,0,0,0,31.73.39,10.72,10.72,0,0,0,26.55.25a10.5,10.5,0,0,0-4.3,2.14,3.16,3.16,0,0,0-.43.38l-.41.39c-.26.27-.49.57-.73.85a14.13,14.13,0,0,0-1.12,1.77,11.76,11.76,0,0,0-1.24,3.63c0,.14-.06.29-.08.43s0,.3,0,.44c0,.29-.06.57-.06.85a11.82,11.82,0,0,0,.06,1.59c0,.25,0,.5.09.74s.1.47.14.69l.07.34c0,.11.06.21.1.32l.18.61A5.1,5.1,0,0,0,19,16c.06.21.13.43.19.65s.18.43.27.66a6.71,6.71,0,0,0,.3.68,10.9,10.9,0,0,0,.8,1.38c.16.22.3.47.49.69l.57.68a14.13,14.13,0,0,0,2.92,2.43A14.65,14.65,0,0,0,28.37,25l1.1.29,1.15.18a9.07,9.07,0,0,0,1.18.11l.6,0c.2,0,.4,0,.6,0,.41,0,.82,0,1.23-.06l1.25-.17,1.24-.29L37,25l.31-.11.61-.21a16.31,16.31,0,0,0,4.67-2.59l1-.91c.33-.31.64-.67,1-1l.24-.25.21-.24.41-.47c.29-.3.56-.61.87-.89A11.05,11.05,0,0,1,52.28,15a11.43,11.43,0,0,1,6.3,1.07A36.31,36.31,0,0,1,64,19.17c1.66,1.1,3.19,2.18,4.64,3.12a27.6,27.6,0,0,0,4.08,2.27,9.15,9.15,0,0,0,3.46.86A5.2,5.2,0,0,0,78.38,25c.24-.1.4-.2.52-.26l.17-.1-.19.08a3.14,3.14,0,0,1-.53.18,4.85,4.85,0,0,1-2.13.15,9,9,0,0,1-3.16-1.16,29.19,29.19,0,0,1-3.74-2.56c-1.34-1-2.78-2.23-4.39-3.46a34.09,34.09,0,0,0-5.52-3.56,15.71,15.71,0,0,0-3.47-1.27A12.25,12.25,0,0,0,54,12.77a11.57,11.57,0,0,0-2,.06,11.94,11.94,0,0,0-2,.47,10.86,10.86,0,0,0-1.91.84,15.26,15.26,0,0,0-3.32,2.49c-.34.32-.65.66-1,1l-.45.52-.23.26-.2.22c-.28.29-.53.6-.82.88l-.88.8a14.92,14.92,0,0,1-4,2.34l-.53.2-.26.1-.27.08-1.07.29-1.08.2c-.36.06-.72.07-1.07.11-.18,0-.36,0-.53,0h-.53a9.13,9.13,0,0,1-1.05,0l-1-.1-1-.2A14.1,14.1,0,0,1,25.21,22a13.47,13.47,0,0,1-2.83-2l-.57-.57c-.19-.18-.34-.4-.51-.59a11.59,11.59,0,0,1-.86-1.2A6.21,6.21,0,0,1,20.1,17c-.11-.2-.22-.39-.31-.59s-.17-.4-.25-.59a4.37,4.37,0,0,1-.21-.57l-.12-.59-.06-.31,0-.32c0-.22-.05-.44-.07-.67s0-.46,0-.7a10.67,10.67,0,0,1,.08-1.47c0-.26.08-.51.12-.77s.05-.26.07-.39.08-.26.11-.39a11.31,11.31,0,0,1,1.37-3.16A13.93,13.93,0,0,1,21.89,5c.23-.22.43-.46.67-.67L22.92,4a3.86,3.86,0,0,1,.38-.3,8.66,8.66,0,0,1,7.81-1.27,8.84,8.84,0,0,1,1,.4c.16.08.33.15.49.24l.47.29a3.7,3.7,0,0,1,.46.31c.15.12.3.22.44.34l.4.37c.14.12.24.26.37.39A6.62,6.62,0,0,1,35.66,12a8,8,0,0,1-.41.7,6.14,6.14,0,0,1-.48.63,4.46,4.46,0,0,1-1.14,1,6.06,6.06,0,0,1-.66.36,7.39,7.39,0,0,1-.71.24,5.12,5.12,0,0,1-1.46.17,4.94,4.94,0,0,1-1.43-.25,6.16,6.16,0,0,1-.67-.26,5.41,5.41,0,0,1-.61-.36,4,4,0,0,1-1.63-2.07,4.13,4.13,0,0,1,0-2.53A4,4,0,0,1,27,8.5a3.21,3.21,0,0,1,2.93-1.43,3.28,3.28,0,0,1,1,.23,3.38,3.38,0,0,1,.88.53,2.75,2.75,0,0,1-.2,4.36,2.48,2.48,0,0,1-1.13.36,2.58,2.58,0,0,1-.89-.11,3.28,3.28,0,0,1-.51-.23Z"/><path class="cls-6" d="M29.08,45.42l.15-.12a2.09,2.09,0,0,1,.49-.31,2.42,2.42,0,0,1,.93-.24A2.66,2.66,0,0,1,32,45a3.14,3.14,0,0,1,.68.46,3.91,3.91,0,0,1,.56.7,3.78,3.78,0,0,1,.38.92,3.49,3.49,0,0,1,.09,1.08,3.52,3.52,0,0,1-1,2.21,4.47,4.47,0,0,1-2.43,1.24,4.45,4.45,0,0,1-3-.56A4.69,4.69,0,0,1,26,50a5.36,5.36,0,0,1-.86-1.47,5.73,5.73,0,0,1-.22-3.58,6.28,6.28,0,0,1,.8-1.75,5.78,5.78,0,0,1,1.37-1.42,7.88,7.88,0,0,1,.83-.54,5.79,5.79,0,0,1,.91-.42,7,7,0,0,1,2-.45,6.72,6.72,0,0,1,2.09.16,6.36,6.36,0,0,1,1,.3,7.22,7.22,0,0,1,1,.47,6.83,6.83,0,0,1,1.71,1.37,8.73,8.73,0,0,1,.68.85c.21.3.39.61.57.93a8.76,8.76,0,0,1,1,4.28,8.6,8.6,0,0,1-2.15,5.48c-.17.18-.32.37-.5.54l-.54.48-.57.42a5.35,5.35,0,0,1-.58.39l-.6.34c-.21.12-.42.2-.63.3a11.58,11.58,0,0,1-1.28.48,10.62,10.62,0,0,1-5.18.18,10.5,10.5,0,0,1-4.32-2.09,3.16,3.16,0,0,1-.43-.38l-.42-.39c-.26-.27-.49-.56-.73-.84a13.51,13.51,0,0,1-1.14-1.76,11.8,11.8,0,0,1-1.27-3.62c0-.14-.07-.29-.09-.43s0-.29,0-.44-.07-.56-.07-.84a12,12,0,0,1,.05-1.6c0-.25,0-.5.08-.74s.09-.47.14-.69l.06-.34.09-.32.19-.61a4.66,4.66,0,0,1,.15-.62c.07-.21.13-.42.19-.65s.17-.43.26-.66a6.71,6.71,0,0,1,.3-.68,10.9,10.9,0,0,1,.79-1.39c.16-.22.3-.47.48-.7l.56-.68a15.1,15.1,0,0,1,6.77-4.26l1.09-.3,1.15-.19A9.07,9.07,0,0,1,31.83,32l.6,0c.2,0,.4,0,.6,0,.41,0,.82,0,1.23.06l1.25.16,1.24.27.32.08.3.1.62.2a16.41,16.41,0,0,1,4.69,2.55l1,.9c.34.31.65.66,1,1l.24.25.21.24.41.46c.3.3.58.61.88.89a11.09,11.09,0,0,0,6,3.21,11.52,11.52,0,0,0,6.29-1.12A36.58,36.58,0,0,0,64.09,38c1.65-1.11,3.17-2.21,4.61-3.15a28.69,28.69,0,0,1,4.07-2.32,9.36,9.36,0,0,1,3.45-.89,5.07,5.07,0,0,1,2.19.4,3.69,3.69,0,0,1,.52.25l.17.09-.18-.07a3.71,3.71,0,0,0-.54-.18A5.07,5.07,0,0,0,76.25,32a9.12,9.12,0,0,0-3.15,1.19,29.72,29.72,0,0,0-3.72,2.6c-1.33,1-2.76,2.25-4.35,3.5a34.56,34.56,0,0,1-5.49,3.61,16.74,16.74,0,0,1-3.46,1.3,13.39,13.39,0,0,1-1.93.3,11.5,11.5,0,0,1-2-.05,11.75,11.75,0,0,1-2-.44,12.09,12.09,0,0,1-1.92-.83,15.16,15.16,0,0,1-3.34-2.46c-.35-.31-.66-.66-1-1l-.46-.52L43.18,39,43,38.77c-.28-.29-.54-.6-.83-.87l-.88-.8a15.19,15.19,0,0,0-4-2.3l-.53-.2-.27-.1-.27-.07c-.36-.09-.71-.2-1.07-.28L34,34c-.36-.06-.72-.06-1.07-.1a4.89,4.89,0,0,0-.54,0H31.9a7.18,7.18,0,0,0-1,0l-1,.11-1,.21a13.86,13.86,0,0,0-3.57,1.37,13.56,13.56,0,0,0-2.82,2l-.57.58a7.22,7.22,0,0,0-.5.6,11.47,11.47,0,0,0-.85,1.2c-.13.2-.22.41-.33.61s-.22.4-.31.6l-.24.59a4.37,4.37,0,0,0-.21.57l-.11.6-.06.31,0,.32-.06.66c0,.23,0,.46,0,.7a10.82,10.82,0,0,0,.1,1.48c0,.25.09.5.13.76s.05.26.08.4a3.31,3.31,0,0,0,.11.39A10.75,10.75,0,0,0,21,51.11a12.69,12.69,0,0,0,1.11,1.48c.22.22.43.45.67.66l.37.31a2.72,2.72,0,0,0,.38.29,8.68,8.68,0,0,0,7.82,1.21,9,9,0,0,0,1-.42c.16-.08.33-.15.49-.24l.46-.29a3.76,3.76,0,0,0,.46-.32c.14-.12.3-.23.44-.34l.39-.37c.14-.12.24-.27.37-.4a6.63,6.63,0,0,0,.84-7.22c-.13-.23-.26-.47-.41-.69s-.31-.45-.48-.63a4.68,4.68,0,0,0-1.16-1,6,6,0,0,0-.66-.35,6.51,6.51,0,0,0-.71-.23,5.07,5.07,0,0,0-2.89.1c-.23.06-.44.18-.67.26s-.42.22-.61.37a4,4,0,0,0-1.61,2.08,4.16,4.16,0,0,0,0,2.54,4.26,4.26,0,0,0,.55,1.11,3.36,3.36,0,0,0,.82.82,3.3,3.3,0,0,0,2.13.58,3.11,3.11,0,0,0,1-.25,3.17,3.17,0,0,0,.87-.53,2.65,2.65,0,0,0,.91-1.6,2.74,2.74,0,0,0-1.15-2.76A2.46,2.46,0,0,0,30.65,45a2.34,2.34,0,0,0-.89.12,2.47,2.47,0,0,0-.51.24Z"/><path class="cls-7" d="M53.72,20.34a.94.94,0,0,1,.22-.81,1.19,1.19,0,0,1,1.74,0,1,1,0,0,1,.2.83,1.23,1.23,0,0,1-.43.7,1,1,0,0,1-.67.26,1,1,0,0,1-.66-.28A1.28,1.28,0,0,1,53.72,20.34Z"/><path class="cls-8" d="M51.48,21.1a.86.86,0,0,1,0-.7,1,1,0,0,1,.53-.52,1,1,0,0,1,.76,0,.84.84,0,0,1,.44.55,1,1,0,0,1-.08.68.8.8,0,0,1-.46.44.82.82,0,0,1-.65,0A1,1,0,0,1,51.48,21.1Z"/><path class="cls-9" d="M49.71,22.16a.75.75,0,0,1,.23-1.08.77.77,0,0,1,1.08.26.8.8,0,0,1-.26,1.05A.78.78,0,0,1,49.71,22.16Z"/><path class="cls-10" d="M48.33,23.13a.59.59,0,0,1,.13-.83.6.6,0,1,1,.69,1A.58.58,0,0,1,48.33,23.13Z"/><path class="cls-11" d="M47.17,24a.45.45,0,1,1,.63.1A.45.45,0,0,1,47.17,24Z"/><path class="cls-12" d="M58.06,21.27a.8.8,0,0,0,.1-.69.87.87,0,0,0-.51-.57.86.86,0,0,0-1.23.5.91.91,0,0,0,1.64.76Z"/><path class="cls-13" d="M59.68,22.56a.77.77,0,0,0-.08-1.11.76.76,0,0,0-1.11.12.79.79,0,0,0,.11,1.06A.78.78,0,0,0,59.68,22.56Z"/><path class="cls-14" d="M60.9,23.72a.59.59,0,0,0-.85-.81.58.58,0,0,0,0,.83A.59.59,0,0,0,60.9,23.72Z"/><path class="cls-15" d="M62,24.64a.46.46,0,0,0-.08-.63.48.48,0,0,0-.63.07.45.45,0,0,0,.07.65A.44.44,0,0,0,62,24.64Z"/><path class="cls-16" d="M53.72,37.27a1,1,0,0,0,.22.81,1.23,1.23,0,0,0,.88.37,1.21,1.21,0,0,0,.86-.4,1,1,0,0,0,.2-.82,1.23,1.23,0,0,0-.43-.7.89.89,0,0,0-.67-.26,1,1,0,0,0-.66.28A1.25,1.25,0,0,0,53.72,37.27Z"/><path class="cls-17" d="M51.48,36.51a.85.85,0,0,0,0,.7,1,1,0,0,0,.53.52,1,1,0,0,0,.76,0,.86.86,0,0,0,.44-.56,1,1,0,0,0-.08-.68.83.83,0,0,0-.46-.44.82.82,0,0,0-.65,0A1,1,0,0,0,51.48,36.51Z"/><path class="cls-18" d="M49.71,35.45a.76.76,0,0,0,.23,1.08A.77.77,0,0,0,51,36.27a.81.81,0,0,0-.26-1.06A.79.79,0,0,0,49.71,35.45Z"/><path class="cls-19" d="M48.33,34.47a.58.58,0,0,0,.13.83.59.59,0,0,0,.83-.14.58.58,0,0,0-.14-.82A.59.59,0,0,0,48.33,34.47Z"/><path class="cls-20" d="M47.17,33.63a.45.45,0,1,0,.63-.11A.45.45,0,0,0,47.17,33.63Z"/><path class="cls-21" d="M58.06,36.33a.83.83,0,0,1,.1.7.88.88,0,0,1-.51.56.84.84,0,0,1-1.23-.5.91.91,0,0,1,1.64-.76Z"/><path class="cls-22" d="M59.68,35.05a.77.77,0,1,1-1.19,1A.81.81,0,0,1,58.6,35,.78.78,0,0,1,59.68,35.05Z"/><path class="cls-23" d="M60.9,33.88a.6.6,0,0,1,0,.84.59.59,0,1,1,0-.84Z"/><path class="cls-24" d="M62,33a.46.46,0,0,1-.71.57.45.45,0,0,1,.07-.65A.44.44,0,0,1,62,33Z"/><path class="cls-25" d="M490.37,22.31c-5.85,2.55-14.06,3.2-15.14,3.28-.07,0-.12,0-.12.09l-2.86,2.5a.84.84,0,0,0,0,1.25L475.08,32s.05.08.12.09a53.76,53.76,0,0,1,15.11,3.42c.05,0,9.37-5.14,11.31-6.3a.25.25,0,0,0,0-.46C499.69,27.53,490.42,22.28,490.37,22.31Z"/><circle class="cls-26" cx="467.5" cy="28.62" r="2.1"/><path class="cls-27" d="M472.84,12.1l-.15.13a2.54,2.54,0,0,1-.49.3,2.43,2.43,0,0,1-.93.23,2.48,2.48,0,0,1-1.3-.26,2.59,2.59,0,0,1-.67-.46,3.31,3.31,0,0,1-.56-.71,3.61,3.61,0,0,1-.37-.92,3.47,3.47,0,0,1-.08-1.08,3.5,3.5,0,0,1,1-2.19,4.12,4.12,0,0,1,1.09-.79,4.2,4.2,0,0,1,1.35-.44,4.59,4.59,0,0,1,3,.59A4.67,4.67,0,0,1,476,7.6a5.29,5.29,0,0,1,.85,1.48,5.73,5.73,0,0,1,.19,3.58,5.89,5.89,0,0,1-.82,1.74,5.61,5.61,0,0,1-1.38,1.41,7.88,7.88,0,0,1-.83.54,7.58,7.58,0,0,1-.92.41,7.07,7.07,0,0,1-2,.43A7,7,0,0,1,469,17a7.61,7.61,0,0,1-1-.31,9.7,9.7,0,0,1-1-.48,7,7,0,0,1-1.69-1.39,7.57,7.57,0,0,1-.67-.85,9,9,0,0,1-.56-.94,8.71,8.71,0,0,1,1.24-9.75c.17-.17.33-.37.51-.53l.55-.48c.18-.14.38-.27.57-.41a4.45,4.45,0,0,1,.58-.38l.61-.34c.2-.11.42-.2.62-.29A10.52,10.52,0,0,1,470,.39a10.72,10.72,0,0,1,5.18-.14,10.6,10.6,0,0,1,4.31,2.14,3.79,3.79,0,0,1,.42.38l.41.39c.26.27.49.57.73.85a14.13,14.13,0,0,1,1.12,1.77,11.76,11.76,0,0,1,1.24,3.63c0,.14.06.29.08.43s0,.3,0,.44a8.29,8.29,0,0,1,.06.85,11.82,11.82,0,0,1-.06,1.59c0,.25,0,.5-.09.74s-.09.47-.14.69l-.07.34-.09.32c-.07.21-.13.41-.19.61a5.1,5.1,0,0,1-.17.61c-.06.21-.13.43-.19.65s-.18.43-.27.66a5,5,0,0,1-.3.68,10.9,10.9,0,0,1-.8,1.38c-.16.22-.3.47-.49.69l-.57.68a14.13,14.13,0,0,1-2.92,2.43A14.65,14.65,0,0,1,473.4,25l-1.1.29-1.15.18a9.07,9.07,0,0,1-1.18.11l-.6,0c-.2,0-.4,0-.6,0-.41,0-.82,0-1.23-.06l-1.25-.17-1.24-.29-.31-.07-.31-.11-.61-.21a16.31,16.31,0,0,1-4.67-2.59l-1-.91c-.34-.31-.64-.67-1-1l-.23-.25-.21-.24-.42-.47c-.28-.3-.56-.61-.87-.89A11.05,11.05,0,0,0,449.49,15a11.43,11.43,0,0,0-6.3,1.07,35.71,35.71,0,0,0-5.42,3.07c-1.66,1.1-3.2,2.18-4.64,3.12A28.18,28.18,0,0,1,429,24.56a9.15,9.15,0,0,1-3.46.86,5.2,5.2,0,0,1-2.19-.41,4.53,4.53,0,0,1-.51-.26l-.17-.1.18.08a3.5,3.5,0,0,0,.53.18,4.89,4.89,0,0,0,2.14.15,9.11,9.11,0,0,0,3.16-1.16,29.14,29.14,0,0,0,3.73-2.56c1.35-1,2.78-2.23,4.39-3.46a34.09,34.09,0,0,1,5.52-3.56,15.71,15.71,0,0,1,3.47-1.27,12.25,12.25,0,0,1,1.94-.28,11.51,11.51,0,0,1,2,.06,11.72,11.72,0,0,1,2,.47,10.86,10.86,0,0,1,1.91.84A15.26,15.26,0,0,1,457,16.63c.35.32.65.66,1,1l.45.52.23.26.2.22c.28.29.53.6.82.88l.88.8a15.07,15.07,0,0,0,4,2.34l.53.2.26.1.27.08,1.07.29,1.08.2c.36.06.72.07,1.07.11.18,0,.36,0,.54,0h.52a9,9,0,0,0,1,0l1-.1,1-.2A14,14,0,0,0,476.56,22a13.81,13.81,0,0,0,2.84-2l.57-.57c.19-.18.33-.4.5-.59a11.59,11.59,0,0,0,.86-1.2,6.21,6.21,0,0,0,.34-.61,5.58,5.58,0,0,0,.31-.59c.09-.2.17-.4.25-.59s.16-.38.22-.57l.11-.59c0-.1.05-.21.06-.31l0-.32.07-.67c0-.23,0-.46,0-.7a12.52,12.52,0,0,0-.08-1.47c0-.26-.09-.51-.13-.77s0-.26-.07-.39-.07-.26-.11-.39A11,11,0,0,0,481,6.49,13.93,13.93,0,0,0,479.88,5c-.22-.22-.43-.46-.66-.67L478.85,4a3.86,3.86,0,0,0-.38-.3,8.66,8.66,0,0,0-7.81-1.27,8.84,8.84,0,0,0-1,.4c-.16.08-.33.15-.49.24l-.47.29a4.63,4.63,0,0,0-.46.31c-.14.12-.3.22-.44.34l-.4.37c-.14.12-.24.26-.37.39a6.56,6.56,0,0,0-1.58,4.05,6.46,6.46,0,0,0,.68,3.16,6,6,0,0,0,.4.7,6.14,6.14,0,0,0,.48.63,4.63,4.63,0,0,0,1.14,1,6.06,6.06,0,0,0,.66.36c.24.08.47.18.71.24a5.16,5.16,0,0,0,1.46.17,4.94,4.94,0,0,0,1.43-.25,6.16,6.16,0,0,0,.67-.26,5.41,5.41,0,0,0,.61-.36,4,4,0,0,0,1.63-2.07,4.13,4.13,0,0,0,0-2.53,3.72,3.72,0,0,0-.55-1.11,3,3,0,0,0-.81-.84,3.38,3.38,0,0,0-3.16-.36,3.38,3.38,0,0,0-.88.53A2.69,2.69,0,0,0,469,9.42a2.74,2.74,0,0,0,1.12,2.77,2.48,2.48,0,0,0,1.13.36,2.58,2.58,0,0,0,.89-.11,3.48,3.48,0,0,0,.52-.23Z"/><path class="cls-28" d="M472.69,45.42l-.15-.12a2.09,2.09,0,0,0-.49-.31,2.41,2.41,0,0,0-.92-.24,2.7,2.7,0,0,0-1.31.24,2.86,2.86,0,0,0-.67.46,3.56,3.56,0,0,0-.57.7,3.78,3.78,0,0,0-.38.92,3.53,3.53,0,0,0,.9,3.29,4,4,0,0,0,1.07.79,4.14,4.14,0,0,0,1.35.45,4.45,4.45,0,0,0,3-.56A4.69,4.69,0,0,0,475.79,50a5.36,5.36,0,0,0,.86-1.47,5.73,5.73,0,0,0,.22-3.58,6,6,0,0,0-.8-1.75,5.6,5.6,0,0,0-1.37-1.42,7.74,7.74,0,0,0-.82-.54,6.35,6.35,0,0,0-.92-.42,7,7,0,0,0-2-.45,6.72,6.72,0,0,0-2.09.16,6.36,6.36,0,0,0-1,.3,7.85,7.85,0,0,0-1,.47,6.83,6.83,0,0,0-1.71,1.37,10.54,10.54,0,0,0-.68.85c-.21.3-.39.61-.57.93a8.87,8.87,0,0,0-1,4.28,8.65,8.65,0,0,0,2.15,5.48c.17.18.32.37.5.54l.54.48.57.42a5.35,5.35,0,0,0,.58.39l.61.34c.2.12.41.2.62.3a11.58,11.58,0,0,0,1.28.48,10.62,10.62,0,0,0,5.18.18,10.5,10.5,0,0,0,4.32-2.09,4,4,0,0,0,.44-.38l.41-.39c.26-.27.49-.56.73-.84A12.54,12.54,0,0,0,482,51.83a12.1,12.1,0,0,0,1.28-3.62c0-.14.06-.29.08-.43l0-.44a7.93,7.93,0,0,0,.07-.84,12,12,0,0,0-.05-1.6c0-.25,0-.5-.08-.74s-.09-.47-.13-.69l-.07-.34-.09-.32-.19-.61a4.66,4.66,0,0,0-.15-.62l-.19-.65c-.07-.22-.17-.43-.26-.66s-.17-.46-.29-.68a12.37,12.37,0,0,0-.8-1.39c-.15-.22-.29-.47-.48-.7l-.56-.68a14.42,14.42,0,0,0-2.9-2.46,14.9,14.9,0,0,0-3.86-1.8l-1.1-.3-1.15-.19A9.09,9.09,0,0,0,470,32l-.61,0c-.2,0-.4,0-.6,0-.41,0-.82,0-1.23.06l-1.25.16L465,32.4l-.31.08-.31.1-.62.2a16.41,16.41,0,0,0-4.69,2.55l-1,.9c-.34.31-.65.66-1,1l-.24.25-.22.24-.41.46c-.29.3-.57.61-.88.89a11.09,11.09,0,0,1-6,3.21,11.52,11.52,0,0,1-6.29-1.12A36.58,36.58,0,0,1,437.68,38c-1.65-1.11-3.17-2.21-4.61-3.15A28.15,28.15,0,0,0,429,32.56a9.36,9.36,0,0,0-3.45-.89,5.1,5.1,0,0,0-2.19.4,3.69,3.69,0,0,0-.52.25l-.17.09.18-.07a3.71,3.71,0,0,1,.54-.18,5.07,5.07,0,0,1,2.13-.13,9.12,9.12,0,0,1,3.15,1.19,29.72,29.72,0,0,1,3.72,2.6c1.33,1,2.76,2.25,4.36,3.5a34,34,0,0,0,5.48,3.61,16.74,16.74,0,0,0,3.46,1.3,13.32,13.32,0,0,0,1.94.3,11.41,11.41,0,0,0,2-.05,11.75,11.75,0,0,0,2-.44,12.09,12.09,0,0,0,1.92-.83,14.93,14.93,0,0,0,3.34-2.46c.35-.31.66-.66,1-1l.46-.52.22-.25.21-.22c.28-.29.54-.6.83-.87l.89-.8a15,15,0,0,1,4-2.3l.53-.2.27-.1.27-.07c.36-.09.71-.2,1.07-.28l1.08-.19c.36-.06.72-.06,1.08-.1a4.58,4.58,0,0,1,.53,0h.53a7.18,7.18,0,0,1,1,0l1,.11,1,.21a14.44,14.44,0,0,1,6.4,3.39l.56.58a7.22,7.22,0,0,1,.5.6,11.47,11.47,0,0,1,.85,1.2c.14.2.22.41.34.61s.21.4.3.6l.24.59a4.37,4.37,0,0,1,.21.57c0,.19.08.39.11.6l.06.31,0,.32.06.66c0,.23,0,.46,0,.7a12.63,12.63,0,0,1-.09,1.48c0,.25-.1.5-.14.76s-.05.26-.07.4-.08.25-.11.39a11.06,11.06,0,0,1-1.41,3.14,11.66,11.66,0,0,1-1.11,1.48c-.22.22-.43.45-.67.66l-.37.31a2.72,2.72,0,0,1-.38.29,8.51,8.51,0,0,1-8.83.79c-.16-.08-.33-.15-.48-.24l-.47-.29a4.73,4.73,0,0,1-.46-.32c-.14-.12-.29-.23-.44-.34l-.39-.37c-.14-.12-.24-.27-.37-.4a6.63,6.63,0,0,1-.84-7.22c.13-.23.26-.47.41-.69s.31-.45.49-.63a4.64,4.64,0,0,1,1.15-1,6,6,0,0,1,.66-.35,6.51,6.51,0,0,1,.71-.23,5.07,5.07,0,0,1,2.89.1c.23.06.45.18.67.26s.42.22.61.37a4,4,0,0,1,1.61,2.08,4.16,4.16,0,0,1,0,2.54,4.26,4.26,0,0,1-.55,1.11,3.36,3.36,0,0,1-.82.82,3.29,3.29,0,0,1-2.13.58,3,3,0,0,1-1-.25,3.08,3.08,0,0,1-.88-.53,2.7,2.7,0,0,1-.91-1.6A2.74,2.74,0,0,1,470,45.31a2.46,2.46,0,0,1,1.13-.35,2.31,2.31,0,0,1,.89.12,2,2,0,0,1,.51.24Z"/><path class="cls-29" d="M448.06,20.34a1,1,0,0,0-.23-.81,1.19,1.19,0,0,0-1.74,0,1,1,0,0,0-.2.83,1.23,1.23,0,0,0,.43.7,1,1,0,0,0,.67.26,1,1,0,0,0,.66-.28A1.3,1.3,0,0,0,448.06,20.34Z"/><path class="cls-30" d="M450.29,21.1a.86.86,0,0,0,0-.7,1,1,0,0,0-.53-.52,1,1,0,0,0-.76,0,.87.87,0,0,0-.44.55,1,1,0,0,0,.08.68.8.8,0,0,0,.46.44.82.82,0,0,0,.65,0A1,1,0,0,0,450.29,21.1Z"/><path class="cls-31" d="M452.07,22.16a.78.78,0,1,0-1.32-.82.78.78,0,0,0,1.32.82Z"/><path class="cls-32" d="M453.44,23.13a.59.59,0,0,0-.13-.83.59.59,0,0,0-.83.14.6.6,0,0,0,.14.83A.58.58,0,0,0,453.44,23.13Z"/><path class="cls-33" d="M454.6,24a.45.45,0,1,0-.63.1A.45.45,0,0,0,454.6,24Z"/><path class="cls-34" d="M443.71,21.27a.84.84,0,0,1-.1-.69.87.87,0,0,1,.51-.57.86.86,0,0,1,1.23.5.91.91,0,0,1-1.64.76Z"/><path class="cls-35" d="M442.09,22.56a.77.77,0,0,1,.08-1.11.76.76,0,0,1,1.11.12.77.77,0,0,1-1.19,1Z"/><path class="cls-36" d="M440.87,23.72a.59.59,0,0,1,0-.83.6.6,0,0,1,.84,0,.59.59,0,0,1-.86.81Z"/><path class="cls-37" d="M439.77,24.64a.46.46,0,0,1,.08-.63.48.48,0,0,1,.63.07.45.45,0,0,1-.07.65A.44.44,0,0,1,439.77,24.64Z"/><path class="cls-38" d="M448.06,37.27a1,1,0,0,1-.23.81,1.23,1.23,0,0,1-.88.37,1.21,1.21,0,0,1-.86-.4,1,1,0,0,1-.2-.82,1.23,1.23,0,0,1,.43-.7.89.89,0,0,1,.67-.26,1,1,0,0,1,.66.28A1.26,1.26,0,0,1,448.06,37.27Z"/><path class="cls-39" d="M450.29,36.51a.85.85,0,0,1,0,.7,1,1,0,0,1-.53.52,1,1,0,0,1-.76,0,.89.89,0,0,1-.44-.56,1,1,0,0,1,.08-.68.83.83,0,0,1,.46-.44.82.82,0,0,1,.65,0A.91.91,0,0,1,450.29,36.51Z"/><path class="cls-40" d="M452.07,35.45a.78.78,0,1,1-1.32.82.81.81,0,0,1,.26-1.06A.8.8,0,0,1,452.07,35.45Z"/><path class="cls-41" d="M453.44,34.47a.58.58,0,0,1-.13.83.59.59,0,1,1,.13-.83Z"/><path class="cls-42" d="M454.6,33.63a.45.45,0,1,1-.63-.11A.45.45,0,0,1,454.6,33.63Z"/><path class="cls-43" d="M443.71,36.33a.86.86,0,0,0-.1.7.88.88,0,0,0,.51.56.84.84,0,0,0,1.23-.5.91.91,0,0,0-1.64-.76Z"/><path class="cls-44" d="M442.09,35.05a.77.77,0,1,0,1.19,1,.8.8,0,0,0-.11-1.07A.78.78,0,0,0,442.09,35.05Z"/><path class="cls-45" d="M440.87,33.88a.59.59,0,1,0,.84,0A.59.59,0,0,0,440.87,33.88Z"/><path class="cls-46" d="M439.77,33a.46.46,0,0,0,.71.57.45.45,0,0,0-.07-.65A.44.44,0,0,0,439.77,33Z"/></g></g></svg>