<svg xmlns="http://www.w3.org/2000/svg" xmlns:xlink="http://www.w3.org/1999/xlink" viewBox="0 0 498.25 84.36"><defs><style>.cls-1{fill:url(#linear-gradient);}.cls-2{fill:url(#linear-gradient-2);}.cls-3{fill:url(#linear-gradient-3);}.cls-4{fill:url(#linear-gradient-4);}.cls-5{fill:url(#linear-gradient-5);}.cls-6{fill:url(#linear-gradient-6);}.cls-7{fill:url(#linear-gradient-7);}.cls-8{fill:url(#linear-gradient-8);}.cls-9{fill:url(#linear-gradient-9);}.cls-10{fill:url(#linear-gradient-10);}.cls-11{fill:url(#linear-gradient-11);}.cls-12{fill:url(#linear-gradient-12);}.cls-13{fill:url(#linear-gradient-13);}.cls-14{fill:url(#linear-gradient-14);}.cls-15{fill:url(#linear-gradient-15);}.cls-16{fill:url(#linear-gradient-16);}.cls-17{fill:url(#linear-gradient-17);}.cls-18{fill:url(#linear-gradient-18);}</style><linearGradient id="linear-gradient" x1="255.2" y1="29.31" x2="273.47" y2="29.31" gradientUnits="userSpaceOnUse"><stop offset="0" stop-color="#fef275"/><stop offset="1" stop-color="#bda32b"/></linearGradient><linearGradient id="linear-gradient-2" x1="241.83" y1="23.1" x2="256.43" y2="23.1" xlink:href="#linear-gradient"/><linearGradient id="linear-gradient-3" x1="224.42" y1="29.31" x2="242.69" y2="29.31" xlink:href="#linear-gradient"/><linearGradient id="linear-gradient-4" x1="246.76" y1="47.35" x2="251.5" y2="47.35" xlink:href="#linear-gradient"/><linearGradient id="linear-gradient-5" x1="251.89" y1="44.92" x2="258.51" y2="44.92" xlink:href="#linear-gradient"/><linearGradient id="linear-gradient-6" x1="239.08" y1="44.92" x2="246.29" y2="44.92" xlink:href="#linear-gradient"/><linearGradient id="linear-gradient-7" x1="262.02" y1="33.11" x2="456.13" y2="33.11" xlink:href="#linear-gradient"/><linearGradient id="linear-gradient-8" x1="300.68" y1="69.16" x2="408" y2="69.16" xlink:href="#linear-gradient"/><linearGradient id="linear-gradient-9" x1="455.12" y1="33.13" x2="475.37" y2="33.13" xlink:href="#linear-gradient"/><linearGradient id="linear-gradient-10" x1="465" y1="42.62" x2="498.25" y2="42.62" xlink:href="#linear-gradient"/><linearGradient id="linear-gradient-11" x1="366.57" y1="65.68" x2="456.13" y2="65.68" xlink:href="#linear-gradient"/><linearGradient id="linear-gradient-12" x1="462.32" y1="57.52" x2="479.37" y2="57.52" xlink:href="#linear-gradient"/><linearGradient id="linear-gradient-13" x1="42.12" y1="33.06" x2="236.23" y2="33.06" xlink:href="#linear-gradient"/><linearGradient id="linear-gradient-14" x1="90.25" y1="69.13" x2="197.57" y2="69.13" xlink:href="#linear-gradient"/><linearGradient id="linear-gradient-15" x1="22.88" y1="33.08" x2="43.13" y2="33.08" xlink:href="#linear-gradient"/><linearGradient id="linear-gradient-16" x1="0" y1="42.56" x2="33.25" y2="42.56" xlink:href="#linear-gradient"/><linearGradient id="linear-gradient-17" x1="42.12" y1="65.63" x2="131.68" y2="65.63" xlink:href="#linear-gradient"/><linearGradient id="linear-gradient-18" x1="18.88" y1="57.44" x2="35.94" y2="57.44" xlink:href="#linear-gradient"/></defs><g id="Layer_2" data-name="Layer 2"><g id="object"><path class="cls-1" d="M272.4,27.79a1.77,1.77,0,0,0,1-1.23,3.72,3.72,0,0,0-.32-2.44,6.31,6.31,0,0,0-2.59-2.73,7.92,7.92,0,0,0-4.49-1,8.84,8.84,0,0,0-2.87.69A11.29,11.29,0,0,0,260,23a13.41,13.41,0,0,0-2.58,3,14.69,14.69,0,0,0-1.57,3.53,15.73,15.73,0,0,0-.58,3.4c0,.53,0,1,0,1.49s.06.89.12,1.28.12.75.19,1.05a4.62,4.62,0,0,0,.23.78c.15.43.29.66.4.66s.25-.23.42-.63.39-1,.64-1.64c.13-.33.3-.69.45-1.06s.37-.76.57-1.15a17.25,17.25,0,0,1,1.48-2.3,12.32,12.32,0,0,1,1.91-1.91,9.25,9.25,0,0,1,2-1.21,6.91,6.91,0,0,1,1.72-.5,2.09,2.09,0,0,1,.34,0l.3,0,.26,0h.22c.53,0,1-.07,1.39-.08a7.51,7.51,0,0,1,1.41,0C270.3,27.8,271.45,28.2,272.4,27.79Z"/><path class="cls-2" d="M256.43,19.25c-2.86,6.48-3.62,15.58-3.72,16.78,0,.08-.05.13-.1.13l-2.79,3.16a.92.92,0,0,1-1.39,0l-2.79-3.16s-.09,0-.1-.13a59.91,59.91,0,0,0-3.71-16.78c0-.06,5.74-10.37,7-12.52a.29.29,0,0,1,.52,0C250.69,8.88,256.46,19.19,256.43,19.25Z"/><path class="cls-3" d="M225.49,27.79a1.78,1.78,0,0,1-1-1.23,3.73,3.73,0,0,1,.33-2.44,6.31,6.31,0,0,1,2.59-2.73,7.92,7.92,0,0,1,4.49-1,8.84,8.84,0,0,1,2.87.69A11.29,11.29,0,0,1,237.94,23a13.12,13.12,0,0,1,2.57,3,14.35,14.35,0,0,1,1.58,3.53,16.36,16.36,0,0,1,.58,3.4c0,.53,0,1,0,1.49s-.06.89-.12,1.28-.12.75-.19,1.05a5.78,5.78,0,0,1-.23.78c-.15.43-.29.66-.41.66s-.24-.23-.41-.63-.39-1-.64-1.64c-.13-.33-.3-.69-.45-1.06s-.37-.76-.57-1.15a16.38,16.38,0,0,0-1.49-2.3,12.26,12.26,0,0,0-1.9-1.91,9.25,9.25,0,0,0-2-1.21,6.91,6.91,0,0,0-1.72-.5,2.23,2.23,0,0,0-.34,0l-.3,0-.26,0h-.22c-.53,0-1-.07-1.39-.08a7.51,7.51,0,0,0-1.41,0C227.59,27.8,226.43,28.2,225.49,27.79Z"/><path class="cls-4" d="M249.07,41.83s-5.2,11,0,11.06S249.38,41.17,249.07,41.83Z"/><path class="cls-5" d="M251.9,41.86s3.47,8.46,6.11,5.59S251.69,41.35,251.9,41.86Z"/><path class="cls-6" d="M246.25,42.18s-9,1.49-6.82,4.7S246.79,42.09,246.25,42.18Z"/><path class="cls-7" d="M455.45,20.79A24.94,24.94,0,0,0,453,14.32a26.56,26.56,0,0,0-3.56-4.94,28.62,28.62,0,0,0-4.14-3.74l-1.11-.8c-.19-.14-.38-.26-.59-.39l-.6-.37c-.39-.26-.81-.47-1.22-.69l-.61-.32-.63-.29A27.64,27.64,0,0,0,435.37,1a34.75,34.75,0,0,0-5.2-.84,40.86,40.86,0,0,0-14.88,1.59c-.78.22-1.53.5-2.29.76-.38.13-.74.29-1.11.43s-.74.29-1.1.46l-1.08.49-1.06.53-.52.27-.51.29-1,.58-1,.63-.48.32-.47.33-.93.68-.89.72c-.3.24-.58.49-.86.75l-.83.77c-.52.55-1.06,1.06-1.53,1.64A25.34,25.34,0,0,0,397.07,15l-.51,1-.25.48-.22.49-.43,1-.36,1-.17.5c-.05.17-.09.34-.14.51-.09.34-.17.68-.26,1s-.12.69-.18,1l-.09.51c0,.17,0,.34,0,.51l-.09,1c0,.34,0,.68,0,1v.5l0,.5c0,.33,0,.66.07,1l.15,1c0,.16.05.32.08.47l.11.47c.07.31.14.62.22.92s.2.6.29.9l.15.44.17.43.35.84.41.81.2.39c.07.13.15.26.23.38s.3.51.45.75.34.48.5.71a13.91,13.91,0,0,0,1.06,1.32,16.68,16.68,0,0,0,4.9,3.84,15.44,15.44,0,0,0,5.14,1.62,14.7,14.7,0,0,0,4.48-.09l.49-.08.47-.11.89-.23c.55-.19,1.07-.37,1.54-.56l1.27-.6.4-.24a6.14,6.14,0,1,0-3.14-.27l-.45.09-.81.1-.43.05a3.17,3.17,0,0,1-.44,0,13.3,13.3,0,0,1-3.89-.3A13.89,13.89,0,0,1,405,38.32a14.31,14.31,0,0,1-3.89-3.46,13.7,13.7,0,0,1-.81-1.14c-.12-.21-.26-.4-.38-.61s-.23-.42-.34-.64a3.24,3.24,0,0,1-.17-.32l-.15-.34-.3-.67c-.09-.24-.17-.47-.25-.71l-.13-.35c0-.13-.07-.25-.1-.37l-.2-.74-.15-.76-.07-.38c0-.13,0-.26-.05-.39l-.09-.78,0-.8v-.4l0-.4c0-.27,0-.54,0-.81s.07-.55.1-.82,0-.27.06-.41l.09-.4c.05-.28.11-.55.17-.82l.24-.81c.05-.14.08-.28.13-.41l.16-.4c.1-.27.2-.54.31-.81s.25-.52.38-.78l.19-.4.22-.39.45-.78A25.59,25.59,0,0,1,412.5,7.43c.32-.15.65-.27,1-.39s.66-.26,1-.37c.68-.22,1.35-.45,2-.63a37.23,37.23,0,0,1,4.27-.94,36.67,36.67,0,0,1,9-.31,29.89,29.89,0,0,1,4.49.77,22.26,22.26,0,0,1,4.29,1.5l.52.23.49.27c.33.18.67.35,1,.55l.48.3c.16.1.32.2.48.32l.95.69a24.61,24.61,0,0,1,3.47,3.14,22.78,22.78,0,0,1,2.93,4,20.3,20.3,0,0,1,2.05,5.25,22.86,22.86,0,0,1,.57,6.28c0,.55-.09,1.11-.14,1.68s-.17,1.13-.25,1.71a27.85,27.85,0,0,1-.9,3.45,30.31,30.31,0,0,1-1.37,3.46,34.23,34.23,0,0,1-1.89,3.37A33.86,33.86,0,0,1,444.55,45c-.45.5-.88,1-1.37,1.51-.24.25-.47.5-.72.74l-.75.71c-.25.25-.52.47-.78.7l-.81.68-1.74,1.34c-.29.23-.58.46-.88.68l-.91.64-.91.64c-.3.22-.61.44-.93.63l-1.9,1.21c-.65.39-1.32.74-2,1.12s-1.34.71-2,1l-1,.51c-.35.17-.71.3-1.06.46l-1.07.44a11.2,11.2,0,0,1-1.09.43l-2.21.78-2.28.66c-.37.12-.77.2-1.15.29l-1.17.27A74.13,74.13,0,0,1,408.09,62c-.83.09-1.67.12-2.5.19l-1.26.09-1.27,0-2.53.11-2.56.06c-.86,0-1.71,0-2.57,0h-2.59l-2.55-.06-1.28,0c-.43,0-.86-.05-1.28-.07l-2.57-.17c-.86-.07-1.71-.17-2.57-.25-1.71-.15-3.42-.42-5.13-.65-.86-.12-1.71-.28-2.56-.42s-1.71-.27-2.56-.45c-1.7-.34-3.41-.66-5.09-1.06-3.39-.73-6.75-1.62-10.09-2.5S350.48,55,347.2,54s-6.53-2-9.75-3-6.43-1.94-9.57-2.88c-6.27-1.89-12.37-3.81-18.32-5.36-3-.78-5.91-1.44-8.79-2s-5.71-1-8.47-1.25a59.28,59.28,0,0,0-15.49.47,33.26,33.26,0,0,0-6.6,1.8A16.39,16.39,0,0,0,264.94,45a10,10,0,0,0-1.76,2.23,9.29,9.29,0,0,0-.94,2.46c0,.2-.08.41-.11.61s-.05.41-.07.61a7.79,7.79,0,0,0,0,1.18,8.84,8.84,0,0,0,.39,2.14,7.67,7.67,0,0,0,1.84,3.14,4.42,4.42,0,0,0,2.33,1.3,3.8,3.8,0,0,0,1.64-.06,2.47,2.47,0,0,0,.39-.13c.09,0,.13-.05.13-.06a2.75,2.75,0,0,0-.55.08,4,4,0,0,1-1.56-.06,4.21,4.21,0,0,1-2.11-1.33,7.27,7.27,0,0,1-1.6-3,8.55,8.55,0,0,1-.3-2A8.23,8.23,0,0,1,262.7,51c0-.18,0-.37.08-.56s.08-.37.13-.57a8.67,8.67,0,0,1,.93-2.22,9,9,0,0,1,1.69-2,15.43,15.43,0,0,1,5.05-2.89A32.53,32.53,0,0,1,277,41.19a58.14,58.14,0,0,1,15.12-.08c2.69.35,5.46.8,8.29,1.42s5.7,1.33,8.62,2.17c5.85,1.66,11.87,3.7,18.14,5.72,3.13,1,6.29,2,9.49,3.07s6.43,2.11,9.71,3.16,6.59,2.07,9.94,3.06,6.74,1.92,10.18,2.73c1.71.43,3.44.79,5.17,1.16.87.2,1.74.34,2.61.51s1.74.35,2.62.48c1.76.26,3.5.57,5.27.75.88.11,1.76.23,2.65.31l2.65.22c.44,0,.88.08,1.32.1l1.33,0,2.66.11,2.61,0c.87,0,1.74,0,2.62,0l2.6,0,2.61-.07,1.29,0,1.3-.07c.87,0,1.73-.08,2.59-.15a79.38,79.38,0,0,0,10.23-1.4l1.25-.27c.42-.1.84-.18,1.25-.3l2.46-.68,2.41-.81a12.08,12.08,0,0,0,1.19-.44l1.17-.47c.38-.16.78-.3,1.15-.48l1.13-.54c.76-.35,1.51-.69,2.22-1.1s1.45-.77,2.15-1.18l2.07-1.27c.34-.21.67-.44,1-.66l1-.68,1-.67c.32-.22.63-.47.94-.7l1.86-1.4.92-.76c.31-.25.61-.5.9-.78l.87-.8c.28-.27.55-.55.83-.83.55-.54,1.05-1.13,1.57-1.71a34,34,0,0,0,2.74-3.64,35.22,35.22,0,0,0,2.21-3.84,33.65,33.65,0,0,0,1.63-4A28.65,28.65,0,0,0,455.45,20.79Z"/><path class="cls-8" d="M300.7,56.91c-.07-.23.08-.51.46-.83a5.57,5.57,0,0,1,.73-.53c.16-.09.32-.19.5-.28L303,55A17.58,17.58,0,0,1,310.44,54a38.8,38.8,0,0,1,10.7,2.27c1.9.68,3.86,1.47,5.83,2.36s3.94,1.86,5.92,2.85c8,3.9,25.23,13.93,42.3,17.79a123.75,123.75,0,0,0,22.81,3c1.52.05,2.91.13,4.13.16l3.15,0a9.45,9.45,0,0,1,2.72.23,10,10,0,0,1-2.67.55c-.87.13-1.92.28-3.14.44s-2.62.24-4.16.37a108.84,108.84,0,0,1-23.61-.74,113.53,113.53,0,0,1-13.53-2.94c-1.11-.3-2.2-.67-3.29-1L356,78.84l-1.6-.56-3.13-1.11-3-1.17c-1-.38-2-.78-2.89-1.17l-2.76-1.16c-1.78-.79-3.46-1.53-5-2.25-3.12-1.44-5.77-2.7-7.77-3.7L324,64.79q-2.75-1.4-5.27-2.56a59.59,59.59,0,0,0-9-3.36,38.51,38.51,0,0,0-6.34-1.15l-.56-.09-.5-.05a5.2,5.2,0,0,1-.81-.14C301.06,57.32,300.77,57.14,300.7,56.91Z"/><path class="cls-9" d="M474.89,22.92c.64.54.62,1.72.1,3.21a17.54,17.54,0,0,1-3,5.09,58.52,58.52,0,0,1-9,8.29,33.1,33.1,0,0,1-5.27,3.25,12.58,12.58,0,0,1-1.81.73c-.44.14-.71.18-.76.1s.1-.3.4-.66.73-.81,1.24-1.4c1.05-1.16,2.4-2.76,3.74-4.55,2.69-3.55,5.4-7.8,6.84-9.55a18,18,0,0,1,4.36-4C473.09,22.63,474.26,22.39,474.89,22.92Z"/><path class="cls-10" d="M498.25,41.86c0,2.08-4.42,3.62-9.63,3.8-2.62.08-8.43-.29-13.62.13a67.12,67.12,0,0,0-6.86.86c-.92.13-1.66.3-2.2.36s-.88.05-.93-.06.16-.33.58-.7a15.48,15.48,0,0,1,1.84-1.38A35.13,35.13,0,0,1,474,41.51a50.1,50.1,0,0,1,8.11-2.42,39.83,39.83,0,0,1,6.24-.89,18.31,18.31,0,0,1,7,1C497.18,39.88,498.26,40.83,498.25,41.86Z"/><path class="cls-11" d="M456.13,54.53,453.3,57a92.09,92.09,0,0,1-8.24,6.13,93.13,93.13,0,0,1-13.48,7.27,80,80,0,0,1-18.09,5.4,70.13,70.13,0,0,1-18.91.71l-1.08-.1-1.06-.15-2.08-.31c-.68-.12-1.35-.19-2-.34l-1.93-.43c-1.26-.3-2.47-.54-3.64-.92-.59-.17-1.14-.36-1.69-.55s-1.07-.38-1.58-.59c-2-.79-3.81-1.58-5.38-2.23-.78-.33-1.51-.63-2.19-.89s-1.3-.49-1.87-.69l-.8-.28a6.33,6.33,0,0,1-.72-.29,3.58,3.58,0,0,0-1.05-.44,2.59,2.59,0,0,0-.7,0l-.24,0,.23-.09a2.06,2.06,0,0,1,.72-.15,3.55,3.55,0,0,1,1.19.23c.43.12.94.17,1.55.27s1.27.2,2,.36,1.51.33,2.34.53c1.68.4,3.56.93,5.62,1.42.52.14,1,.25,1.58.36s1.08.24,1.64.32c1.1.22,2.31.32,3.54.47l1.87.23c.63.08,1.28.08,1.94.13l2,.12,1,.07h1a92,92,0,0,0,17.9-1.37,112.67,112.67,0,0,0,17.45-4.48,139.48,139.48,0,0,0,13.76-5.66c3.82-1.86,6.87-3.52,9-4.71Z"/><path class="cls-12" d="M478.23,63c-1.76,1.05-4.3.24-6.3-1.73-.5-.49-1.21-1.41-2.05-2.42a24.76,24.76,0,0,0-2.82-3,5.87,5.87,0,0,0-2.89-1.51c-.91-.14-1.65.14-1.82,0s0-.29.14-.63a3.46,3.46,0,0,1,1.1-1.14,5.27,5.27,0,0,1,2.28-.83,9.38,9.38,0,0,1,2.84.09,17.46,17.46,0,0,1,5.22,1.9,15.65,15.65,0,0,1,3.26,2.27,7.22,7.22,0,0,1,2.13,4A2.89,2.89,0,0,1,478.23,63Z"/><path class="cls-13" d="M42.8,20.74a24.94,24.94,0,0,1,2.48-6.47,26.89,26.89,0,0,1,3.56-4.94A28.62,28.62,0,0,1,53,5.59c.37-.27.74-.54,1.12-.8a6.51,6.51,0,0,1,.58-.39l.6-.37a12.18,12.18,0,0,1,1.22-.68L57.12,3l.63-.29A27.3,27.3,0,0,1,62.88,1a35,35,0,0,1,5.2-.84A39.93,39.93,0,0,1,78.19.6,39.41,39.41,0,0,1,83,1.72c.78.22,1.53.5,2.29.76.38.13.74.29,1.12.43s.74.29,1.09.46l1.08.49c.36.17.71.36,1.06.53l.52.27.51.29,1,.58,1,.63.48.32.47.34.93.67.89.72c.3.24.58.49.86.75l.83.77c.52.55,1.06,1.06,1.53,1.65A24.7,24.7,0,0,1,101.18,15l.51.95.25.48.22.49c.15.33.29.66.44,1s.23.68.35,1l.17.5c0,.17.09.34.14.51l.26,1c.07.34.12.68.18,1l.09.51c0,.17,0,.34,0,.51l.09,1c0,.34,0,.68,0,1v.5l0,.5c0,.33-.06.66-.08,1l-.15,1c0,.16-.05.32-.08.47l-.11.47c-.07.31-.14.62-.22.92s-.19.6-.29.9c0,.15-.09.29-.15.44l-.17.43c-.12.28-.24.56-.35.84l-.41.81-.2.39c-.07.13-.15.26-.23.38l-.45.75c-.16.25-.34.48-.5.71a15.6,15.6,0,0,1-1,1.32,16.72,16.72,0,0,1-4.91,3.84,15.44,15.44,0,0,1-5.14,1.62,14.4,14.4,0,0,1-4.48-.09L84.45,42,84,41.92l-.88-.23c-.56-.19-1.08-.37-1.55-.56l-1.27-.6-.4-.24A6.14,6.14,0,1,1,83,40l.45.09.81.1.43,0a3.17,3.17,0,0,0,.44,0A13.3,13.3,0,0,0,89,40a13.89,13.89,0,0,0,4.23-1.71,14.31,14.31,0,0,0,3.89-3.46A13.7,13.7,0,0,0,98,33.67c.13-.2.26-.4.38-.61s.23-.42.34-.64a3.24,3.24,0,0,0,.17-.32l.15-.34.3-.67c.09-.24.17-.47.25-.71l.13-.35c0-.12.07-.25.1-.37l.2-.74.15-.76.07-.38c0-.13,0-.26.05-.39l.09-.78,0-.8,0-.4,0-.4,0-.81c0-.27-.08-.54-.11-.82,0-.13,0-.27-.06-.41l-.08-.4-.18-.82-.24-.81c0-.14-.08-.28-.13-.41l-.15-.4-.32-.81c-.12-.26-.25-.52-.38-.78l-.19-.4-.22-.39L97.82,17a25.55,25.55,0,0,0-12.07-9.6c-.32-.15-.65-.27-1-.39s-.66-.26-1-.37c-.68-.22-1.35-.45-2-.63A36.69,36.69,0,0,0,68.49,4.74,31.22,31.22,0,0,0,64,5.51,22.26,22.26,0,0,0,59.71,7l-.51.23-.5.27c-.33.18-.67.35-1,.55l-.48.3c-.16.1-.32.2-.48.32l-.95.69a24.61,24.61,0,0,0-3.47,3.14,22.78,22.78,0,0,0-2.93,4,20.23,20.23,0,0,0-2,5.26,22.75,22.75,0,0,0-.57,6.27c0,.56.09,1.11.14,1.68s.17,1.13.25,1.71a27.85,27.85,0,0,0,.9,3.45,30.31,30.31,0,0,0,1.37,3.46,34.23,34.23,0,0,0,1.89,3.37A32.63,32.63,0,0,0,53.7,45c.45.5.88,1,1.37,1.51.24.25.47.5.72.74l.75.71c.25.25.52.47.78.7l.81.68,1.74,1.34c.29.23.58.46.88.68l.91.64.91.64c.31.22.61.44.93.63l1.9,1.21c.65.39,1.32.74,2,1.12s1.34.71,2,1l1,.51c.35.17.71.3,1.06.46l1.07.44a11.2,11.2,0,0,0,1.09.43l2.21.78,2.28.66c.38.12.77.2,1.15.29l1.17.27a74.13,74.13,0,0,0,9.69,1.47c.83.09,1.67.13,2.51.19l1.25.09,1.27.06,2.54.1,2.55.06,2.57,0h2.59L108,62.4l1.28,0c.43,0,.86,0,1.29-.07l2.56-.17c.86-.06,1.71-.17,2.57-.25,1.71-.15,3.42-.42,5.13-.65.86-.11,1.71-.28,2.57-.42s1.7-.27,2.55-.45c1.7-.34,3.41-.66,5.1-1.06,3.39-.73,6.74-1.62,10.08-2.5s6.65-1.87,9.93-2.86,6.53-2,9.75-3,6.43-1.94,9.57-2.88c6.27-1.89,12.38-3.81,18.32-5.36,3-.78,5.91-1.44,8.79-2s5.72-1,8.47-1.24a58.87,58.87,0,0,1,15.49.46,33.07,33.07,0,0,1,6.6,1.8A16.39,16.39,0,0,1,233.31,45a10,10,0,0,1,1.76,2.23,9.29,9.29,0,0,1,.94,2.46c0,.21.08.41.11.61s0,.41.07.61a9.39,9.39,0,0,1,0,1.18,8.84,8.84,0,0,1-.4,2.14A7.77,7.77,0,0,1,234,57.33a4.48,4.48,0,0,1-2.34,1.3,3.8,3.8,0,0,1-1.64-.06,1.94,1.94,0,0,1-.39-.13c-.09,0-.13,0-.13-.06a2.75,2.75,0,0,1,.55.08,4,4,0,0,0,1.56-.06,4.21,4.21,0,0,0,2.11-1.33,7.23,7.23,0,0,0,1.6-3,8.71,8.71,0,0,0,.3-2,6.89,6.89,0,0,0-.06-1.1c0-.18,0-.37-.08-.56l-.12-.56a8.28,8.28,0,0,0-2.63-4.22,15.33,15.33,0,0,0-5.05-2.89,33.24,33.24,0,0,0-6.43-1.56,58.14,58.14,0,0,0-15.12-.08c-2.69.35-5.46.8-8.28,1.42s-5.7,1.34-8.63,2.17c-5.84,1.66-11.87,3.7-18.13,5.72-3.14,1-6.3,2-9.5,3.07s-6.43,2.11-9.71,3.16-6.59,2.07-9.94,3.06-6.74,1.92-10.18,2.73c-1.71.43-3.44.79-5.17,1.16-.86.2-1.74.34-2.61.51s-1.74.35-2.62.48c-1.75.26-3.5.57-5.27.76-.88.1-1.76.22-2.64.3l-2.66.22c-.44,0-.88.08-1.32.1l-1.33,0-2.66.11-2.61,0c-.87,0-1.74,0-2.61,0l-2.61,0L95,66l-1.3,0-1.3-.07c-.87,0-1.73-.08-2.59-.15a79.38,79.38,0,0,1-10.23-1.4l-1.25-.27c-.42-.1-.84-.18-1.25-.3l-2.46-.68-2.41-.81c-.4-.12-.8-.28-1.19-.44L69.9,61.4c-.39-.16-.79-.3-1.16-.48l-1.13-.54c-.75-.35-1.51-.69-2.22-1.1s-1.45-.77-2.15-1.18l-2.07-1.27c-.34-.21-.67-.44-1-.66l-1-.68-1-.67c-.32-.22-.63-.47-.94-.7l-1.86-1.4L54.49,52c-.3-.25-.61-.5-.9-.78l-.87-.8c-.28-.27-.55-.55-.82-.83-.56-.54-1.06-1.13-1.58-1.7a36.09,36.09,0,0,1-2.74-3.64,38.15,38.15,0,0,1-2.21-3.85,35.43,35.43,0,0,1-1.63-4A28.65,28.65,0,0,1,42.8,20.74Z"/><path class="cls-14" d="M197.55,56.86c-.07.23-.36.41-.82.53a5.2,5.2,0,0,1-.81.14l-.5,0-.56.09a38.42,38.42,0,0,0-6.33,1.15,59.28,59.28,0,0,0-9,3.36c-1.68.78-3.43,1.63-5.27,2.56l-5.75,2.93c-2,1-4.65,2.27-7.77,3.71-1.56.71-3.25,1.46-5,2.25l-2.75,1.16c-.94.4-1.9.79-2.9,1.17l-3,1.18-3.13,1.11-1.6.56-1.63.51c-1.09.33-2.18.71-3.29,1a113.63,113.63,0,0,1-13.53,3,108.93,108.93,0,0,1-23.62.74c-1.54-.13-2.93-.23-4.16-.38s-2.28-.31-3.14-.45a8.46,8.46,0,0,1-2.67-.58A10.71,10.71,0,0,1,93,82.43l3.15,0c1.22,0,2.61-.1,4.13-.15a123,123,0,0,0,22.82-3c17.07-3.87,34.26-13.93,42.29-17.82,2-1,3.95-2,5.92-2.86s3.93-1.68,5.83-2.36a38.8,38.8,0,0,1,10.7-2.27,17.58,17.58,0,0,1,7.47,1l.58.24c.18.09.35.19.5.28a5.57,5.57,0,0,1,.73.53C197.47,56.35,197.62,56.63,197.55,56.86Z"/><path class="cls-15" d="M23.36,22.88c.63-.54,1.81-.3,3.18.52a18.17,18.17,0,0,1,4.36,4c1.44,1.76,4.17,6,6.87,9.53,1.34,1.78,2.69,3.38,3.73,4.54.51.59,1,1.06,1.24,1.41s.43.6.38.68-.31,0-.75-.12a12.77,12.77,0,0,1-1.79-.74,33.59,33.59,0,0,1-5.28-3.25,58,58,0,0,1-9-8.26,17.54,17.54,0,0,1-3-5.09C22.74,24.59,22.72,23.41,23.36,22.88Z"/><path class="cls-16" d="M0,41.81c0-1,1.07-2,2.85-2.66a18.53,18.53,0,0,1,7.05-1,40.54,40.54,0,0,1,6.24.87,51.54,51.54,0,0,1,8.13,2.4,34.26,34.26,0,0,1,6.57,3.36,15.12,15.12,0,0,1,1.84,1.39c.41.37.61.63.56.73s-.37.1-.91,0-1.28-.24-2.2-.37a61.82,61.82,0,0,0-6.87-.86c-5.2-.4-11,0-13.63-.09C4.43,45.43,0,43.89,0,41.81Z"/><path class="cls-17" d="M42.12,54.48l3.24,1.87c2.09,1.19,5.14,2.85,9,4.71a139.48,139.48,0,0,0,13.76,5.66A113,113,0,0,0,85.53,71.2a92,92,0,0,0,17.9,1.37h1l1-.07,2-.12c.65-.05,1.3-.05,1.93-.13l1.88-.23c1.22-.15,2.43-.25,3.53-.47.56-.08,1.1-.2,1.64-.32s1.06-.22,1.58-.36c2.06-.49,3.94-1,5.62-1.42.83-.2,1.61-.38,2.34-.53s1.4-.26,2-.35,1.11-.16,1.54-.28a3.55,3.55,0,0,1,1.19-.23,2.32,2.32,0,0,1,.72.15l.23.09-.24,0a2.59,2.59,0,0,0-.7,0,4,4,0,0,0-1.05.44A6.33,6.33,0,0,1,129,69l-.8.28c-.57.2-1.19.41-1.87.69s-1.41.56-2.19.89c-1.57.65-3.34,1.44-5.38,2.23-.51.21-1,.4-1.58.59s-1.1.39-1.69.55c-1.17.38-2.38.62-3.64.92l-1.93.43c-.65.15-1.32.22-2,.34l-2.08.31-1.06.15-1.08.1a70.52,70.52,0,0,1-18.91-.7,81,81,0,0,1-18.09-5.4,93.1,93.1,0,0,1-13.48-7.28A92.09,92.09,0,0,1,45,56.94Z"/><path class="cls-18" d="M20,62.91a2.89,2.89,0,0,1-1.09-3,7.18,7.18,0,0,1,2.14-4,15.48,15.48,0,0,1,3.24-2.28,17.43,17.43,0,0,1,5.21-1.93,9.46,9.46,0,0,1,2.85-.1,5.27,5.27,0,0,1,2.31.83,3.5,3.5,0,0,1,1.1,1.17c.16.34.2.56.12.65s-.89-.12-1.8,0a5.74,5.74,0,0,0-2.92,1.52,22.87,22.87,0,0,0-2.82,3c-.84,1-1.54,1.94-2,2.43C24.32,63.15,21.78,64,20,62.91Z"/></g></g></svg>