<svg xmlns="http://www.w3.org/2000/svg" xmlns:xlink="http://www.w3.org/1999/xlink" viewBox="0 0 494.21 33.85"><defs><style>.cls-1{fill:url(#linear-gradient);}.cls-2{fill:url(#linear-gradient-2);}.cls-3{fill:url(#linear-gradient-3);}.cls-4{fill:url(#linear-gradient-4);}.cls-5{fill:url(#linear-gradient-5);}.cls-6{fill:url(#linear-gradient-6);}.cls-7{fill:url(#linear-gradient-7);}.cls-8{fill:url(#linear-gradient-8);}.cls-9{fill:url(#linear-gradient-9);}.cls-10{fill:url(#linear-gradient-10);}.cls-11{fill:url(#linear-gradient-11);}.cls-12{fill:url(#linear-gradient-12);}.cls-13{fill:url(#linear-gradient-13);}.cls-14{fill:url(#linear-gradient-14);}.cls-15{fill:url(#linear-gradient-15);}.cls-16{fill:url(#linear-gradient-16);}.cls-17{fill:url(#linear-gradient-17);}.cls-18{fill:url(#linear-gradient-18);}.cls-19{fill:url(#linear-gradient-19);}.cls-20{fill:url(#linear-gradient-20);}.cls-21{fill:url(#linear-gradient-21);}.cls-22{fill:url(#linear-gradient-22);}.cls-23{fill:url(#linear-gradient-23);}.cls-24{fill:url(#linear-gradient-24);}</style><linearGradient id="linear-gradient" x1="247.15" y1="18.34" x2="427.1" y2="18.34" gradientUnits="userSpaceOnUse"><stop offset="0" stop-color="#fef275"/><stop offset="1" stop-color="#bda32b"/></linearGradient><linearGradient id="linear-gradient-2" x1="67.07" y1="18.34" x2="247.02" y2="18.34" xlink:href="#linear-gradient"/><linearGradient id="linear-gradient-3" x1="5.33" y1="22.57" x2="12.7" y2="22.57" xlink:href="#linear-gradient"/><linearGradient id="linear-gradient-4" x1="0" y1="16.28" x2="13.35" y2="16.28" xlink:href="#linear-gradient"/><linearGradient id="linear-gradient-5" x1="5.83" y1="10.14" x2="12.9" y2="10.14" xlink:href="#linear-gradient"/><linearGradient id="linear-gradient-6" x1="12.86" y1="12.18" x2="61.75" y2="12.18" xlink:href="#linear-gradient"/><linearGradient id="linear-gradient-7" x1="26.37" y1="21.83" x2="60.5" y2="21.83" xlink:href="#linear-gradient"/><linearGradient id="linear-gradient-8" x1="51.53" y1="23.62" x2="63.85" y2="23.62" xlink:href="#linear-gradient"/><linearGradient id="linear-gradient-9" x1="12.17" y1="22.63" x2="61.75" y2="22.63" xlink:href="#linear-gradient"/><linearGradient id="linear-gradient-10" x1="26.47" y1="13.14" x2="60.58" y2="13.14" xlink:href="#linear-gradient"/><linearGradient id="linear-gradient-11" x1="16.75" y1="16.84" x2="22.6" y2="16.84" xlink:href="#linear-gradient"/><linearGradient id="linear-gradient-12" x1="64.58" y1="18.64" x2="69.83" y2="18.64" xlink:href="#linear-gradient"/><linearGradient id="linear-gradient-13" x1="52.17" y1="12.99" x2="63.91" y2="12.99" xlink:href="#linear-gradient"/><linearGradient id="linear-gradient-14" x1="481.52" y1="22.57" x2="488.88" y2="22.57" xlink:href="#linear-gradient"/><linearGradient id="linear-gradient-15" x1="480.86" y1="16.28" x2="494.21" y2="16.28" xlink:href="#linear-gradient"/><linearGradient id="linear-gradient-16" x1="481.31" y1="10.14" x2="488.39" y2="10.14" xlink:href="#linear-gradient"/><linearGradient id="linear-gradient-17" x1="432.47" y1="12.18" x2="481.35" y2="12.18" xlink:href="#linear-gradient"/><linearGradient id="linear-gradient-18" x1="433.72" y1="21.83" x2="467.85" y2="21.83" xlink:href="#linear-gradient"/><linearGradient id="linear-gradient-19" x1="430.36" y1="23.62" x2="442.69" y2="23.62" xlink:href="#linear-gradient"/><linearGradient id="linear-gradient-20" x1="432.46" y1="22.63" x2="482.05" y2="22.63" xlink:href="#linear-gradient"/><linearGradient id="linear-gradient-21" x1="433.64" y1="13.14" x2="467.74" y2="13.14" xlink:href="#linear-gradient"/><linearGradient id="linear-gradient-22" x1="471.61" y1="16.84" x2="477.47" y2="16.84" xlink:href="#linear-gradient"/><linearGradient id="linear-gradient-23" x1="424.38" y1="18.64" x2="429.63" y2="18.64" xlink:href="#linear-gradient"/><linearGradient id="linear-gradient-24" x1="430.3" y1="12.99" x2="442.04" y2="12.99" xlink:href="#linear-gradient"/></defs><g id="Layer_2" data-name="Layer 2"><g id="object"><rect class="cls-1" x="247.15" y="17.03" width="179.94" height="2.62"/><rect class="cls-2" x="67.07" y="17.03" width="179.94" height="2.62"/><path class="cls-3" d="M8.24,25.8a.72.72,0,0,1-.51.38,1.56,1.56,0,0,1-1-.17,2.56,2.56,0,0,1-1.06-1.08,3.16,3.16,0,0,1-.34-1.83A3.47,3.47,0,0,1,5.67,22,4.39,4.39,0,0,1,6.5,20.7a5.34,5.34,0,0,1,1.26-1,5.87,5.87,0,0,1,1.44-.58,6.51,6.51,0,0,1,1.39-.19l.6,0,.51.06.42.1a3.12,3.12,0,0,1,.32.1c.17.07.26.13.26.17s-.1.1-.26.16l-.68.24-.43.17-.47.21a6.64,6.64,0,0,0-.95.57,4.36,4.36,0,0,0-.8.74,3.83,3.83,0,0,0-.52.79,2.7,2.7,0,0,0-.22.69.36.36,0,0,0,0,.14.5.5,0,0,0,0,.12s0,.07,0,.1,0,.06,0,.09c0,.22,0,.39-.05.56a2.66,2.66,0,0,0,0,.57A2.59,2.59,0,0,1,8.24,25.8Z"/><path class="cls-4" d="M5,19.23A24.22,24.22,0,0,1,11.85,18s.05,0,.05,0l1.32-1.08a.38.38,0,0,0,0-.56L12,15.11a0,0,0,0,0-.05,0,24.65,24.65,0,0,1-6.73-1.74S1,15.5.07,16a.12.12,0,0,0,0,.21C.91,16.76,5,19.24,5,19.23Z"/><path class="cls-5" d="M8.9,6.85a.7.7,0,0,0-.48-.41,1.48,1.48,0,0,0-1,.09,2.67,2.67,0,0,0-1.14,1,3.15,3.15,0,0,0-.46,1.8,3.53,3.53,0,0,0,.24,1.17,4.38,4.38,0,0,0,.74,1.3A5.31,5.31,0,0,0,8,12.9a5.9,5.9,0,0,0,1.41.68,6,6,0,0,0,1.36.28l.6,0c.19,0,.37,0,.52,0l.43-.06.32-.08c.17-.06.27-.11.27-.16s-.09-.1-.25-.17L12,13.1c-.14,0-.28-.13-.43-.19l-.45-.25a6.74,6.74,0,0,1-.91-.63,5,5,0,0,1-.74-.8A3.29,3.29,0,0,1,9,10.4a2.41,2.41,0,0,1-.18-.7.66.66,0,0,1,0-.14.49.49,0,0,1,0-.12.41.41,0,0,0,0-.11.25.25,0,0,0,0-.08c0-.22,0-.39,0-.57a3.7,3.7,0,0,1,0-.56A2.52,2.52,0,0,0,8.9,6.85Z"/><path class="cls-6" d="M13,7a.59.59,0,0,1-.1-.57,4,4,0,0,1,.42-1,7.61,7.61,0,0,1,.41-.67c.16-.24.35-.49.56-.75a11.76,11.76,0,0,1,1.66-1.65A10.92,10.92,0,0,1,18.47.77,9.41,9.41,0,0,1,22,0a10.15,10.15,0,0,1,4,.77,14.71,14.71,0,0,1,3.5,2,26.35,26.35,0,0,1,3.58,3.43c1.27,1.44,2.58,3.14,3.92,4.95s2.7,3.74,4.17,5.55c.37.45.74.89,1.12,1.31.2.21.39.42.59.62a4,4,0,0,0,.29.29l.28.27A11.4,11.4,0,0,0,46.12,21a13.46,13.46,0,0,0,3,1,14,14,0,0,0,3.06.32,13.18,13.18,0,0,0,5.24-1,10.82,10.82,0,0,0,1.87-1,12,12,0,0,0,1.31-1l.78-.72c.18-.17.29-.25.32-.23s0,.14-.14.36a6.84,6.84,0,0,1-.59.93A9.22,9.22,0,0,1,59.84,21,10.15,10.15,0,0,1,58,22.34a14.15,14.15,0,0,1-5.66,1.91,16,16,0,0,1-3.53,0,15.46,15.46,0,0,1-3.7-.81,14.22,14.22,0,0,1-3.56-1.85l-.41-.32c-.14-.11-.27-.21-.39-.32s-.5-.42-.74-.64c-.47-.43-.93-.88-1.37-1.33-1.76-1.8-3.31-3.64-4.77-5.32s-2.8-3.21-4-4.45a29.47,29.47,0,0,0-3.13-2.82,13.54,13.54,0,0,0-2.47-1.55,7.18,7.18,0,0,0-2.33-.67,6.86,6.86,0,0,0-2.22.14,10.91,10.91,0,0,0-2,.71c-.64.28-1.22.59-1.74.87l-.73.4-.64.34C13.76,7.06,13.22,7.23,13,7Z"/><path class="cls-7" d="M26.82,17.26c.42-.06.81,1.21,1.74,2.81a6.64,6.64,0,0,0,.38.6c.13.2.3.39.45.59a7.38,7.38,0,0,0,1.16,1.06,6.82,6.82,0,0,0,3.36,1.16,12.62,12.62,0,0,0,2.64-.05,16.9,16.9,0,0,0,3.59-.89,41.54,41.54,0,0,0,4-1.88,31.24,31.24,0,0,1,4.49-2,12.7,12.7,0,0,1,4.65-.63,19.89,19.89,0,0,1,3.76.68l1.4.33,1.07.19a2.81,2.81,0,0,1,1,.16,3.4,3.4,0,0,1-1,.16c-.31,0-.69,0-1.12,0s-.93-.05-1.47-.11a22.82,22.82,0,0,0-3.63-.2,11.89,11.89,0,0,0-4.06,1,31,31,0,0,0-4,2.24,36.65,36.65,0,0,1-4.14,2.34A17.37,17.37,0,0,1,37,26.19a12.89,12.89,0,0,1-3.35.17A9.37,9.37,0,0,1,31,25.73a7.37,7.37,0,0,1-2.17-1.35,7.58,7.58,0,0,1-1.45-1.76,8.26,8.26,0,0,1-.44-.9,5.26,5.26,0,0,1-.31-.86,7.26,7.26,0,0,1-.28-2.63C26.47,17.61,26.62,17.28,26.82,17.26Z"/><path class="cls-8" d="M51.53,27.33c0-.13.11-.27.32-.4l.39-.18a3.46,3.46,0,0,1,.5-.2c.74-.27,1.74-.56,2.81-.93a18.46,18.46,0,0,0,2.36-1,15.7,15.7,0,0,0,2.86-2c.22-.19.43-.39.64-.59s.19-.19.28-.28l.26-.3c.33-.4.62-.81.89-1.15a6.35,6.35,0,0,1,.68-.76c.19-.16.31-.24.33-.22s0,.15-.16.35-.26.51-.43.89-.37.84-.64,1.34c-.07.13-.13.25-.21.38l-.26.39c-.18.24-.36.5-.57.74a13.94,13.94,0,0,1-2.79,2.64,11.44,11.44,0,0,1-2.6,1.37,8.19,8.19,0,0,1-3.29.47l-.57-.08a2.72,2.72,0,0,1-.43-.14C51.66,27.58,51.53,27.46,51.53,27.33Z"/><path class="cls-9" d="M12.31,26.18c.25-.2.78,0,1.54.46l.61.39.71.45c.5.32,1,.67,1.67,1a11.14,11.14,0,0,0,2,.85,7,7,0,0,0,2.2.3,7.38,7.38,0,0,0,2.38-.51A13.82,13.82,0,0,0,26,27.73a30.22,30.22,0,0,0,3.32-2.59C30.6,24,32,22.56,33.61,21s3.24-3.31,5.12-5c.47-.42,1-.83,1.46-1.23.26-.2.51-.4.78-.59l.41-.29.43-.29A14.24,14.24,0,0,1,45.5,12a16.17,16.17,0,0,1,7.28-.28A14.16,14.16,0,0,1,58.31,14a10.32,10.32,0,0,1,1.74,1.53,9.63,9.63,0,0,1,1.07,1.37,7,7,0,0,1,.52,1c.1.23.13.36.1.38s-.13-.07-.29-.26l-.72-.78a12.25,12.25,0,0,0-1.24-1.09A10.62,10.62,0,0,0,57.7,15a13.26,13.26,0,0,0-5.17-1.4,14.65,14.65,0,0,0-3.09.11,13.65,13.65,0,0,0-3.1.82,11.7,11.7,0,0,0-2.79,1.56l-.31.26-.31.26-.62.58c-.41.4-.82.81-1.22,1.24C39.5,20.14,38,22,36.55,23.68S33.68,27,32.31,28.35a26.5,26.5,0,0,1-3.81,3.18,15.18,15.18,0,0,1-3.63,1.8,10.46,10.46,0,0,1-4,.48,9.42,9.42,0,0,1-3.5-1,11.41,11.41,0,0,1-4-3.5,8.62,8.62,0,0,1-.51-.79,5.2,5.2,0,0,1-.36-.7,3.57,3.57,0,0,1-.34-1.07A.59.59,0,0,1,12.31,26.18Z"/><path class="cls-10" d="M26.83,16.93c-.2,0-.32-.38-.36-1a7.31,7.31,0,0,1,.46-2.6,6.73,6.73,0,0,1,.37-.84,7.26,7.26,0,0,1,.51-.87A7.35,7.35,0,0,1,29.38,10a7.12,7.12,0,0,1,2.25-1.19,8.89,8.89,0,0,1,2.62-.45,12.31,12.31,0,0,1,3.33.4,17.26,17.26,0,0,1,4,1.59,37.29,37.29,0,0,1,4,2.62,31.72,31.72,0,0,0,3.86,2.51,11.83,11.83,0,0,0,4,1.29A23.58,23.58,0,0,0,57,16.8c.54,0,1,0,1.47,0s.82.06,1.13.09a2.67,2.67,0,0,1,.94.24,3.53,3.53,0,0,1-.95.08l-1.09.11-1.42.22a19.82,19.82,0,0,1-3.8.42A12.66,12.66,0,0,1,48.73,17a30.73,30.73,0,0,1-4.34-2.26,38,38,0,0,0-3.9-2.15A16.81,16.81,0,0,0,37,11.45a11.87,11.87,0,0,0-2.63-.23,6.78,6.78,0,0,0-3.44.93,6.51,6.51,0,0,0-1.22,1,6.33,6.33,0,0,0-.49.56,7,7,0,0,0-.43.56C27.72,15.78,27.25,17,26.83,16.93Z"/><path class="cls-11" d="M19.57,19.76a2.93,2.93,0,1,0-2.82-3A2.93,2.93,0,0,0,19.57,19.76Z"/><path class="cls-12" d="M67.12,21.27a2.63,2.63,0,1,0-2.54-2.72A2.62,2.62,0,0,0,67.12,21.27Z"/><path class="cls-13" d="M52.17,8.81c0-.14.16-.25.4-.33a2.21,2.21,0,0,1,.44-.1,3.37,3.37,0,0,1,.58,0A8.14,8.14,0,0,1,56.84,9a11.77,11.77,0,0,1,2.49,1.55,13.76,13.76,0,0,1,2.61,2.82c.19.26.35.53.52.78l.23.4.19.4c.23.52.39,1,.54,1.38s.27.7.36.92.15.35.13.37-.13-.07-.3-.25a7,7,0,0,1-.63-.81c-.24-.35-.5-.78-.81-1.21l-.23-.31-.26-.31-.61-.63A15.13,15.13,0,0,0,58.35,12a17.9,17.9,0,0,0-2.28-1.15c-1-.45-2-.81-2.74-1.13a3.75,3.75,0,0,1-.49-.23,1.81,1.81,0,0,1-.37-.22C52.27,9.08,52.16,8.94,52.17,8.81Z"/><path class="cls-14" d="M486,25.8a.72.72,0,0,0,.51.38,1.56,1.56,0,0,0,1-.17,2.58,2.58,0,0,0,1.07-1.08,3.24,3.24,0,0,0,.34-1.83,4,4,0,0,0-.32-1.15,4.61,4.61,0,0,0-.83-1.25,5.55,5.55,0,0,0-1.26-1,6.1,6.1,0,0,0-1.45-.58,6.51,6.51,0,0,0-1.38-.19l-.6,0-.52.06-.42.1-.31.1c-.17.07-.27.13-.26.17s.09.1.26.16l.67.24.44.17.47.21a7.24,7.24,0,0,1,.95.57,4.3,4.3,0,0,1,.79.74,3.46,3.46,0,0,1,.52.79,3.26,3.26,0,0,1,.23.69c0,.05,0,.1,0,.14a.49.49,0,0,1,0,.12s0,.07,0,.1v.09c0,.22,0,.39.06.56a3.61,3.61,0,0,1,0,.57A2.59,2.59,0,0,0,486,25.8Z"/><path class="cls-15" d="M489.19,19.23A24.17,24.17,0,0,0,482.36,18s-.05,0-.05,0L481,16.84a.36.36,0,0,1,0-.56l1.23-1.17a0,0,0,0,1,.05,0A24.56,24.56,0,0,0,489,13.33s4.27,2.17,5.15,2.67a.12.12,0,0,1,0,.21C493.3,16.76,489.22,19.24,489.19,19.23Z"/><path class="cls-16" d="M485.31,6.85a.72.72,0,0,1,.48-.41,1.48,1.48,0,0,1,1,.09,2.62,2.62,0,0,1,1.14,1,3.23,3.23,0,0,1,.47,1.8,4.13,4.13,0,0,1-.24,1.17,4.61,4.61,0,0,1-.74,1.3,5.36,5.36,0,0,1-1.19,1.09,6,6,0,0,1-1.4.68,6.18,6.18,0,0,1-1.37.28l-.6,0c-.19,0-.36,0-.52,0l-.43-.06-.32-.08c-.17-.06-.27-.11-.27-.16s.09-.1.25-.17l.66-.29.42-.19.45-.25A6.16,6.16,0,0,0,484,12a4.59,4.59,0,0,0,.74-.8,3.7,3.7,0,0,0,.47-.83,2.71,2.71,0,0,0,.17-.7s0-.09,0-.14a.48.48,0,0,0,0-.12s0-.07,0-.11V9.25c0-.22,0-.39,0-.57a3.7,3.7,0,0,0,0-.56A2.64,2.64,0,0,1,485.31,6.85Z"/><path class="cls-17" d="M481.23,7a.59.59,0,0,0,.1-.57,3.59,3.59,0,0,0-.41-1,6,6,0,0,0-.42-.67,6.61,6.61,0,0,0-.56-.75,11.64,11.64,0,0,0-1.65-1.65A11,11,0,0,0,475.74.77,9.4,9.4,0,0,0,472.18,0a10.2,10.2,0,0,0-4,.77,14.71,14.71,0,0,0-3.5,2,26.94,26.94,0,0,0-3.58,3.43c-1.27,1.44-2.58,3.14-3.91,4.95s-2.7,3.74-4.17,5.55c-.37.45-.75.89-1.13,1.31l-.58.62c-.1.11-.2.2-.29.29l-.29.27A11.2,11.2,0,0,1,448.09,21a13.38,13.38,0,0,1-3,1,14.15,14.15,0,0,1-3.06.32,13.23,13.23,0,0,1-5.25-1,11.21,11.21,0,0,1-1.87-1,14.28,14.28,0,0,1-1.31-1c-.33-.31-.6-.55-.77-.72s-.3-.25-.33-.23,0,.14.14.36a6.84,6.84,0,0,0,.59.93,9.89,9.89,0,0,0,1.17,1.3,10.51,10.51,0,0,0,1.84,1.39,14.21,14.21,0,0,0,5.66,1.91,16,16,0,0,0,3.53,0,15.46,15.46,0,0,0,3.7-.81,14.11,14.11,0,0,0,3.57-1.85l.41-.32c.13-.11.27-.21.39-.32l.73-.64c.48-.43.93-.88,1.37-1.33,1.77-1.8,3.32-3.64,4.77-5.32s2.8-3.21,4-4.45a31.58,31.58,0,0,1,3.13-2.82A13.89,13.89,0,0,1,470,4.87a7.23,7.23,0,0,1,2.34-.67,6.82,6.82,0,0,1,2.21.14,11.26,11.26,0,0,1,2.05.71c.63.28,1.21.59,1.73.87l.74.4.64.34C480.46,7.06,481,7.23,481.23,7Z"/><path class="cls-18" d="M467.4,17.26c-.43-.06-.82,1.21-1.74,2.81a6.79,6.79,0,0,1-.39.6c-.13.2-.29.39-.45.59a6.27,6.27,0,0,1-4.51,2.22,12.61,12.61,0,0,1-2.64-.05,16.9,16.9,0,0,1-3.59-.89A40.58,40.58,0,0,1,450,20.66a31.61,31.61,0,0,0-4.48-2,12.76,12.76,0,0,0-4.65-.63,19.59,19.59,0,0,0-3.76.68l-1.4.33-1.08.19a2.64,2.64,0,0,0-.94.16,3.27,3.27,0,0,0,.95.16c.31,0,.69,0,1.13,0s.93-.05,1.46-.11a22.89,22.89,0,0,1,3.63-.2,11.84,11.84,0,0,1,4.06,1,31.08,31.08,0,0,1,4,2.24,36.52,36.52,0,0,0,4.13,2.34,17.37,17.37,0,0,0,4.13,1.31,12.91,12.91,0,0,0,3.35.17,9.53,9.53,0,0,0,2.59-.63,7.45,7.45,0,0,0,2.16-1.35,7.34,7.34,0,0,0,1.45-1.76,8.39,8.39,0,0,0,.45-.9,6.3,6.3,0,0,0,.3-.86,7,7,0,0,0,.28-2.63C467.74,17.61,467.59,17.28,467.4,17.26Z"/><path class="cls-19" d="M442.69,27.33c0-.13-.11-.27-.33-.4a2.74,2.74,0,0,0-.38-.18,4.18,4.18,0,0,0-.51-.2c-.74-.27-1.74-.56-2.81-.93a19.08,19.08,0,0,1-2.35-1,15.36,15.36,0,0,1-2.86-2c-.23-.19-.44-.39-.65-.59l-.28-.28-.26-.3c-.33-.4-.62-.81-.88-1.15a7.25,7.25,0,0,0-.69-.76c-.19-.16-.3-.24-.33-.22s0,.15.16.35.26.51.43.89.37.84.64,1.34l.22.38.25.39c.19.24.37.5.57.74a14.21,14.21,0,0,0,2.79,2.64,11.44,11.44,0,0,0,2.6,1.37,8.21,8.21,0,0,0,3.29.47l.57-.08a2.87,2.87,0,0,0,.44-.14C442.55,27.58,442.68,27.46,442.69,27.33Z"/><path class="cls-20" d="M481.9,26.18c-.25-.2-.77,0-1.54.46l-.61.39-.7.45c-.5.32-1.06.67-1.68,1a11.14,11.14,0,0,1-2,.85,7,7,0,0,1-2.2.3,7.38,7.38,0,0,1-2.37-.51,13.51,13.51,0,0,1-2.57-1.38,28.43,28.43,0,0,1-3.32-2.59c-1.3-1.15-2.75-2.58-4.31-4.16s-3.25-3.31-5.13-5c-.47-.42-1-.83-1.46-1.23l-.77-.59c-.13-.1-.27-.19-.42-.29l-.43-.29a14,14,0,0,0-3.69-1.6,16.16,16.16,0,0,0-7.28-.28,14.11,14.11,0,0,0-5.52,2.3,10,10,0,0,0-1.75,1.53,9.63,9.63,0,0,0-1.07,1.37,7,7,0,0,0-.52,1c-.09.23-.13.36-.1.38s.13-.07.3-.26.4-.45.72-.78a11,11,0,0,1,1.23-1.09,10.74,10.74,0,0,1,1.8-1.13,13.26,13.26,0,0,1,5.17-1.4,14.58,14.58,0,0,1,3.08.11,13.52,13.52,0,0,1,3.1.82,11.77,11.77,0,0,1,2.8,1.56l.3.26.31.26c.21.19.42.38.62.58.42.4.82.81,1.22,1.24,1.59,1.7,3.08,3.53,4.54,5.24s2.88,3.33,4.25,4.67a26,26,0,0,0,3.81,3.18,15.18,15.18,0,0,0,3.63,1.8,10.38,10.38,0,0,0,4,.48,9.37,9.37,0,0,0,3.5-1,10.77,10.77,0,0,0,2.43-1.74,11.18,11.18,0,0,0,1.54-1.76c.19-.28.36-.54.5-.79a6.91,6.91,0,0,0,.37-.7,3.57,3.57,0,0,0,.34-1.07C482.07,26.47,482,26.28,481.9,26.18Z"/><path class="cls-21" d="M467.38,16.93c.2,0,.32-.38.36-1a7.31,7.31,0,0,0-.46-2.6,6.63,6.63,0,0,0-.36-.84,8.9,8.9,0,0,0-.51-.87A7.58,7.58,0,0,0,464.84,10a7.28,7.28,0,0,0-2.26-1.19A8.84,8.84,0,0,0,460,8.33a12.31,12.31,0,0,0-3.33.4,17.26,17.26,0,0,0-4,1.59,36.17,36.17,0,0,0-4,2.62,32.51,32.51,0,0,1-3.86,2.51,11.88,11.88,0,0,1-4,1.29,23.55,23.55,0,0,1-3.63.06c-.54,0-1,0-1.47,0s-.82.06-1.12.09c-.62.11-.95.19-.94.24a3.38,3.38,0,0,0,.95.08l1.09.11,1.42.22a19.71,19.71,0,0,0,3.79.42,12.61,12.61,0,0,0,4.59-.95,30.73,30.73,0,0,0,4.34-2.26,39.2,39.2,0,0,1,3.91-2.15,16.44,16.44,0,0,1,3.52-1.14,11.78,11.78,0,0,1,2.63-.23,6.77,6.77,0,0,1,3.43.93,6.58,6.58,0,0,1,1.23,1c.17.19.34.36.49.56a6.81,6.81,0,0,1,.42.56C466.49,15.78,467,17,467.38,16.93Z"/><path class="cls-22" d="M474.64,19.76a2.93,2.93,0,1,1,2.82-3A2.92,2.92,0,0,1,474.64,19.76Z"/><path class="cls-23" d="M427.1,21.27a2.63,2.63,0,1,1,2.53-2.72A2.63,2.63,0,0,1,427.1,21.27Z"/><path class="cls-24" d="M442,8.81c0-.14-.15-.25-.39-.33a2.39,2.39,0,0,0-.44-.1,3.45,3.45,0,0,0-.58,0,8.11,8.11,0,0,0-3.25.69,11.79,11.79,0,0,0-2.5,1.55,14,14,0,0,0-2.61,2.82c-.18.26-.35.53-.51.78l-.23.4c-.08.14-.13.27-.19.4-.23.52-.4,1-.54,1.38s-.28.7-.37.92-.15.35-.12.37.12-.07.3-.25a7,7,0,0,0,.63-.81c.23-.35.5-.78.8-1.21.08-.1.15-.21.24-.31a3.88,3.88,0,0,1,.26-.31c.2-.2.39-.42.6-.63A15.48,15.48,0,0,1,435.86,12a19.33,19.33,0,0,1,2.28-1.15c1.05-.45,2-.81,2.75-1.13a3.59,3.59,0,0,0,.48-.23,2.24,2.24,0,0,0,.38-.22C442,9.08,442.06,8.94,442,8.81Z"/></g></g></svg>