<svg xmlns="http://www.w3.org/2000/svg" xmlns:xlink="http://www.w3.org/1999/xlink" viewBox="0 0 359.97 64.55"><defs><style>.cls-1{fill:url(#linear-gradient);}</style><linearGradient id="linear-gradient" y1="32.27" x2="359.97" y2="32.27" gradientUnits="userSpaceOnUse"><stop offset="0" stop-color="#fef275"/><stop offset="1" stop-color="#bd812b"/></linearGradient></defs><g id="Layer_2" data-name="Layer 2"><g id="object"><path class="cls-1" d="M360,13.74l0-.24a5.1,5.1,0,0,0-.2-2.14,5.62,5.62,0,0,0-1.07-1.94,5.81,5.81,0,0,0-.81-.77l-.07-.07a4.33,4.33,0,0,0-2.28-1.27,3.57,3.57,0,0,0-1.36,0,5.79,5.79,0,0,0-2.33-.39,3.39,3.39,0,0,0-.45,0c-.15,0-.31,0-.46.06-.31.06-.65.13-.92.2-.58.15-1.18.31-1.77.45a5.2,5.2,0,0,1-2.2.19,3.08,3.08,0,0,1-1.51-1,11.68,11.68,0,0,1-.93-1.16l-.34-.46v.15c0,.09,0,.24.05.42a6.45,6.45,0,0,0,.4,1.56,4.19,4.19,0,0,0,.58,1,10.63,10.63,0,0,1,.69,1.92,9.36,9.36,0,0,0,.45,1.79,4.07,4.07,0,0,0,.75,1.3,3.63,3.63,0,0,0,2.21,1.32,4.49,4.49,0,0,0,2.88-.74,6.26,6.26,0,0,0,1.92-2.07c.36-.56.61-1.08.85-1.52a5.16,5.16,0,0,1,.7-1.05.79.79,0,0,1,.76-.34,5,5,0,0,1,1.47.67,4.45,4.45,0,0,1,1.41,2.13,6,6,0,0,1-.21,3.95,6.35,6.35,0,0,1-1,1.79l-.26.5.49-.3a6.77,6.77,0,0,0,1.19-1.07,4.87,4.87,0,0,0,.6-.81v.06a8.33,8.33,0,0,1-.92,2.17,9,9,0,0,1-1.64,1.95,15.3,15.3,0,0,1-4.94,2.81c-.14.06-.3.1-.45.15l.35-.33.31-.29,1.78-.92,2.59-1.28-2.74.95-3.17,1.22L346.1,24l-1.13.43a56.68,56.68,0,0,1-14.39,0c-2.63-.34-5.34-.78-8.09-1.38s-5.57-1.3-8.42-2.12c-5.71-1.62-11.59-3.61-17.7-5.59-3.07-1-6.15-2-9.27-3s-6.28-2.06-9.48-3.08-6.44-2-9.7-3S261.33,4.43,258,3.64c-1.67-.42-3.37-.77-5.05-1.13-.85-.2-1.7-.33-2.55-.5s-1.7-.34-2.56-.46c-1.71-.26-3.42-.56-5.14-.74-.86-.1-1.72-.22-2.58-.3L237.51.3c-.44,0-.87-.08-1.3-.1l-1.3-.05L232.32,0l-2.55,0c-.85,0-1.7,0-2.55,0l-2.54,0-2.55.07-1.26,0L219.6.19c-.85.06-1.69.08-2.53.16a75.55,75.55,0,0,0-10,1.36L205.86,2c-.4.09-.81.17-1.21.29l-2.41.66-2.35.79c-.39.12-.78.28-1.16.43l-1.14.46c-.38.16-.76.29-1.13.47l-1.1.52c-.74.35-1.47.68-2.17,1.08s-1.41.75-2.1,1.15l-2,1.24c-.34.2-.66.43-1,.65l-1,.65-.95.66c-.32.22-.62.46-.92.68l-1.82,1.38c-.3.23-.6.49-.9.73s-.59.5-.87.76l-.85.78-.81.81,0,0,0,0-.81-.81-.85-.78c-.28-.26-.58-.51-.88-.76s-.59-.5-.89-.73l-1.82-1.38c-.3-.22-.6-.46-.92-.68l-.95-.66-1-.65c-.32-.22-.64-.45-1-.65l-2-1.24c-.68-.4-1.39-.76-2.09-1.15S165.34,6,164.61,5.6l-1.1-.52c-.37-.18-.76-.31-1.13-.47l-1.15-.46c-.38-.15-.76-.31-1.15-.43l-2.35-.79-2.41-.66c-.4-.12-.81-.2-1.22-.29l-1.22-.27a75.55,75.55,0,0,0-10-1.36c-.85-.08-1.69-.1-2.53-.16L139.1.13l-1.27,0L135.29,0l-2.54,0c-.85,0-1.7,0-2.55,0l-2.56,0-2.59.11L123.76.2c-.44,0-.87.06-1.3.1l-2.59.21c-.86.08-1.72.2-2.58.3-1.73.18-3.43.48-5.15.74-.85.12-1.7.31-2.55.46s-1.71.3-2.55.5c-1.69.36-3.38.71-5.05,1.13-3.35.79-6.66,1.73-9.94,2.66s-6.51,2-9.7,3S76,11.36,72.87,12.38s-6.2,2-9.27,3c-6.11,2-12,4-17.71,5.59-2.85.82-5.66,1.52-8.41,2.12s-5.46,1-8.09,1.38a56.76,56.76,0,0,1-14.4,0L13.86,24,9.69,22.36,6.52,21.14l-2.74-.95,2.59,1.28,1.78.92.3.29.36.33c-.15-.05-.31-.09-.46-.15a15.25,15.25,0,0,1-4.93-2.81A8.77,8.77,0,0,1,1.78,18.1a8.33,8.33,0,0,1-.92-2.17v-.06a5.48,5.48,0,0,0,.59.81,6.43,6.43,0,0,0,1.2,1.07l.49.3-.26-.5a6.1,6.1,0,0,1-1-1.79,6,6,0,0,1-.22-3.95A4.6,4.6,0,0,1,3,9.68,5.19,5.19,0,0,1,4.49,9a.79.79,0,0,1,.76.34A5.16,5.16,0,0,1,6,10.4c.23.44.49,1,.84,1.52A6.4,6.4,0,0,0,8.72,14a4.45,4.45,0,0,0,2.88.74,3.66,3.66,0,0,0,2.21-1.32,4.07,4.07,0,0,0,.75-1.3A9.36,9.36,0,0,0,15,10.32,9.92,9.92,0,0,1,15.7,8.4a4.19,4.19,0,0,0,.58-1,6.45,6.45,0,0,0,.4-1.56c0-.18,0-.33.05-.42V5.24l-.34.46a11.68,11.68,0,0,1-.93,1.16,3.12,3.12,0,0,1-1.51,1,5.2,5.2,0,0,1-2.2-.19L10,7.21c-.27-.07-.61-.14-.92-.2L8.61,7a3.46,3.46,0,0,0-.45,0,5.79,5.79,0,0,0-2.33.39,3.62,3.62,0,0,0-1.37,0A4.35,4.35,0,0,0,2.19,8.58l-.07.07a5.31,5.31,0,0,0-.81.77A5.46,5.46,0,0,0,.24,11.36,5.28,5.28,0,0,0,0,13.5a1.94,1.94,0,0,1,0,.24,6.36,6.36,0,0,0,0,1.15c0,.19,0,.39.06.59s.07.4.11.6a8.85,8.85,0,0,0,.92,2.4,9.77,9.77,0,0,0,1.72,2.18A16.15,16.15,0,0,0,8,23.8a28,28,0,0,0,2.89,1,48.61,48.61,0,0,0,5.47,3.68l1.09.62,1.16.62c.78.42,1.62.81,2.48,1.23a61.16,61.16,0,0,0,5.69,2.31A52.47,52.47,0,0,0,33.35,35c1.16.24,2.38.42,3.6.55l1.84.15c.62,0,1.25.05,1.87.08a77.63,77.63,0,0,0,18.39-2,122.22,122.22,0,0,0,12.43-3.48c1.49-.33,3.33-.71,5.42-1.29s4.46-1.25,7-2,5.31-1.82,8.22-2.85,5.89-2.33,9-3.67c2.25-1,4.45-2,6.56-3a63.35,63.35,0,0,0,5.94-3.27l5.16-3.17c1.61-1,3.13-1.86,4.53-2.63a37.24,37.24,0,0,1,7-2.94l1.16-.32.86-.17.71-.14-.73,0L131.4,5l-1.2.17a33.13,33.13,0,0,0-7.38,2.26c-1.49.65-3.11,1.41-4.81,2.28s-3.48,1.86-5.35,2.86-3.82,2-5.9,3-4.32,1.88-6.56,2.89l-8.84,3.81c-2.84,1.12-5.51,2.22-8,3.23S78.59,27.24,76.57,28s-3.8,1.33-5.24,1.83c-3,.64-7.33,1.53-12.59,2.35a104.1,104.1,0,0,1-18,1.31c-.6,0-1.2,0-1.8-.07l-1.76-.13c-1.17-.1-2.3-.25-3.41-.44a61.07,61.07,0,0,1-6.39-1.5c-2-.57-3.91-1.25-5.67-1.9-.87-.35-1.72-.66-2.52-1L18,27.93l-1.12-.52c-1.66-.77-3.1-1.53-4.32-2.23.6.14,1.2.26,1.82.37a47.82,47.82,0,0,0,10.13,3.6c.55.15,1.11.22,1.67.33s1.14.22,1.72.3c1.16.14,2.35.33,3.57.4a60.5,60.5,0,0,0,7.53.14,96,96,0,0,0,18.8-3c2.69-.67,5.12-1.35,7.27-2,1.07-.31,2.07-.59,3-.87l2.51-.81,2.58-.54,3-.79c2.18-.53,4.59-1.31,7.24-2.13,5.27-1.73,11.32-4.05,17.71-6.63,4.71-1.92,9.17-3.73,13.25-5.2a93.16,93.16,0,0,1,11.18-3c1.63-.28,3.09-.63,4.4-.76A16,16,0,0,0,133.33,4a5.35,5.35,0,0,0,.79-.34l1.09,0,2.48.1,1.23.06,1.23.09c.81.06,1.63.1,2.44.18a74,74,0,0,1,9.46,1.43l1.14.27c.38.09.76.17,1.13.29l2.22.64,2.16.76c.36.12.71.27,1.06.41l1,.44c.35.15.7.28,1,.45l1,.49c.67.33,1.34.64,2,1s1.3.71,1.93,1.1l1.86,1.17c.31.19.61.41.91.62l.89.63.88.62c.3.21.58.44.86.66l1.7,1.31.79.67c.26.22.52.44.76.67l.74.7c.24.23.47.48.7.72s.2.22.3.32c-.47.63-.92,1.26-1.34,1.9a36.4,36.4,0,0,0-2.16,3.76A32.42,32.42,0,0,0,172.06,29a27.84,27.84,0,0,0-.92,15.26,24.42,24.42,0,0,0,2.42,6.31A25.56,25.56,0,0,0,176.65,55l-.52.42-.93.66a4.22,4.22,0,0,1-.47.31l-.47.3c-.3.2-.63.36-.95.54l-.49.26-.5.23a22.85,22.85,0,0,1-4.19,1.46,28.44,28.44,0,0,1-4.38.75,35,35,0,0,1-8.75-.31,33.58,33.58,0,0,1-4.17-.91c-.68-.17-1.34-.4-2-.62-.33-.1-.65-.24-1-.35s-.65-.24-1-.38A25,25,0,0,1,135.12,48l-.44-.76-.22-.38-.19-.39c-.12-.25-.24-.51-.37-.77l-.3-.78-.16-.39-.12-.4-.24-.79c-.06-.27-.11-.54-.17-.8l-.08-.4c0-.13,0-.27-.06-.4s-.07-.53-.1-.79,0-.53,0-.79l0-.4v-.39l0-.78c0-.25.06-.51.08-.76s0-.26.05-.38l.07-.37c.05-.25.1-.5.14-.75s.13-.48.2-.72a3.57,3.57,0,0,1,.1-.35l.12-.35.25-.69.29-.66.15-.33c.05-.11.11-.21.16-.31s.23-.42.34-.63.25-.39.37-.59a12.54,12.54,0,0,1,.79-1.12,14.05,14.05,0,0,1,3.79-3.37,13.54,13.54,0,0,1,4.14-1.67,13.31,13.31,0,0,1,3.79-.3l.43,0,.42.06.8.09.44.09a6,6,0,1,0,3.06-.27l-.4-.23L151,24.4c-.46-.19-1-.36-1.51-.55l-.87-.22-.45-.11a4,4,0,0,0-.48-.08,14,14,0,0,0-4.37-.09,15.34,15.34,0,0,0-5,1.58,16.26,16.26,0,0,0-4.79,3.75,14.55,14.55,0,0,0-1,1.29c-.16.23-.33.45-.49.69l-.44.73-.22.37-.2.39-.4.79c-.11.27-.22.55-.34.82l-.17.42c-.05.14-.09.29-.14.43s-.19.58-.28.87-.15.6-.22.9l-.11.46c0,.15-.05.31-.08.47s-.09.62-.14.94-.05.63-.08,1l0,.48v.49c0,.33,0,.65,0,1l.09,1c0,.17,0,.34,0,.5l.08.5c.06.33.11.67.18,1s.17.66.26,1c0,.17.08.33.13.5l.17.49c.11.32.23.65.34,1l.42,1,.22.48.24.46.51.94a24,24,0,0,0,2.5,3.49c.46.57,1,1.07,1.5,1.61.26.26.54.5.81.75s.55.5.84.73l.87.7.9.67.46.33.47.3,1,.62,1,.57.49.28.51.26,1,.52,1.05.48c.35.16.72.3,1.08.45s.72.29,1.09.42c.73.25,1.47.52,2.23.74A39.49,39.49,0,0,0,154.28,64a39,39,0,0,0,9.87.46,33.23,33.23,0,0,0,5.07-.82,26.84,26.84,0,0,0,5-1.72l.61-.28.6-.32c.4-.21.81-.42,1.2-.67l.58-.36a5.65,5.65,0,0,0,.57-.38l1.09-.78c.37-.28.73-.57,1.09-.86l1.1.86,1.09.78a4.71,4.71,0,0,0,.57.38l.58.36c.39.25.79.46,1.19.67l.61.32.61.28a27,27,0,0,0,5,1.72,33.36,33.36,0,0,0,5.08.82,39,39,0,0,0,9.87-.46,39.33,39.33,0,0,0,4.65-1.09c.76-.22,1.5-.49,2.24-.74.37-.13.73-.28,1.09-.42s.72-.29,1.07-.45l1.06-.48,1-.52.51-.26.5-.28,1-.57,1-.62.48-.3.45-.33.91-.67.87-.7c.29-.23.57-.48.84-.73s.55-.49.81-.75c.51-.54,1-1,1.49-1.61A24,24,0,0,0,228.13,50l.5-.94.25-.46.21-.48.42-1c.12-.33.24-.66.35-1l.17-.49c.05-.17.09-.33.13-.5.09-.33.17-.66.26-1l.18-1,.08-.5c0-.16,0-.33,0-.5l.09-1c0-.33,0-.65,0-1v-.49l0-.48c0-.33,0-.65-.07-1l-.15-.94c0-.16,0-.32-.07-.47l-.11-.46c-.07-.3-.14-.6-.22-.9s-.19-.58-.28-.87-.09-.29-.14-.43l-.17-.42c-.12-.27-.23-.55-.35-.82l-.39-.79-.2-.39-.22-.37-.45-.73c-.15-.24-.32-.46-.48-.69-.32-.46-.68-.88-1-1.29a16.38,16.38,0,0,0-4.79-3.75,15.41,15.41,0,0,0-5-1.58,14,14,0,0,0-4.37.09,3.43,3.43,0,0,0-.48.08l-.46.11-.86.22c-.54.19-1,.36-1.51.55l-1.24.58-.39.23a6,6,0,1,0,3.06.27l.44-.09.8-.09.41-.06.43,0a13.58,13.58,0,0,1,7.93,2,13.94,13.94,0,0,1,3.8,3.37c.26.37.55.72.79,1.12l.37.59.33.63a3.07,3.07,0,0,1,.17.31l.15.33c.09.22.19.44.29.66s.16.46.25.69l.12.35c0,.11.06.23.1.35s.13.48.19.72l.15.75.07.37c0,.12,0,.25,0,.38l.09.76c0,.26,0,.52,0,.78l0,.39,0,.4c0,.26,0,.52,0,.79s-.07.53-.11.79,0,.27-.05.4l-.09.4c-.05.26-.1.53-.17.8s-.16.52-.23.79-.08.27-.13.4l-.15.39-.3.78-.38.77-.18.39-.22.38-.44.76a25,25,0,0,1-11.78,9.37c-.31.14-.64.25-1,.38s-.64.25-1,.35c-.66.22-1.32.45-2,.62a34,34,0,0,1-4.17.91,35,35,0,0,1-8.75.31,28.44,28.44,0,0,1-4.38-.75,22.59,22.59,0,0,1-4.19-1.46l-.5-.23-.49-.26c-.32-.18-.65-.34-1-.54l-.46-.3a4.22,4.22,0,0,1-.47-.31l-.93-.66-.52-.42a25,25,0,0,0,3.08-4.38,24.08,24.08,0,0,0,2.43-6.31A27.94,27.94,0,0,0,187.91,29a32.49,32.49,0,0,0-1.6-3.89,34.57,34.57,0,0,0-2.15-3.76c-.42-.64-.87-1.27-1.35-1.9.11-.1.2-.22.31-.32s.46-.49.7-.72l.74-.7c.24-.23.5-.45.76-.67s.51-.45.78-.67l1.7-1.31c.29-.22.57-.45.86-.66l.89-.62.89-.63c.3-.21.6-.43.91-.62l1.86-1.17c.63-.39,1.28-.73,1.92-1.1s1.32-.69,2-1l1-.49c.33-.17.69-.3,1-.45l1.05-.44c.35-.14.69-.29,1.06-.41l2.16-.76,2.22-.64c.37-.12.75-.2,1.13-.29l1.14-.27a73.77,73.77,0,0,1,9.46-1.43c.81-.08,1.62-.12,2.44-.18l1.23-.09,1.23-.06,2.48-.1,1.09,0a5.7,5.7,0,0,0,.78.34,16.18,16.18,0,0,0,3.38.66c1.3.13,2.77.48,4.39.76a92.19,92.19,0,0,1,11.18,3c4.09,1.47,8.55,3.28,13.25,5.2,6.39,2.58,12.45,4.9,17.72,6.63,2.65.82,5.06,1.6,7.24,2.13l3,.79,2.58.54,2.5.81c.92.28,1.92.56,3,.87,2.14.61,4.58,1.29,7.27,2a96,96,0,0,0,18.8,3,60.54,60.54,0,0,0,7.53-.14c1.22-.07,2.4-.26,3.57-.4.58-.08,1.15-.2,1.71-.3s1.13-.18,1.67-.33a47.42,47.42,0,0,0,10.13-3.6c.62-.11,1.23-.23,1.83-.37-1.22.7-2.66,1.46-4.33,2.23l-1.11.52-1.18.5c-.79.36-1.65.67-2.51,1-1.76.65-3.65,1.33-5.67,1.9a61.67,61.67,0,0,1-6.39,1.5c-1.12.19-2.24.34-3.41.44l-1.77.13c-.59,0-1.19,0-1.79.07a104.3,104.3,0,0,1-18-1.31c-5.25-.82-9.6-1.71-12.58-2.35-1.44-.5-3.23-1.07-5.24-1.83s-4.31-1.61-6.81-2.52-5.15-2.11-8-3.23l-8.83-3.81c-2.24-1-4.44-2-6.56-2.89s-4-1.94-5.91-3-3.65-2-5.35-2.86-3.31-1.63-4.81-2.28a32.83,32.83,0,0,0-7.38-2.26L228.57,5,227.68,5l-.72,0,.71.14.86.17,1.15.32a36.69,36.69,0,0,1,7,2.94c1.41.77,2.93,1.64,4.54,2.63l5.15,3.17a64.85,64.85,0,0,0,5.95,3.27c2.11,1,4.3,2,6.56,3,3.08,1.34,6.11,2.52,9,3.67s5.67,2,8.21,2.85l7.05,2c2.09.58,3.93,1,5.42,1.29a122.66,122.66,0,0,0,12.42,3.48,77.63,77.63,0,0,0,18.39,2c.63,0,1.25,0,1.87-.08l1.85-.15c1.22-.13,2.43-.31,3.6-.55a52.31,52.31,0,0,0,6.57-1.81,59,59,0,0,0,5.69-2.31c.87-.42,1.71-.81,2.49-1.23l1.16-.62,1.08-.62a46.82,46.82,0,0,0,5.47-3.68,29,29,0,0,0,2.9-1,16.15,16.15,0,0,0,5.14-3.14,9.77,9.77,0,0,0,1.72-2.18,9.19,9.19,0,0,0,.92-2.4c0-.2.07-.4.11-.6s0-.4.06-.59A7.43,7.43,0,0,0,360,13.74Zm-4.29-6.13A5.74,5.74,0,0,0,355,7.5l-.54,0-.08,0a3.31,3.31,0,0,1,1,.1l.31.09ZM4.51,7.54a3.34,3.34,0,0,1,1-.1l-.08,0-.53,0a5.74,5.74,0,0,0-.64.11l-.09,0C4.31,7.6,4.41,7.56,4.51,7.54ZM9.35,23.19l-.83-.59-.11-.07,1,.5.8.42ZM133.23,3.65a17.21,17.21,0,0,1-3.33.26c-1.34,0-2.84.21-4.51.36A71,71,0,0,0,113.8,6.51c-4.28,1.3-8.83,3-13.53,4.91C93.86,14,88,16.56,82.84,18.61c-2.57,1-4.9,1.94-7,2.66l-2.92,1.06-2.48.8-2.56.53c-.94.2-2,.38-3.06.59-2.19.42-4.66.91-7.37,1.4A138.68,138.68,0,0,1,38.91,28c-2.5.08-4.94.12-7.28,0-1.18,0-2.32-.18-3.45-.27-.56-.06-1.11-.15-1.66-.22s-1.1-.12-1.62-.24c-1.58-.27-3.08-.62-4.5-1A64.34,64.34,0,0,0,29.55,26c2.7-.28,5.47-.67,8.28-1.21s5.68-1.2,8.58-2c5.8-1.51,11.76-3.39,17.88-5.23,3.06-.91,6.2-1.84,9.34-2.81S80,12.85,83.15,11.9s6.44-1.9,9.69-2.8,6.54-1.73,9.85-2.44c1.65-.39,3.31-.7,5-1,.83-.18,1.67-.29,2.5-.44s1.66-.3,2.5-.41c1.67-.23,3.34-.49,5-.64.84-.08,1.67-.18,2.51-.24l2.5-.17c.42,0,.84-.06,1.25-.07l1.25,0,2.5-.06h2.52c.84,0,1.68,0,2.51,0l.59,0Zm50.45,26.8a28.31,28.31,0,0,1,.87,3.37c.08.56.19,1.11.25,1.67s.12,1.09.13,1.64a22.09,22.09,0,0,1-.56,6.12,19.73,19.73,0,0,1-2,5.13A20.43,20.43,0,0,1,180,51.79a21.67,21.67,0,0,1-2.39-3.41,19.72,19.72,0,0,1-2-5.13,21.72,21.72,0,0,1-.56-6.12c0-.55.08-1.09.13-1.64s.17-1.11.25-1.67a28.31,28.31,0,0,1,.87-3.37,29,29,0,0,1,1.35-3.38,29.66,29.66,0,0,1,1.84-3.28c.16-.26.33-.52.5-.77.18.25.35.51.51.77a29.66,29.66,0,0,1,1.84,3.28A30.9,30.9,0,0,1,183.68,30.45Zm151.39-3.22c-.52.12-1.08.16-1.62.24s-1.1.16-1.66.22c-1.13.09-2.28.24-3.45.27-2.35.16-4.79.12-7.28,0a138.46,138.46,0,0,1-18.54-2.35c-2.71-.49-5.18-1-7.37-1.4-1.1-.21-2.12-.39-3.06-.59l-2.56-.53-2.49-.8-2.92-1.06c-2.1-.72-4.43-1.68-7-2.66-5.11-2.05-11-4.59-17.43-7.19-4.7-1.92-9.26-3.61-13.53-4.91a71.17,71.17,0,0,0-11.59-2.24c-1.67-.15-3.18-.36-4.52-.36a17.17,17.17,0,0,1-3.32-.26l-.07,0,.59,0c.83,0,1.67,0,2.51,0h2.52l2.49.06,1.25,0c.42,0,.84,0,1.26.07l2.5.17c.84.06,1.67.16,2.51.24,1.67.15,3.34.41,5,.64.84.11,1.67.27,2.5.41s1.67.26,2.5.44c1.66.33,3.32.64,5,1,3.31.71,6.58,1.58,9.84,2.44s6.49,1.83,9.69,2.8,6.38,1.93,9.53,2.89,6.27,1.9,9.33,2.81c6.13,1.84,12.09,3.72,17.89,5.23,2.9.77,5.77,1.41,8.58,2s5.58.93,8.27,1.21a64.48,64.48,0,0,0,9.16.21C338.14,26.61,336.64,27,335.07,27.23Zm14.71-3.78.8-.42,1-.5-.11.07-.84.59C350.34,23.28,350.07,23.37,349.78,23.45Z"/></g></g></svg>