<svg xmlns="http://www.w3.org/2000/svg" xmlns:xlink="http://www.w3.org/1999/xlink" viewBox="0 0 536.85 169.93"><defs><style>.cls-1{fill:url(#linear-gradient);}.cls-2{fill:url(#linear-gradient-2);}.cls-3{fill:url(#linear-gradient-3);}.cls-4{fill:url(#linear-gradient-4);}.cls-5{fill:url(#linear-gradient-5);}.cls-6{fill:url(#linear-gradient-6);}.cls-7{fill:url(#linear-gradient-7);}.cls-8{fill:url(#linear-gradient-8);}.cls-9{fill:url(#linear-gradient-9);}.cls-10{fill:url(#linear-gradient-10);}.cls-11{fill:url(#linear-gradient-11);}.cls-12{fill:url(#linear-gradient-12);}.cls-13{fill:url(#linear-gradient-13);}.cls-14{fill:url(#linear-gradient-14);}.cls-15{fill:url(#linear-gradient-15);}.cls-16{fill:url(#linear-gradient-16);}.cls-17{fill:url(#linear-gradient-17);}.cls-18{fill:url(#linear-gradient-18);}.cls-19{fill:url(#linear-gradient-19);}.cls-20{fill:url(#linear-gradient-20);}.cls-21{fill:url(#linear-gradient-21);}.cls-22{fill:url(#linear-gradient-22);}.cls-23{fill:url(#linear-gradient-23);}.cls-24{fill:url(#linear-gradient-24);}.cls-25{fill:url(#linear-gradient-25);}.cls-26{fill:url(#linear-gradient-26);}.cls-27{fill:url(#linear-gradient-27);}.cls-28{fill:url(#linear-gradient-28);}.cls-29{fill:url(#linear-gradient-29);}.cls-30{fill:url(#linear-gradient-30);}.cls-31{fill:url(#linear-gradient-31);}.cls-32{fill:url(#linear-gradient-32);}.cls-33{fill:url(#linear-gradient-33);}.cls-34{fill:url(#linear-gradient-34);}.cls-35{fill:url(#linear-gradient-35);}.cls-36{fill:url(#linear-gradient-36);}.cls-37{fill:url(#linear-gradient-37);}.cls-38{fill:url(#linear-gradient-38);}.cls-39{fill:url(#linear-gradient-39);}.cls-40{fill:url(#linear-gradient-40);}.cls-41{fill:url(#linear-gradient-41);}.cls-42{fill:url(#linear-gradient-42);}.cls-43{fill:url(#linear-gradient-43);}.cls-44{fill:url(#linear-gradient-44);}.cls-45{fill:url(#linear-gradient-45);}.cls-46{fill:url(#linear-gradient-46);}.cls-47{fill:url(#linear-gradient-47);}.cls-48{fill:url(#linear-gradient-48);}.cls-49{fill:url(#linear-gradient-49);}.cls-50{fill:url(#linear-gradient-50);}.cls-51{fill:url(#linear-gradient-51);}.cls-52{fill:url(#linear-gradient-52);}.cls-53{fill:url(#linear-gradient-53);}.cls-54{fill:url(#linear-gradient-54);}.cls-55{fill:url(#linear-gradient-55);}.cls-56{fill:url(#linear-gradient-56);}.cls-57{fill:url(#linear-gradient-57);}.cls-58{fill:url(#linear-gradient-58);}.cls-59{fill:url(#linear-gradient-59);}.cls-60{fill:url(#linear-gradient-60);}.cls-61{fill:url(#linear-gradient-61);}</style><linearGradient id="linear-gradient" x1="287.25" y1="-25.96" x2="287.25" y2="343.58" gradientUnits="userSpaceOnUse"><stop offset="0" stop-color="#fef275"/><stop offset="1" stop-color="#bd812b"/></linearGradient><linearGradient id="linear-gradient-2" x1="249.75" y1="-25.96" x2="249.75" y2="343.58" xlink:href="#linear-gradient"/><linearGradient id="linear-gradient-3" x1="268.33" y1="-25.96" x2="268.33" y2="343.58" xlink:href="#linear-gradient"/><linearGradient id="linear-gradient-4" x1="297.27" y1="-25.96" x2="297.27" y2="343.58" xlink:href="#linear-gradient"/><linearGradient id="linear-gradient-5" x1="296.04" y1="-25.96" x2="296.04" y2="343.58" xlink:href="#linear-gradient"/><linearGradient id="linear-gradient-6" x1="288.58" y1="-25.96" x2="288.58" y2="343.58" xlink:href="#linear-gradient"/><linearGradient id="linear-gradient-7" x1="307.08" y1="-25.96" x2="307.08" y2="343.58" xlink:href="#linear-gradient"/><linearGradient id="linear-gradient-8" x1="372.51" y1="-25.96" x2="372.51" y2="343.58" xlink:href="#linear-gradient"/><linearGradient id="linear-gradient-9" x1="374.97" y1="-25.96" x2="374.97" y2="343.57" xlink:href="#linear-gradient"/><linearGradient id="linear-gradient-10" x1="366.94" y1="-25.96" x2="366.94" y2="343.58" xlink:href="#linear-gradient"/><linearGradient id="linear-gradient-11" x1="378.23" y1="-25.96" x2="378.23" y2="343.58" xlink:href="#linear-gradient"/><linearGradient id="linear-gradient-12" x1="239.7" y1="-25.96" x2="239.7" y2="343.58" xlink:href="#linear-gradient"/><linearGradient id="linear-gradient-13" x1="268.48" y1="-25.96" x2="268.48" y2="343.58" xlink:href="#linear-gradient"/><linearGradient id="linear-gradient-14" x1="240.93" y1="-25.96" x2="240.93" y2="343.58" xlink:href="#linear-gradient"/><linearGradient id="linear-gradient-15" x1="248.39" y1="-25.96" x2="248.39" y2="343.58" xlink:href="#linear-gradient"/><linearGradient id="linear-gradient-16" x1="229.89" y1="-25.96" x2="229.89" y2="343.58" xlink:href="#linear-gradient"/><linearGradient id="linear-gradient-17" x1="164.46" y1="-25.96" x2="164.46" y2="343.58" xlink:href="#linear-gradient"/><linearGradient id="linear-gradient-18" x1="162" y1="-25.96" x2="162" y2="343.57" xlink:href="#linear-gradient"/><linearGradient id="linear-gradient-19" x1="170.03" y1="-25.96" x2="170.03" y2="343.58" xlink:href="#linear-gradient"/><linearGradient id="linear-gradient-20" x1="158.74" y1="-25.96" x2="158.74" y2="343.58" xlink:href="#linear-gradient"/><linearGradient id="linear-gradient-21" x1="20.57" y1="-25.96" x2="20.57" y2="343.58" xlink:href="#linear-gradient"/><linearGradient id="linear-gradient-22" x1="19.13" y1="-25.96" x2="19.13" y2="343.57" xlink:href="#linear-gradient"/><linearGradient id="linear-gradient-23" x1="18.67" y1="-25.96" x2="18.67" y2="343.57" xlink:href="#linear-gradient"/><linearGradient id="linear-gradient-24" x1="18.88" y1="-25.96" x2="18.88" y2="343.58" xlink:href="#linear-gradient"/><linearGradient id="linear-gradient-25" x1="19.55" y1="-25.96" x2="19.55" y2="343.57" xlink:href="#linear-gradient"/><linearGradient id="linear-gradient-26" x1="23.12" y1="-25.96" x2="23.12" y2="343.58" xlink:href="#linear-gradient"/><linearGradient id="linear-gradient-27" x1="26.36" y1="-25.96" x2="26.36" y2="343.58" xlink:href="#linear-gradient"/><linearGradient id="linear-gradient-28" x1="29.87" y1="-25.96" x2="29.87" y2="343.57" xlink:href="#linear-gradient"/><linearGradient id="linear-gradient-29" x1="33.18" y1="-25.96" x2="33.18" y2="343.58" xlink:href="#linear-gradient"/><linearGradient id="linear-gradient-30" x1="40.24" y1="-25.96" x2="40.24" y2="343.58" xlink:href="#linear-gradient"/><linearGradient id="linear-gradient-31" x1="44.98" y1="-25.96" x2="44.98" y2="343.57" xlink:href="#linear-gradient"/><linearGradient id="linear-gradient-32" x1="48.61" y1="-25.96" x2="48.61" y2="343.58" xlink:href="#linear-gradient"/><linearGradient id="linear-gradient-33" x1="51.27" y1="-25.96" x2="51.27" y2="343.58" xlink:href="#linear-gradient"/><linearGradient id="linear-gradient-34" x1="53.12" y1="-25.96" x2="53.12" y2="343.58" xlink:href="#linear-gradient"/><linearGradient id="linear-gradient-35" x1="34.98" y1="-25.96" x2="34.98" y2="343.58" xlink:href="#linear-gradient"/><linearGradient id="linear-gradient-36" x1="30.21" y1="-25.96" x2="30.21" y2="343.58" xlink:href="#linear-gradient"/><linearGradient id="linear-gradient-37" x1="26.3" y1="-25.96" x2="26.3" y2="343.58" xlink:href="#linear-gradient"/><linearGradient id="linear-gradient-38" x1="23.39" y1="-25.96" x2="23.39" y2="343.57" xlink:href="#linear-gradient"/><linearGradient id="linear-gradient-39" x1="201.57" y1="-25.96" x2="201.57" y2="343.58" xlink:href="#linear-gradient"/><linearGradient id="linear-gradient-40" x1="192.97" y1="-25.96" x2="192.97" y2="343.58" xlink:href="#linear-gradient"/><linearGradient id="linear-gradient-41" x1="268.43" y1="-25.96" x2="268.43" y2="343.58" xlink:href="#linear-gradient"/><linearGradient id="linear-gradient-42" x1="516.28" y1="-25.96" x2="516.28" y2="343.58" xlink:href="#linear-gradient"/><linearGradient id="linear-gradient-43" x1="517.72" y1="-25.96" x2="517.72" y2="343.57" xlink:href="#linear-gradient"/><linearGradient id="linear-gradient-44" x1="518.18" y1="-25.96" x2="518.18" y2="343.57" xlink:href="#linear-gradient"/><linearGradient id="linear-gradient-45" x1="517.97" y1="-25.96" x2="517.97" y2="343.58" xlink:href="#linear-gradient"/><linearGradient id="linear-gradient-46" x1="517.3" y1="-25.96" x2="517.3" y2="343.57" xlink:href="#linear-gradient"/><linearGradient id="linear-gradient-47" x1="513.73" y1="-25.96" x2="513.73" y2="343.58" xlink:href="#linear-gradient"/><linearGradient id="linear-gradient-48" x1="510.49" y1="-25.96" x2="510.49" y2="343.58" xlink:href="#linear-gradient"/><linearGradient id="linear-gradient-49" x1="506.98" y1="-25.96" x2="506.98" y2="343.57" xlink:href="#linear-gradient"/><linearGradient id="linear-gradient-50" x1="503.67" y1="-25.96" x2="503.67" y2="343.58" xlink:href="#linear-gradient"/><linearGradient id="linear-gradient-51" x1="496.61" y1="-25.96" x2="496.61" y2="343.58" xlink:href="#linear-gradient"/><linearGradient id="linear-gradient-52" x1="491.87" y1="-25.96" x2="491.87" y2="343.57" xlink:href="#linear-gradient"/><linearGradient id="linear-gradient-53" x1="488.24" y1="-25.96" x2="488.24" y2="343.58" xlink:href="#linear-gradient"/><linearGradient id="linear-gradient-54" x1="485.58" y1="-25.96" x2="485.58" y2="343.58" xlink:href="#linear-gradient"/><linearGradient id="linear-gradient-55" x1="483.73" y1="-25.96" x2="483.73" y2="343.58" xlink:href="#linear-gradient"/><linearGradient id="linear-gradient-56" x1="501.87" y1="-25.96" x2="501.87" y2="343.58" xlink:href="#linear-gradient"/><linearGradient id="linear-gradient-57" x1="506.64" y1="-25.96" x2="506.64" y2="343.58" xlink:href="#linear-gradient"/><linearGradient id="linear-gradient-58" x1="510.55" y1="-25.96" x2="510.55" y2="343.58" xlink:href="#linear-gradient"/><linearGradient id="linear-gradient-59" x1="513.46" y1="-25.96" x2="513.46" y2="343.57" xlink:href="#linear-gradient"/><linearGradient id="linear-gradient-60" x1="335.28" y1="-25.96" x2="335.28" y2="343.58" xlink:href="#linear-gradient"/><linearGradient id="linear-gradient-61" x1="343.89" y1="-25.96" x2="343.89" y2="343.58" xlink:href="#linear-gradient"/></defs><g id="Layer_2" data-name="Layer 2"><g id="object"><path class="cls-1" d="M285.66,40.81a15.18,15.18,0,0,0-4,2.19,16.79,16.79,0,0,0-3.11,3.14,18.31,18.31,0,0,0-2,3.39c-.24.56-.44,1.09-.61,1.59s-.3,1-.4,1.42-.17.84-.22,1.2a5.44,5.44,0,0,0-.07.93c0,.51,0,.82.16.86s.36-.15.7-.51l1.35-1.49c.28-.3.6-.61.92-1s.69-.66,1.06-1A19.7,19.7,0,0,1,282,49.73a14,14,0,0,1,2.81-1.27,10.79,10.79,0,0,1,2.64-.48,7.73,7.73,0,0,1,2,.16,3.49,3.49,0,0,1,.38.1,1.44,1.44,0,0,1,.33.09l.29.08.23.08,1.52.47a8.93,8.93,0,0,1,1.5.61c1,.53,2.13,1.42,3.3,1.36a2,2,0,0,0,1.55-.91,4.21,4.21,0,0,0,.64-2.74,7.2,7.2,0,0,0-1.66-4,9.1,9.1,0,0,0-4.39-2.88,10.76,10.76,0,0,0-3.35-.42A12.7,12.7,0,0,0,285.66,40.81Z"/><path class="cls-2" d="M240,50.93c1.18.06,2.25-.83,3.31-1.36a8.85,8.85,0,0,1,1.49-.61l1.52-.47.23-.08.29-.08a1.59,1.59,0,0,1,.33-.09,3.69,3.69,0,0,1,.39-.1,7.69,7.69,0,0,1,2-.16,10.88,10.88,0,0,1,2.64.48,13.93,13.93,0,0,1,2.8,1.27,19,19,0,0,1,2.52,1.85c.37.34.73.67,1.07,1s.64.65.92,1L260.86,55c.35.36.59.56.7.51s.18-.35.17-.86a8.71,8.71,0,0,0-.07-.93c-.06-.36-.13-.76-.22-1.2s-.25-.91-.4-1.42-.38-1-.61-1.59a18.89,18.89,0,0,0-2-3.39A16.85,16.85,0,0,0,255.32,43a15.13,15.13,0,0,0-4-2.19,12.74,12.74,0,0,0-4.16-.8,10.83,10.83,0,0,0-3.36.42,9.08,9.08,0,0,0-4.38,2.88,7.15,7.15,0,0,0-1.67,4,4.33,4.33,0,0,0,.64,2.74A2,2,0,0,0,240,50.93Z"/><path class="cls-3" d="M244.79,33.61C266,39.5,263.4,55.45,263.4,55.45v.4a1.67,1.67,0,0,0,1.67,1.66h.47a.63.63,0,0,1,.63.62v3.06a.58.58,0,0,1-.06.26L262,70.14l0,0c2.24,3,5.49,11.59,6.17,13.41a.14.14,0,0,0,.25,0c.67-1.82,3.92-10.41,6.16-13.41l0,0-4.09-8.69a.58.58,0,0,1-.06-.26V58.13a.62.62,0,0,1,.62-.62h.15a2,2,0,0,0,2-2v0s-2.63-16,18.61-21.88c4.51-1.25-11.17-2-17.47,5.08C284.49,24.63,269.77,2.14,268.34,0V0c-1.43,2.11-16.15,24.6-6.06,38.66C256,31.62,240.28,32.36,244.79,33.61Z"/><path class="cls-4" d="M293.26,81.12a36,36,0,0,0-4.35-.46,48.44,48.44,0,0,0-7.35.22c-1,.11-2,.26-2.79.39s-1.52.29-2.08.43l-1.75.48,1.79-.2c.58,0,1.29-.08,2.1-.14s1.75-.06,2.78,0a70,70,0,0,1,7.18.39c1.34.15,2.72.35,4.16.65s2.94.59,4.46,1c6.09,1.41,11.58,3,15.62,4,2,.49,3.66.86,4.8,1.08l1.77.36-6.3-2.31A133.61,133.61,0,0,0,297.82,82C296.28,81.64,294.74,81.38,293.26,81.12Z"/><path class="cls-5" d="M297.51,75a11.56,11.56,0,0,1-1.23,1.16,17.76,17.76,0,0,1-2.17,1.45L292,78.8c-.57.33-.93.58-.91.67s.46.14,1.13.13a18.53,18.53,0,0,0,2.54-.19,11.9,11.9,0,0,0,3-.79,6.4,6.4,0,0,0,2.12-1.34A3.88,3.88,0,0,0,301,74.52a1.84,1.84,0,0,0-.26-1,.78.78,0,0,0-.56-.39,1.78,1.78,0,0,0-1.33.56C298.44,74.11,298,74.5,297.51,75Z"/><path class="cls-6" d="M288,78.24a10.39,10.39,0,0,0,2.2-1.29,5.52,5.52,0,0,0,1.41-1.55,3.27,3.27,0,0,0,.36-2.48c-.2-.64-.59-.94-1-.9a1.51,1.51,0,0,0-.95.75c-.26.39-.54.8-.81,1.3a8.94,8.94,0,0,1-.74,1.21,13.46,13.46,0,0,1-1.42,1.64c-1.07,1.08-2.13,2-2,2.17A7.57,7.57,0,0,0,288,78.24Z"/><path class="cls-7" d="M302.62,81.07a20.63,20.63,0,0,0,2.82,0,13.61,13.61,0,0,0,3.32-.63,7.07,7.07,0,0,0,2.45-1.32,4.25,4.25,0,0,0,1.56-2.94,1.94,1.94,0,0,0,0-.6,2.32,2.32,0,0,0-.17-.47.93.93,0,0,0-.58-.48,2,2,0,0,0-1.52.52c-.5.38-1,.77-1.6,1.27a11.16,11.16,0,0,1-1.45,1.18,18.11,18.11,0,0,1-2.5,1.43l-2.47,1.16c-.66.32-1.07.56-1.05.66S301.88,81,302.62,81.07Z"/><path class="cls-8" d="M359.6,100.07a13.3,13.3,0,0,0-2.93-.45c-.09.14.86.88,2.49,1.72s3.88,1.86,6.31,2.85a112.65,112.65,0,0,0,13,4.48,23.84,23.84,0,0,0,6.76.73c1.81-.12,3-.62,3.09-1.34s-.81-1.5-2.36-2.3a29.47,29.47,0,0,0-6.27-2.19c-2.51-.6-8.28-1.5-13.4-2.35C363.76,100.79,361.35,100.39,359.6,100.07Z"/><path class="cls-9" d="M373.24,90.31A1.73,1.73,0,1,0,375,88.58,1.73,1.73,0,0,0,373.24,90.31Z"/><circle class="cls-10" cx="366.94" cy="94.69" r="1.36"/><path class="cls-11" d="M378.23,82.85a1.12,1.12,0,1,0-1.12-1.12A1.12,1.12,0,0,0,378.23,82.85Z"/><path class="cls-12" d="M223.94,87.79c4-1,9.53-2.58,15.62-4,1.52-.38,3-.66,4.46-1s2.82-.5,4.16-.65a70,70,0,0,1,7.18-.39c1,0,2,0,2.78,0s1.52.09,2.1.14l1.78.2-1.74-.48c-.56-.14-1.26-.27-2.08-.43s-1.75-.28-2.79-.39a48.44,48.44,0,0,0-7.35-.22,36,36,0,0,0-4.35.46c-1.48.26-3,.52-4.56.91a133.61,133.61,0,0,0-15.48,4.89l-6.3,2.31,1.77-.36C220.28,88.65,221.92,88.28,223.94,87.79Z"/><path class="cls-13" d="M162.56,79.75A21.22,21.22,0,0,0,163.69,82a19.43,19.43,0,0,0,1.44,2.13c.27.34.53.69.83,1,.15.17.29.33.45.49l.46.48c.15.16.32.31.48.46l.5.46,1,.84.52.43.53.41.53.4.54.41,1.13.77c.38.26.78.49,1.18.73s.8.47,1.21.69l.62.33c.21.12.43.21.64.31l.65.3.65.29,1.34.52,1.36.46c.23.08.46.14.7.2l.7.19a43.43,43.43,0,0,0,5.72,1.09c.48.07,1,.11,1.45.17l.73.08.73.06,1.47.11,1.46.09,1.48.07,1.47.06,1.5,0h.75c.25,0,.5,0,.75,0l1.5-.05c.5,0,1-.06,1.5-.09,1-.05,2-.17,3-.27.5,0,1-.13,1.49-.19s1-.12,1.49-.21c1-.16,2-.31,3-.5,2-.36,3.89-.79,5.82-1.24s3.81-.93,5.69-1.43,3.73-1,5.56-1.49,3.64-1,5.44-1.44c3.59-1,7-1.93,10.39-2.69,1.67-.38,3.32-.7,4.93-1s3.18-.43,4.71-.55a32.62,32.62,0,0,1,8.52.49,18.63,18.63,0,0,1,3.57,1.07A8.94,8.94,0,0,1,268,88.26a1.51,1.51,0,0,1,.21.23,6.45,6.45,0,0,0-.46.74,5.6,5.6,0,0,0-.46,1.42c0,.11,0,.23,0,.35s0,.23,0,.34a5,5,0,0,0,0,.67,4.82,4.82,0,0,0,.29,1.19,4.62,4.62,0,0,0,.82,1.4l-.14.16a2.32,2.32,0,0,1-1.23.68,2.08,2.08,0,0,1-.88,0,2,2,0,0,0-.31-.06l.07,0a1.9,1.9,0,0,0,.22.09,2.19,2.19,0,0,0,.92.08,2.54,2.54,0,0,0,1.35-.66c.06,0,.1-.11.15-.16l.15.16a2.6,2.6,0,0,0,1.36.66,2.19,2.19,0,0,0,.92-.08,1.9,1.9,0,0,0,.22-.09l.07,0a2,2,0,0,0-.31.06,2.08,2.08,0,0,1-.88,0,2.32,2.32,0,0,1-1.23-.68l-.14-.16a4.62,4.62,0,0,0,.82-1.4,4.82,4.82,0,0,0,.29-1.19,5,5,0,0,0,0-.67c0-.11,0-.23,0-.34s0-.24-.05-.35a5.2,5.2,0,0,0-.45-1.42,5.39,5.39,0,0,0-.47-.74,2.39,2.39,0,0,1,.22-.23,8.94,8.94,0,0,1,2.76-1.78,18.63,18.63,0,0,1,3.57-1.07,32.62,32.62,0,0,1,8.52-.49c1.53.12,3.1.29,4.71.55s3.25.59,4.93,1c3.34.76,6.8,1.73,10.39,2.69,1.79.47,3.6.94,5.44,1.44s3.68,1,5.56,1.49,3.78,1,5.69,1.43,3.86.88,5.82,1.24c1,.19,2,.34,2.95.5.49.09,1,.14,1.49.21s1,.14,1.49.19c1,.1,2,.22,3,.27.5,0,1,.07,1.5.09l1.5.05c.25,0,.5,0,.75,0h.75l1.5,0,1.47-.06,1.47-.07,1.47-.09,1.47-.11.73-.06.73-.08c.48-.06,1-.1,1.45-.17a43.74,43.74,0,0,0,5.72-1.09l.7-.19c.23-.06.47-.12.69-.2l1.37-.46,1.34-.52.65-.29.65-.3c.21-.1.43-.19.63-.31l.62-.33c.42-.22.83-.44,1.22-.69s.8-.47,1.18-.73L366,89.5c.19-.13.37-.27.55-.41l.53-.4.53-.41c.18-.14.34-.28.51-.43l1-.84.49-.46.49-.46.46-.48c.16-.16.3-.32.45-.49.29-.32.56-.67.83-1A19.43,19.43,0,0,0,373.28,82a23.34,23.34,0,0,0,1.13-2.23,19.59,19.59,0,0,0,.8-2.3,16.1,16.1,0,0,0,.06-8.84,13.76,13.76,0,0,0-1.59-3.56,14.5,14.5,0,0,0-2.15-2.68,16.34,16.34,0,0,0-2.44-2l-.65-.42-.34-.2-.35-.19c-.23-.13-.47-.24-.71-.35l-.36-.16-.36-.15a15.89,15.89,0,0,0-2.95-.84,20,20,0,0,0-2.95-.32,22.59,22.59,0,0,0-5.68.57,23.27,23.27,0,0,0-2.66.77c-.43.15-.85.33-1.27.5-.21.08-.41.18-.61.27s-.41.19-.61.3l-.59.3-.58.34-.29.16-.27.18-.56.36-.53.38-.26.19-.26.21-.5.41-.48.43c-.16.14-.31.29-.46.45l-.45.45c-.27.33-.56.63-.81,1a13.23,13.23,0,0,0-1.34,2.09c-.09.19-.18.37-.26.56l-.13.27-.11.29-.21.56-.17.58-.09.29-.06.29c0,.19-.08.39-.11.58s-.05.39-.08.58l0,.29a2.81,2.81,0,0,0,0,.29l0,.57c0,.19,0,.38,0,.57v.28l0,.28c0,.19.05.37.07.55l.11.54.06.27.08.26.15.51c.06.17.13.33.19.5a2.44,2.44,0,0,0,.1.24l.11.24.22.46.25.45.13.21c0,.07.09.14.14.21l.28.41c.09.13.2.26.3.38a8.77,8.77,0,0,0,.63.72,9.35,9.35,0,0,0,2.88,2,8.59,8.59,0,0,0,2.94.76,8.16,8.16,0,0,0,2.53-.18l.27-.06.26-.08.49-.15c.31-.13.6-.24.86-.36l.69-.38.22-.15a3.47,3.47,0,1,0-1.77-.06l-.26.07-.45.08-.24,0-.25,0a7.85,7.85,0,0,1-2.2-.06,7.74,7.74,0,0,1-2.43-.84,8.18,8.18,0,0,1-2.3-1.83c-.16-.2-.34-.4-.49-.62l-.23-.33-.21-.35-.11-.18-.09-.18c-.06-.13-.13-.25-.19-.37s-.11-.26-.16-.4l-.09-.19-.06-.2c-.05-.14-.09-.28-.14-.41s-.07-.29-.1-.43l-.06-.21,0-.22c0-.14-.05-.29-.08-.44l0-.45,0-.22v-.69l0-.46c0-.08,0-.15,0-.23l0-.23c0-.16,0-.31.07-.47s.08-.31.11-.46l.06-.24.08-.23.15-.46.19-.46.1-.22.11-.23.23-.45a14.41,14.41,0,0,1,6.52-5.77c.17-.09.36-.17.54-.25l.55-.23c.37-.15.75-.3,1.14-.42a18.38,18.38,0,0,1,2.37-.65,20.14,20.14,0,0,1,5-.44,17,17,0,0,1,2.56.29,13.1,13.1,0,0,1,2.46.72l.3.12.28.13a5.07,5.07,0,0,1,.57.29l.28.15a2.09,2.09,0,0,1,.28.17l.56.35a14.28,14.28,0,0,1,2,1.67,12.46,12.46,0,0,1,1.78,2.2,11.68,11.68,0,0,1,1.31,2.9,13.12,13.12,0,0,1,.5,3.52c0,.31,0,.63,0,1s-.06.64-.1,1a14,14,0,0,1-.4,2,17.91,17.91,0,0,1-.67,2,18.5,18.5,0,0,1-1,1.95,17.42,17.42,0,0,1-1.24,1.88c-.24.3-.46.61-.72.9s-.25.29-.39.43l-.4.43c-.13.14-.28.27-.42.41l-.43.41-.94.81c-.16.13-.32.28-.48.4l-.49.39-.5.39a6,6,0,0,1-.5.38l-1,.74c-.35.24-.72.46-1.08.69s-.74.44-1.11.65l-.57.32-.59.28-.58.29q-.3.15-.6.27l-1.23.5-1.26.44c-.21.08-.43.14-.64.2l-.65.19a41.3,41.3,0,0,1-5.42,1.12c-.46.07-.93.12-1.4.18l-.71.09-.71.06-1.43.14-1.44.11c-.48,0-1,.07-1.45.09l-1.45.09-1.44,0-.72,0c-.25,0-.49,0-.73,0l-1.45,0c-.48,0-1,0-1.45-.07-1,0-1.94-.13-2.92-.21-.48,0-1-.11-1.45-.16s-1-.1-1.46-.18c-1-.14-1.93-.27-2.9-.44-1.93-.32-3.85-.71-5.76-1.12s-3.8-.85-5.67-1.31l-5.59-1.39c-1.84-.46-3.68-.9-5.47-1.33-3.59-.88-7.09-1.78-10.49-2.48-1.69-.35-3.37-.64-5-.87s-3.25-.37-4.81-.45a33.61,33.61,0,0,0-8.71.72A19.74,19.74,0,0,0,271.52,86a9.34,9.34,0,0,0-2.87,2l-.17.18-.16-.18a9.34,9.34,0,0,0-2.87-2,20,20,0,0,0-3.67-1.21,33.65,33.65,0,0,0-8.71-.72c-1.56.08-3.17.22-4.81.45s-3.32.52-5,.87c-3.4.7-6.9,1.6-10.49,2.48-1.79.43-3.63.87-5.47,1.33l-5.59,1.39c-1.88.46-3.77.89-5.68,1.31s-3.82.8-5.75,1.12c-1,.17-1.94.3-2.9.44-.49.08-1,.12-1.46.18s-1,.12-1.45.16c-1,.08-2,.18-2.92.21-.48,0-1,.06-1.45.07l-1.45,0c-.24,0-.49,0-.73,0l-.72,0-1.44,0-1.46-.09-1.44-.09-1.44-.11L190,93.56l-.71-.06-.71-.09c-.47-.06-.94-.11-1.4-.18a41.3,41.3,0,0,1-5.42-1.12l-.65-.19c-.21-.06-.43-.12-.64-.2l-1.26-.44-1.23-.5q-.3-.12-.6-.27l-.59-.29-.58-.28-.57-.32c-.38-.21-.75-.41-1.11-.65s-.73-.45-1.08-.69l-1-.74a6,6,0,0,1-.5-.38l-.5-.39-.49-.39c-.16-.12-.32-.27-.48-.4l-.94-.81-.43-.41c-.14-.14-.29-.27-.42-.41l-.41-.43-.38-.43c-.26-.29-.48-.6-.72-.9a17.42,17.42,0,0,1-1.24-1.88,18.5,18.5,0,0,1-1-1.95,16.06,16.06,0,0,1-.67-2,15.69,15.69,0,0,1-.41-2c0-.33-.07-.65-.09-1s0-.64,0-1a12.37,12.37,0,0,1,.5-3.52,11.68,11.68,0,0,1,1.31-2.9,12.89,12.89,0,0,1,1.77-2.2,15,15,0,0,1,2.05-1.67l.56-.35a2.09,2.09,0,0,1,.28-.17l.28-.15a5.07,5.07,0,0,1,.57-.29l.28-.13.3-.12a13.1,13.1,0,0,1,2.46-.72,17,17,0,0,1,2.56-.29,20,20,0,0,1,5,.44,18.09,18.09,0,0,1,2.38.65c.39.12.76.27,1.14.42l.55.23c.18.08.37.16.54.25a14.47,14.47,0,0,1,6.52,5.77l.23.45.11.23.1.22c.06.16.12.31.19.46l.15.46.08.23.06.24.11.46c0,.16,0,.31.07.47l0,.23c0,.08,0,.15,0,.23l0,.46V73l0,.22,0,.45c0,.15,0,.3-.08.44l0,.22-.06.21-.1.43c-.05.13-.09.27-.14.41l-.06.2-.09.19c0,.14-.11.27-.16.4l-.19.37-.09.18-.11.18-.21.35-.23.33c-.15.22-.33.42-.49.62a8.18,8.18,0,0,1-2.3,1.83,7.74,7.74,0,0,1-2.43.84,7.85,7.85,0,0,1-2.2.06l-.25,0-.24,0-.46-.08-.25-.07a3.48,3.48,0,1,0-1.77.06l.22.15.69.38c.26.12.55.23.86.36l.49.15.26.08.27.06a8.16,8.16,0,0,0,2.53.18,8.59,8.59,0,0,0,2.94-.76,9.35,9.35,0,0,0,2.88-2,8.77,8.77,0,0,0,.63-.72c.1-.12.21-.25.3-.38l.28-.41c0-.07.1-.14.14-.21l.13-.21.25-.45.22-.46.11-.24a2.44,2.44,0,0,0,.1-.24c.06-.17.12-.33.19-.5l.15-.51.08-.26.06-.27c0-.18.07-.35.11-.54s0-.36.07-.55l0-.28,0-.28c0-.19,0-.38,0-.57s0-.38,0-.57a2.81,2.81,0,0,0,0-.29l0-.29c0-.19,0-.39-.08-.58s-.07-.39-.11-.58a2.46,2.46,0,0,0-.07-.29l-.08-.29-.17-.58-.21-.56-.11-.29-.13-.27-.26-.56A13.23,13.23,0,0,0,193.42,65c-.25-.35-.54-.65-.81-1l-.45-.45c-.15-.16-.3-.31-.46-.45l-.48-.43-.5-.41-.26-.21-.26-.19-.53-.38-.56-.36-.28-.18-.28-.16-.58-.34-.59-.3c-.2-.11-.4-.2-.61-.3l-.61-.27c-.42-.17-.84-.35-1.27-.5a23.27,23.27,0,0,0-2.66-.77,22.59,22.59,0,0,0-5.68-.57,19.85,19.85,0,0,0-3,.32,15.89,15.89,0,0,0-2.95.84l-.36.15-.36.16c-.24.11-.48.22-.71.35l-.35.19-.34.2-.65.42a16.34,16.34,0,0,0-2.44,2,14.5,14.5,0,0,0-2.15,2.68,14.12,14.12,0,0,0-1.6,3.56,16.2,16.2,0,0,0,.07,8.84A17.91,17.91,0,0,0,162.56,79.75Zm106.3,9.68a5,5,0,0,1,.46,1.29l.06.32c0,.1,0,.21,0,.32a4.16,4.16,0,0,1,0,.61,4.81,4.81,0,0,1-.23,1.13,4.4,4.4,0,0,1-.7,1.33,4.79,4.79,0,0,1-.92-2.46,3.12,3.12,0,0,1,0-.61c0-.11,0-.22,0-.32l.06-.32a4.65,4.65,0,0,1,.46-1.29,4,4,0,0,1,.37-.58A4.12,4.12,0,0,1,268.86,89.43Z"/><path class="cls-14" d="M239.29,78.62a11.9,11.9,0,0,0,3,.79,18.42,18.42,0,0,0,2.54.19c.66,0,1.1,0,1.12-.13s-.33-.34-.9-.67l-2.15-1.2a17.76,17.76,0,0,1-2.17-1.45A10.63,10.63,0,0,1,239.46,75c-.48-.49-.93-.88-1.36-1.25a1.79,1.79,0,0,0-1.34-.56.78.78,0,0,0-.55.39,1.84,1.84,0,0,0-.26,1,3.86,3.86,0,0,0,1.21,2.76A6.57,6.57,0,0,0,239.29,78.62Z"/><path class="cls-15" d="M248.43,75.28a9.74,9.74,0,0,1-.73-1.21c-.27-.5-.55-.91-.81-1.3a1.51,1.51,0,0,0-.95-.75c-.36,0-.75.26-.95.9a3.22,3.22,0,0,0,.36,2.48A5.37,5.37,0,0,0,246.76,77a10.39,10.39,0,0,0,2.2,1.29,7.58,7.58,0,0,0,2.93.85c.1-.13-1-1.09-2-2.17A15.47,15.47,0,0,1,248.43,75.28Z"/><path class="cls-16" d="M225.76,79.1a7.1,7.1,0,0,0,2.44,1.32,13.69,13.69,0,0,0,3.33.63,20.63,20.63,0,0,0,2.82,0c.73,0,1.21-.13,1.23-.24s-.39-.34-1.05-.66L232.06,79a18.11,18.11,0,0,1-2.5-1.43,11.16,11.16,0,0,1-1.45-1.18c-.57-.5-1.1-.89-1.6-1.27a2,2,0,0,0-1.52-.52.91.91,0,0,0-.58.48,1.84,1.84,0,0,0-.17.47,1.94,1.94,0,0,0,0,.6A4.25,4.25,0,0,0,225.76,79.1Z"/><path class="cls-17" d="M151.71,109.4a23.84,23.84,0,0,0,6.76-.73,112,112,0,0,0,13-4.48c2.44-1,4.7-2,6.32-2.85s2.57-1.58,2.49-1.72a13.22,13.22,0,0,0-2.93.45c-1.75.32-4.16.72-6.72,1.15-5.12.85-10.89,1.75-13.4,2.35a29.08,29.08,0,0,0-6.27,2.19c-1.55.8-2.43,1.57-2.36,2.3S149.9,109.28,151.71,109.4Z"/><path class="cls-18" d="M162,92a1.73,1.73,0,1,0-1.73-1.73A1.74,1.74,0,0,0,162,92Z"/><circle class="cls-19" cx="170.03" cy="94.69" r="1.36"/><path class="cls-20" d="M158.74,82.85a1.12,1.12,0,1,0-1.12-1.12A1.12,1.12,0,0,0,158.74,82.85Z"/><path class="cls-21" d="M19.78,143.9a2.06,2.06,0,0,0,1.75-.05,2.44,2.44,0,0,0,1.15-1.29,2.36,2.36,0,0,0-2.85-3.1,2.06,2.06,0,0,0-1.32,1.14,2.44,2.44,0,0,0,0,1.9A2.48,2.48,0,0,0,19.78,143.9Z"/><path class="cls-22" d="M18.1,138a1.77,1.77,0,0,0,1.43.28,2,2,0,0,0-.68-3.88,1.89,1.89,0,0,0-1.58,2.28A2,2,0,0,0,18.1,138Z"/><path class="cls-23" d="M17.07,131.66a1.61,1.61,0,0,0,1.68,1.65,1.68,1.68,0,0,0-.06-3.35A1.61,1.61,0,0,0,17.07,131.66Z"/><path class="cls-24" d="M17.66,127.45a1.23,1.23,0,0,0,1.09,1.42,1.27,1.27,0,0,0,1.35-1.12,1.29,1.29,0,0,0-1-1.42A1.25,1.25,0,0,0,17.66,127.45Z"/><path class="cls-25" d="M19.3,125.22a1,1,0,0,0,.54-1.9,1,1,0,0,0-.54,1.9Z"/><path class="cls-26" d="M23,148.53a1.73,1.73,0,0,0,1.4-.41,2,2,0,0,0,.65-1.29,1.94,1.94,0,0,0-.32-1.34,2,2,0,0,0-1.16-.77,2.07,2.07,0,0,0-1.44.19,1.73,1.73,0,0,0-.85,1.19A2.13,2.13,0,0,0,23,148.53Z"/><path class="cls-27" d="M25.4,151.31a1.74,1.74,0,0,0,1.32.38,1.42,1.42,0,0,0,1-.69,1.68,1.68,0,0,0-2.62-2.06A1.58,1.58,0,0,0,25.4,151.31Z"/><path class="cls-28" d="M30.32,150.9a1.3,1.3,0,0,0-1.61.63,1.13,1.13,0,0,0,0,.95,1.27,1.27,0,0,0,.76.71,1.33,1.33,0,0,0,1,0,1.15,1.15,0,0,0,.62-.74,1.33,1.33,0,0,0-.78-1.54Z"/><path class="cls-29" d="M32.21,152.7a1,1,0,0,0,1.95.23,1,1,0,0,0-1.95-.23Z"/><path class="cls-30" d="M39.27,69.13a2.35,2.35,0,0,0,1.67.1,2.39,2.39,0,0,0,1.37-1.08,2.08,2.08,0,0,0,.15-1.74,2.52,2.52,0,0,0-3.21-1.47A2,2,0,0,0,38,66.19a2.42,2.42,0,0,0,1.24,2.94Z"/><path class="cls-31" d="M43.86,71.39a2,2,0,0,0,2.66-.33,1.88,1.88,0,0,0-.46-2.73A2,2,0,0,0,44.54,68a1.74,1.74,0,0,0-1.21.8,2,2,0,0,0-.25,1.43A2,2,0,0,0,43.86,71.39Z"/><path class="cls-32" d="M47.38,71.8a1.67,1.67,0,0,0,.09,2.28,1.69,1.69,0,0,0,2.29.07,1.67,1.67,0,0,0-2.38-2.35Z"/><path class="cls-33" d="M50.47,75A1.28,1.28,0,0,0,52,77a1.23,1.23,0,0,0,.24-1.78A1.25,1.25,0,0,0,50.47,75Z"/><path class="cls-34" d="M52.29,79.28a1,1,0,0,0,1.28.42A1,1,0,0,0,52.63,78,1,1,0,0,0,52.29,79.28Z"/><path class="cls-35" d="M34.62,67.22A2,2,0,0,0,36,67a2,2,0,0,0,.89-1.14,1.7,1.7,0,0,0-.22-1.44,2,2,0,0,0-1.35-.86,2,2,0,0,0-1.57.32A1.7,1.7,0,0,0,33,65.11a2,2,0,0,0,.43,1.38A1.94,1.94,0,0,0,34.62,67.22Z"/><path class="cls-36" d="M30.39,66.74a1.71,1.71,0,0,0,1.5-1.67,1.58,1.58,0,0,0-1.84-1.52,1.76,1.76,0,0,0-1.21.66,1.41,1.41,0,0,0-.27,1.21A1.74,1.74,0,0,0,30.39,66.74Z"/><path class="cls-37" d="M25.9,67.31a1.3,1.3,0,0,0,.91,0,1.37,1.37,0,0,0,.64-.64,1.32,1.32,0,0,0,.07-.94,1.11,1.11,0,0,0-.64-.7,1.4,1.4,0,0,0-1.78.76,1.16,1.16,0,0,0,.07,1A1.27,1.27,0,0,0,25.9,67.31Z"/><path class="cls-38" d="M24,68.64a1,1,0,0,0,.22-1.32,1,1,0,0,0-1.56,1.2A1,1,0,0,0,24,68.64Z"/><path class="cls-39" d="M205.17,135.41c-.12-.55-.4-1.44-.62-2.56a15.93,15.93,0,0,1-.26-3.87,19.75,19.75,0,0,1,.58-3.74c.11-.52.24-.94.29-1.27s.05-.56,0-.63-.28,0-.59.11a5.81,5.81,0,0,0-1.21.72,12.74,12.74,0,0,0-3.09,3.32,14.81,14.81,0,0,0-2.11,5,11.11,11.11,0,0,0-.15,4.27,6.43,6.43,0,0,0,2.56,4.18,3.31,3.31,0,0,0,1.69.6,2.23,2.23,0,0,0,1.43-.39,3.09,3.09,0,0,0,1-1.13,6.22,6.22,0,0,0,.51-1.45,4.19,4.19,0,0,0,.11-.78,5.39,5.39,0,0,0,.06-.8c0-.26,0-.54,0-.8S205.23,135.69,205.17,135.41Z"/><path class="cls-40" d="M200.27,121.55a19.79,19.79,0,0,0,3.1-5.16c.23-.62.44-1.17.61-1.64s.22-.67.14-.75-.32,0-.74.19a9.59,9.59,0,0,0-1.53,1.09,31.44,31.44,0,0,1-4.42,3,34.71,34.71,0,0,1-5.34,2.34c-1.71.58-3.22,1-4.13,1.32a15.84,15.84,0,0,0-4.55,2.48c-1.14,1-1.8,2-1.6,3s1.24,1.73,2.81,2a11.25,11.25,0,0,0,5.88-.64,21.49,21.49,0,0,0,4.6-2.53A25.75,25.75,0,0,0,200.27,121.55Z"/><path class="cls-41" d="M536.45,137.35A44.07,44.07,0,0,0,529.38,120l-1.46-2c-.25-.33-.49-.67-.75-1l-.83-1c-.56-.63-1.09-1.29-1.7-1.89l-1.87-1.77a35.31,35.31,0,0,0-8.84-5.72,36,36,0,0,0-10.13-2.72l-1.28-.14c-.42,0-.84-.1-1.27-.1l-2.51-.08c-.84,0-1.66,0-2.49.08l-1.23,0-1.21.13a62.2,62.2,0,0,0-9.3,1.66c-1.46.41-2.91.79-4.33,1.21s-2.8.87-4.16,1.33c-5.43,1.83-10.44,3.84-15.1,5.72l-4.52,1.82a49.47,49.47,0,0,0,7.65-5.65,44.25,44.25,0,0,0,6.52-7.29,43,43,0,0,0,4.4-7.83,44.87,44.87,0,0,0,2.54-7.69c.58-2.47,2.21-11.42,2.91-13.07a37.89,37.89,0,0,1,1.94-4.33c2.62-4.33,5.94-8,10.45-10a27.69,27.69,0,0,1,21.62-.12c.35.14-2.46-2.91-4.32-3.93a21.72,21.72,0,0,0-5.87-2c-4.09-.86-8.65-.86-12.43,1.1a31.56,31.56,0,0,0-5.54,3.9A27.22,27.22,0,0,0,480.11,66a16.2,16.2,0,0,0-1.37,3.25c0-.18,0-.37-.05-.55a22.28,22.28,0,0,1,0-2.58,14.65,14.65,0,0,0-.36-5.46,25.56,25.56,0,0,0-3.2-7.37A37.57,37.57,0,0,0,469,45.92a43.2,43.2,0,0,0-8.38-6.15,39.65,39.65,0,0,0-9.69-3.92,32.2,32.2,0,0,0-9.66-1,25.62,25.62,0,0,0-7.55,1.49,22.58,22.58,0,0,0-9.39,6.55,19.93,19.93,0,0,0-4.13,7.84,12,12,0,0,0-.16,5.86,3.75,3.75,0,0,0,2.18,2.75c2,.73,4.58-1,7.41-3,1.43-1,2.93-2.11,4.49-3a30,30,0,0,1,5-2.41,24.73,24.73,0,0,1,3.73-1.12,24.14,24.14,0,0,1,5.85-.48A33.26,33.26,0,0,1,456,50.4a38.76,38.76,0,0,1,7.57,2.91,35.88,35.88,0,0,1,6.54,4.23,26.56,26.56,0,0,1,4.54,4.76A21.12,21.12,0,0,1,477,66.36a12,12,0,0,1,.76,2.42,64.61,64.61,0,0,1-1,11,51.57,51.57,0,0,1-1.64,6.66,42.74,42.74,0,0,1-2.91,7A40.74,40.74,0,0,1,462,106.19c7.14-7.85,9.12-18.86-8.11-32.73-.53-.42-1.28.29-1,.92,2.49,6.33,9.22,27.37-5.13,40.08-1.27.5-2.56,1-3.89,1.4a88.59,88.59,0,0,1-21.74,3.81,131.71,131.71,0,0,1-23.9-1,148.49,148.49,0,0,1-23.47-5c-7.41-2.22-14.44-5-21.23-7.69a201,201,0,0,0-19.74-6.87c-1.57-.48-3.17-.81-4.72-1.19-.77-.2-1.56-.32-2.33-.47l-2.29-.43c-1.52-.23-3-.42-4.48-.6s-2.92-.23-4.32-.3l-4.13,0-3.9.24c-2.47.22-4.82.44-7,.71a54.44,54.44,0,0,0-11.11,2.36,20.51,20.51,0,0,0-4.69,2.28l-.78.31A40.12,40.12,0,0,0,271.83,110a30.79,30.79,0,0,0-3.4,3.71A31.72,31.72,0,0,0,265,110a40.12,40.12,0,0,0-12.19-7.93l-.78-.31a20.51,20.51,0,0,0-4.69-2.28,54.44,54.44,0,0,0-11.11-2.36c-2.19-.27-4.54-.49-7-.71l-3.9-.24-4.13,0c-1.4.07-2.84.2-4.32.3s-3,.37-4.48.6l-2.29.43c-.77.15-1.56.27-2.33.47-1.54.38-3.14.71-4.72,1.19a201,201,0,0,0-19.74,6.87c-6.79,2.66-13.82,5.47-21.23,7.69a148.49,148.49,0,0,1-23.47,5,131.71,131.71,0,0,1-23.9,1A88.68,88.68,0,0,1,93,115.86c-1.33-.43-2.62-.9-3.89-1.4C74.75,101.75,81.49,80.71,84,74.38c.25-.63-.5-1.34-1-.92-17.23,13.87-15.25,24.88-8.11,32.73a41.66,41.66,0,0,1-5.64-5.72,41.07,41.07,0,0,1-4.53-7,43.63,43.63,0,0,1-2.91-7,51.57,51.57,0,0,1-1.64-6.66,64.61,64.61,0,0,1-1-11,12.7,12.7,0,0,1,.76-2.42,21.68,21.68,0,0,1,2.29-4.06,26.92,26.92,0,0,1,4.54-4.76,35.88,35.88,0,0,1,6.54-4.23,39,39,0,0,1,7.57-2.91,33.26,33.26,0,0,1,7.36-1.14,24.1,24.1,0,0,1,5.84.48,25.29,25.29,0,0,1,3.74,1.12,30.3,30.3,0,0,1,5,2.41c1.56.93,3.07,2,4.49,3,2.83,2.06,5.37,3.75,7.41,3a3.72,3.72,0,0,0,2.18-2.75,12,12,0,0,0-.16-5.86,19.8,19.8,0,0,0-4.13-7.84,22.52,22.52,0,0,0-9.39-6.55,25.62,25.62,0,0,0-7.55-1.49,32.2,32.2,0,0,0-9.66,1,39.81,39.81,0,0,0-9.69,3.92,43.51,43.51,0,0,0-8.38,6.15,37.92,37.92,0,0,0-6.14,7.41,25.56,25.56,0,0,0-3.2,7.37,14.65,14.65,0,0,0-.36,5.46,22.28,22.28,0,0,1,0,2.58c0,.18,0,.37,0,.55A16.2,16.2,0,0,0,56.74,66a27.22,27.22,0,0,0-6.16-7.29A31.56,31.56,0,0,0,45,54.85c-3.78-2-8.34-2-12.43-1.1a21.84,21.84,0,0,0-5.87,2c-1.85,1-4.67,4.07-4.32,3.93A27.69,27.69,0,0,1,44,59.77c4.51,1.95,7.83,5.65,10.45,10a36.23,36.23,0,0,1,1.94,4.33c.7,1.65,2.34,10.6,2.91,13.07a44.87,44.87,0,0,0,2.54,7.69,43.65,43.65,0,0,0,4.4,7.83A44.25,44.25,0,0,0,72.8,110a49.47,49.47,0,0,0,7.65,5.65l-4.52-1.82c-4.65-1.88-9.66-3.89-15.1-5.72-1.36-.46-2.76-.88-4.16-1.33s-2.87-.8-4.32-1.21A62.57,62.57,0,0,0,43,103.87l-1.21-.13-1.23,0c-.83,0-1.65-.09-2.48-.08l-2.52.08c-.42,0-.85.06-1.27.1l-1.28.14a35.87,35.87,0,0,0-10.12,2.72,35.37,35.37,0,0,0-8.85,5.72l-1.87,1.77c-.61.6-1.14,1.26-1.7,1.89l-.83,1c-.26.33-.5.67-.75,1-.49.67-1,1.34-1.46,2A44.07,44.07,0,0,0,.4,137.35a31.75,31.75,0,0,0-.16,8.91,27.42,27.42,0,0,0,2.33,8.1l.94,1.8c.32.58.7,1.11,1,1.66a14.11,14.11,0,0,0,.82,1.2,18.87,18.87,0,0,0,7.09,6.66l.5.33.73.39,1.45.77,1.45.61.72.29c.23.1.48.17.72.25l1.41.45c.46.16.93.23,1.38.35l1.34.32,1.31.22c3.44.56,9.46.31,15.57-1.31,5.25-1.4,9-4.26,10.7-5.19a25,25,0,0,0,5.46-4.33,50.57,50.57,0,0,1-15.35,3.23c-6.91.23-13.74-1.73-18.89-6.46a31.75,31.75,0,0,1-8.64-14.79A36.57,36.57,0,0,1,11,133.34a18,18,0,0,1,.73-6.06,20.76,20.76,0,0,1,6.36-10.34,31,31,0,0,1,7.32-4.66A31.36,31.36,0,0,1,33.83,110l1.09-.13a7.91,7.91,0,0,1,1.08-.11l2.18-.11c.73,0,1.46,0,2.19,0l1.08,0,1.09.08A61.94,61.94,0,0,1,51.07,111c1.4.33,2.79.63,4.16,1s2.73.71,4.07,1.09c5.35,1.5,10.42,3.17,15.2,4.71s9.28,3,13.44,4.07,8,2,11.36,2.54a82.88,82.88,0,0,0,8.73,1l3.2.11,1.43,0c.56.06,1.11.11,1.67.15a123.17,123.17,0,0,0,25.08-.72,137.34,137.34,0,0,0,24.43-5.42,230.56,230.56,0,0,0,21.48-8.52c6.66-2.93,12.94-5.63,19-7.65a79.16,79.16,0,0,1,17.14-3.94l3.93-.3,3.75,0c2.1,0,4.07,0,5.94.11a39.46,39.46,0,0,0-15.7,4.21,37.94,37.94,0,0,0-6.15,3.9,37.42,37.42,0,0,0-3.45,3.07,6.81,6.81,0,0,0-1.06,1.23c.09.09,1.65-1.52,4.89-3.77a40.44,40.44,0,0,1,6.22-3.47,38.48,38.48,0,0,1,8.89-2.74,39.11,39.11,0,0,1,11.08-.43,41,41,0,0,1,6,1.12,38.18,38.18,0,0,1,6,2.2,36.53,36.53,0,0,1,14.67,12.11,33.54,33.54,0,0,0-3.87,26.75,34.18,34.18,0,0,0,1.37,3.91,31.92,31.92,0,0,0,1.83,3.71c-.19.26-.39.52-.6.77a29,29,0,0,1-2.41,2.67c-.43.4-.88.77-1.31,1.16-.23.19-.43.4-.67.57l-.71.5-.71.51-.35.25-.38.21-1.5.86a24.83,24.83,0,0,1-3.17,1.3,11.7,11.7,0,0,1-1.63.48c-.55.12-1.1.26-1.65.36l-1.66.22-.42,0h-.42l-.83,0-.83,0-.82-.05c-.55,0-1.1,0-1.64-.12l-1.61-.25a5.49,5.49,0,0,1-.78-.18L241,160l-.78-.2c-.25-.07-.5-.18-.75-.26-.5-.19-1-.35-1.48-.55a23.24,23.24,0,0,1-2.76-1.44l-.66-.4a4.6,4.6,0,0,1-.63-.42l-1.21-.91a12,12,0,0,1-1.13-1l-.54-.51a3.14,3.14,0,0,1-.52-.51,17.45,17.45,0,0,1-3.11-4.55,16.42,16.42,0,0,1-1.49-5c0-.21,0-.41-.08-.62a4.2,4.2,0,0,1-.06-.61c0-.42,0-.82,0-1.23s0-.8,0-1.19l0-.59.09-.58c.06-.38.12-.75.17-1.13s.19-.73.28-1.08c0-.18.08-.36.14-.54l.18-.51.36-1a17.88,17.88,0,0,1,4.25-6.08,13,13,0,0,1,5.33-3,13.73,13.73,0,0,1,6-.31,13.22,13.22,0,0,1,5.33,2.23l.58.41c.19.15.36.31.54.47l.53.46.46.5.23.24a2.56,2.56,0,0,1,.2.26l.41.53.35.55a4.59,4.59,0,0,1,.32.57l.29.59c.09.19.15.4.23.6a9.18,9.18,0,0,1,.38,1.23,10.85,10.85,0,0,1,.26,2.52,10.57,10.57,0,0,1-.33,2.46c-.12.39-.22.79-.37,1.16a9,9,0,0,1-.51,1.09l-.28.52a4.2,4.2,0,0,1-.33.49c-.11.16-.21.33-.33.49l-.38.45a8.61,8.61,0,0,1-1.6,1.49,8.28,8.28,0,0,1-3.83,1.43,8.42,8.42,0,0,1-3.8-.45,9,9,0,0,1-3-1.82,7.1,7.1,0,0,1-2.23-5,8.92,8.92,0,0,1,.23-2.17,12.66,12.66,0,0,1,.54-1.59,6,6,0,0,0,.24-.58,3.59,3.59,0,0,0,.19-.43c.09-.25.11-.42,0-.49s-.23,0-.48.08a3.29,3.29,0,0,0-.44.27c-.16.13-.33.29-.53.47a7.63,7.63,0,0,0-1.19,1.61,8.67,8.67,0,0,0-.89,2.65,8.78,8.78,0,0,0,.13,3.58,9.33,9.33,0,0,0,2,3.89,11.76,11.76,0,0,0,3.93,3,12,12,0,0,0,5.52,1.17A12.34,12.34,0,0,0,251,149a6.49,6.49,0,0,0,.7-.46c.23-.17.47-.32.68-.51a11.52,11.52,0,0,0,1.25-1.16l.58-.61.53-.67c.17-.23.36-.45.52-.7l.46-.74a14.67,14.67,0,0,0,.83-1.57,17.88,17.88,0,0,0,.64-1.69,15.1,15.1,0,0,0,.66-3.64,15.4,15.4,0,0,0-.23-3.82,14.33,14.33,0,0,0-.49-1.9c-.11-.31-.2-.63-.33-.94s-.27-.61-.41-.92a7.56,7.56,0,0,0-.47-.89c-.17-.29-.33-.59-.51-.88l-.59-.83c-.11-.14-.2-.28-.31-.41l-.34-.39-.68-.77-.74-.69c-.24-.22-.49-.46-.75-.68l-.81-.61a18.58,18.58,0,0,0-7.57-3.34,19.37,19.37,0,0,0-8.59.32,18.61,18.61,0,0,0-7.76,4.29,15.65,15.65,0,0,0-1.6,1.65,9.82,9.82,0,0,0-.78.91l-.74,1a20.59,20.59,0,0,0-1.38,2.2,9.78,9.78,0,0,0-.61,1.21l-.58,1.27-.47,1.35c-.08.23-.15.46-.23.69s-.12.48-.18.71c-.12.48-.23,1-.35,1.46s-.15,1-.22,1.52c0,.25-.06.51-.1.77l0,.78c0,.53-.06,1.06-.05,1.6s.06,1.07.09,1.62a5.87,5.87,0,0,0,.09.82l.12.82a22.78,22.78,0,0,0,6.31,12.47,8,8,0,0,0,.66.64l.69.61a14.66,14.66,0,0,0,1.42,1.19l1.53,1.1a7.25,7.25,0,0,0,.8.51l.82.48a29.16,29.16,0,0,0,3.46,1.69c.6.24,1.22.43,1.84.64.31.1.62.22.93.31l1,.22,1,.23c.33.07.65.15,1,.19l2,.26c.67.08,1.34.07,2,.1.33,0,.67,0,1,0l1-.06,1-.06.51,0,.5-.07,2-.32c.67-.14,1.33-.32,2-.49a17.19,17.19,0,0,0,2-.63,28.51,28.51,0,0,0,3.8-1.68l1.78-1.08.45-.27.42-.31.83-.63.84-.63c.28-.21.52-.47.78-.7.51-.47,1-.94,1.53-1.43.84-.89,1.65-1.8,2.4-2.77.74,1,1.56,1.88,2.39,2.77.5.49,1,1,1.53,1.43.26.23.5.49.78.7l.84.63.83.63.43.31.44.27,1.79,1.08a27.83,27.83,0,0,0,3.79,1.68,17.19,17.19,0,0,0,2,.63c.67.17,1.33.35,2,.49l2,.32.51.07.5,0,1,.06,1,.06,1,0c.67,0,1.34,0,2-.1l2-.26c.33,0,.66-.12,1-.19l1-.23,1-.22c.31-.09.62-.21.93-.31.62-.21,1.24-.4,1.84-.64a29.16,29.16,0,0,0,3.46-1.69l.82-.48a7.25,7.25,0,0,0,.8-.51l1.53-1.1a14.66,14.66,0,0,0,1.42-1.19l.69-.61a6.65,6.65,0,0,0,.66-.64,22.78,22.78,0,0,0,6.31-12.47c0-.28.08-.55.13-.82a7.84,7.84,0,0,0,.08-.82q0-.83.09-1.62c0-.54,0-1.07,0-1.6l0-.78c0-.26-.07-.52-.1-.77-.07-.51-.14-1-.22-1.52s-.23-1-.35-1.46c-.06-.23-.11-.48-.18-.71s-.15-.46-.23-.69c-.16-.45-.31-.91-.47-1.35s-.39-.85-.58-1.27a9.78,9.78,0,0,0-.61-1.21,20.59,20.59,0,0,0-1.38-2.2l-.74-1a9.82,9.82,0,0,0-.78-.91,15.65,15.65,0,0,0-1.6-1.65,18.61,18.61,0,0,0-7.76-4.29,19.37,19.37,0,0,0-8.59-.32,18.58,18.58,0,0,0-7.57,3.34l-.81.61c-.26.22-.5.46-.75.68l-.74.69-.68.77-.34.39c-.11.13-.2.27-.31.41l-.59.83c-.18.29-.34.59-.51.88a7.56,7.56,0,0,0-.47.89c-.14.31-.27.62-.41.92s-.22.63-.32.94a14.38,14.38,0,0,0-.5,1.9,15.4,15.4,0,0,0-.23,3.82,15.6,15.6,0,0,0,.66,3.64,17.88,17.88,0,0,0,.64,1.69,14.67,14.67,0,0,0,.83,1.57l.46.74c.16.25.35.47.52.7l.53.67.58.61a11.52,11.52,0,0,0,1.25,1.16c.21.19.45.34.68.51s.46.33.7.46a12.34,12.34,0,0,0,6,1.77,12,12,0,0,0,5.52-1.17,11.76,11.76,0,0,0,3.93-3,9.48,9.48,0,0,0,2-3.89,9.15,9.15,0,0,0,.13-3.58,8.94,8.94,0,0,0-.9-2.65,7.3,7.3,0,0,0-1.19-1.61l-.52-.47a4.09,4.09,0,0,0-.45-.27c-.24-.12-.4-.15-.47-.08s-.06.24,0,.49a3.59,3.59,0,0,0,.19.43c.06.17.15.37.24.58a11.23,11.23,0,0,1,.54,1.59,8.45,8.45,0,0,1,.23,2.17,7.1,7.1,0,0,1-2.23,5,9.1,9.1,0,0,1-3,1.82,8.45,8.45,0,0,1-3.8.45,8.27,8.27,0,0,1-3.84-1.43,8.61,8.61,0,0,1-1.6-1.49l-.38-.45c-.12-.16-.22-.33-.33-.49s-.23-.31-.33-.49l-.28-.52a9,9,0,0,1-.51-1.09c-.15-.37-.25-.77-.37-1.16a10.06,10.06,0,0,1-.32-2.46,10.32,10.32,0,0,1,.25-2.52,10.9,10.9,0,0,1,.38-1.23c.08-.2.14-.41.23-.6l.29-.59a6.38,6.38,0,0,1,.32-.57L286,131l.41-.53c.07-.09.13-.18.2-.26l.23-.24.46-.5.53-.46.54-.47.58-.41a13.33,13.33,0,0,1,5.34-2.23,13.69,13.69,0,0,1,6,.31,12.89,12.89,0,0,1,5.33,3,17.74,17.74,0,0,1,4.25,6.08l.36,1c.06.17.12.34.19.51s.09.36.13.54c.09.35.18.72.28,1.08s.11.75.17,1.13l.09.58,0,.59c0,.39.06.79.06,1.19s0,.81,0,1.23a3.15,3.15,0,0,1-.06.61c0,.21-.05.41-.08.62a16.42,16.42,0,0,1-1.49,5,17.45,17.45,0,0,1-3.11,4.55,3.51,3.51,0,0,1-.51.51l-.55.51a12,12,0,0,1-1.13,1l-1.21.91a4.6,4.6,0,0,1-.63.42l-.66.4a23.24,23.24,0,0,1-2.76,1.44c-.48.2-1,.36-1.48.55-.25.08-.49.19-.75.26l-.78.2-.77.2a5.32,5.32,0,0,1-.79.18l-1.61.25c-.54.08-1.09.08-1.64.12l-.82.05-.83,0-.83,0h-.42l-.41,0-1.67-.22c-.55-.1-1.1-.24-1.65-.36a11.7,11.7,0,0,1-1.63-.48,24.83,24.83,0,0,1-3.17-1.3l-1.5-.86-.38-.21-.35-.25-.71-.51L276,156c-.24-.17-.44-.38-.67-.57-.43-.39-.88-.76-1.31-1.16a30.56,30.56,0,0,1-2.41-2.67l-.6-.77a31.92,31.92,0,0,0,1.83-3.71,36.28,36.28,0,0,0,1.38-3.91,35.14,35.14,0,0,0,.86-4,33.42,33.42,0,0,0-1.54-16.12,33.07,33.07,0,0,0-3.19-6.58A36.5,36.5,0,0,1,285,104.37a38.18,38.18,0,0,1,6-2.2,41,41,0,0,1,6-1.12,39.11,39.11,0,0,1,11.08.43,38.48,38.48,0,0,1,8.89,2.74,40.44,40.44,0,0,1,6.22,3.47c3.24,2.25,4.81,3.86,4.89,3.77a6.81,6.81,0,0,0-1.06-1.23,35.74,35.74,0,0,0-3.44-3.07,38.39,38.39,0,0,0-6.15-3.9,39.55,39.55,0,0,0-15.71-4.21c1.87-.06,3.85-.09,5.94-.11l3.75,0,3.93.3a79.16,79.16,0,0,1,17.14,3.94c6,2,12.31,4.72,19,7.65A230.56,230.56,0,0,0,373,119.4a137.53,137.53,0,0,0,24.43,5.42,123.17,123.17,0,0,0,25.08.72c.56,0,1.12-.09,1.67-.15l1.44,0,3.19-.11a82.88,82.88,0,0,0,8.73-1c3.37-.59,7.21-1.38,11.36-2.54s8.66-2.52,13.44-4.07,9.85-3.21,15.2-4.71c1.34-.38,2.7-.72,4.07-1.09s2.76-.64,4.16-1a61.94,61.94,0,0,1,8.53-1.24l1.09-.08,1.08,0c.73,0,1.46,0,2.19,0l2.18.11a7.75,7.75,0,0,1,1.08.11L503,110a29.39,29.39,0,0,1,15.75,7,20.75,20.75,0,0,1,6.35,10.34,18.31,18.31,0,0,1,.74,6.06,37.28,37.28,0,0,1-1.33,7.47,31.75,31.75,0,0,1-8.64,14.79c-5.15,4.73-12,6.69-18.89,6.46a50.45,50.45,0,0,1-15.34-3.23,24.79,24.79,0,0,0,5.45,4.33c1.69.93,5.45,3.79,10.7,5.19,6.11,1.62,12.13,1.87,15.57,1.31l1.31-.22,1.34-.32c.45-.12.93-.19,1.38-.35l1.41-.45c.24-.08.49-.15.72-.25l.72-.29,1.46-.61,1.44-.77.73-.39.5-.33a19,19,0,0,0,7.1-6.66c.28-.39.56-.78.81-1.2s.72-1.08,1-1.66l.94-1.8a27.42,27.42,0,0,0,2.33-8.1A31.75,31.75,0,0,0,536.45,137.35ZM270.26,124.18a29.79,29.79,0,0,1,.92,14.35,30.43,30.43,0,0,1-.86,3.54,29.1,29.1,0,0,1-1.31,3.4c-.18.41-.38.81-.58,1.22-.21-.41-.41-.81-.59-1.22a31,31,0,0,1-1.31-3.4,30.43,30.43,0,0,1-.86-3.54,29.91,29.91,0,0,1,.92-14.35,28.35,28.35,0,0,1,1.84-4.47A27.4,27.4,0,0,1,270.26,124.18Z"/><path class="cls-42" d="M514.16,140.88a2.37,2.37,0,0,0,0,1.68,2.42,2.42,0,0,0,1.16,1.29,2,2,0,0,0,1.74.05,2.48,2.48,0,0,0,1.31-1.4,2.44,2.44,0,0,0,0-1.9,2,2,0,0,0-1.32-1.14,2.4,2.4,0,0,0-2.86,1.42Z"/><path class="cls-43" d="M515.86,136.06a2,2,0,0,0,.29,1.39,2,2,0,0,0,1.17.86,1.76,1.76,0,0,0,1.43-.28,2,2,0,0,0,.83-1.32,1.89,1.89,0,0,0-1.58-2.28A2,2,0,0,0,515.86,136.06Z"/><path class="cls-44" d="M516.57,131.61a1.7,1.7,0,0,0,1.53,1.7,1.68,1.68,0,0,0,.06-3.35A1.7,1.7,0,0,0,516.57,131.61Z"/><path class="cls-45" d="M517.78,126.33a1.29,1.29,0,0,0-1,1.42,1.27,1.27,0,0,0,1.35,1.12,1.23,1.23,0,0,0,1.09-1.42A1.25,1.25,0,0,0,517.78,126.33Z"/><path class="cls-46" d="M517,123.32a1,1,0,0,0,.53,1.9,1,1,0,0,0-.53-1.9Z"/><path class="cls-47" d="M513.33,144.72a2,2,0,0,0-1.16.77,1.9,1.9,0,0,0-.33,1.34,2,2,0,0,0,.65,1.29,1.74,1.74,0,0,0,1.41.41,2.13,2.13,0,0,0,1.71-2.43,1.73,1.73,0,0,0-.85-1.19A2,2,0,0,0,513.33,144.72Z"/><path class="cls-48" d="M509.47,148.79a1.73,1.73,0,0,0-.38,2.21,1.42,1.42,0,0,0,1,.69,1.77,1.77,0,0,0,1.33-.38,1.59,1.59,0,0,0,.26-2.37A1.73,1.73,0,0,0,509.47,148.79Z"/><path class="cls-49" d="M506.37,153.18a1.33,1.33,0,0,0,1,0,1.27,1.27,0,0,0,.76-.71,1.13,1.13,0,0,0,0-.95,1.3,1.3,0,0,0-1.61-.63,1.2,1.2,0,0,0-.67.62,1.26,1.26,0,0,0-.11.92A1.15,1.15,0,0,0,506.37,153.18Z"/><path class="cls-50" d="M504.64,152.7a1,1,0,0,0-1.95.23,1,1,0,0,0,1.95-.23Z"/><path class="cls-51" d="M497.6,64.94a2.52,2.52,0,0,0-3.21,1.47,2.08,2.08,0,0,0,.15,1.74,2.39,2.39,0,0,0,1.37,1.08,2.35,2.35,0,0,0,1.67-.1,2.3,2.3,0,0,0,1.17-1.21,2.39,2.39,0,0,0,.07-1.73A2,2,0,0,0,497.6,64.94Z"/><path class="cls-52" d="M492.31,68a2,2,0,0,0-1.52.37,1.88,1.88,0,0,0-.45,2.73,2,2,0,0,0,3.43-.87,1.92,1.92,0,0,0-.25-1.43A1.72,1.72,0,0,0,492.31,68Z"/><path class="cls-53" d="M489.38,74.08a1.67,1.67,0,0,0,.09-2.28,1.67,1.67,0,0,0-2.38,2.35A1.69,1.69,0,0,0,489.38,74.08Z"/><path class="cls-54" d="M486.56,76.71a1.27,1.27,0,0,0-.18-1.74,1.25,1.25,0,0,0-1.78.26,1.23,1.23,0,0,0,.24,1.78A1.27,1.27,0,0,0,486.56,76.71Z"/><path class="cls-55" d="M484.22,78a1,1,0,0,0-.94,1.73,1,1,0,0,0,.94-1.73Z"/><path class="cls-56" d="M503.11,63.84a2,2,0,0,0-1.57-.32,2,2,0,0,0-1.35.86,1.74,1.74,0,0,0-.22,1.44,2,2,0,0,0,.89,1.14,2,2,0,0,0,1.37.26,1.94,1.94,0,0,0,1.17-.73,2,2,0,0,0,.43-1.38A1.7,1.7,0,0,0,503.11,63.84Z"/><path class="cls-57" d="M506.8,63.55A1.58,1.58,0,0,0,505,65.07a1.68,1.68,0,0,0,3.32.35,1.41,1.41,0,0,0-.26-1.21A1.8,1.8,0,0,0,506.8,63.55Z"/><path class="cls-58" d="M511,65a1.32,1.32,0,0,0-1,0,1.14,1.14,0,0,0-.64.7,1.32,1.32,0,0,0,.07.94,1.37,1.37,0,0,0,.64.64,1.3,1.3,0,0,0,.91,0,1.27,1.27,0,0,0,.73-.59,1.16,1.16,0,0,0,.07-1A1.32,1.32,0,0,0,511,65Z"/><path class="cls-59" d="M512.65,67.32a1,1,0,0,0,1.56,1.2,1,1,0,0,0-1.56-1.2Z"/><path class="cls-60" d="M336.62,127.49a12.74,12.74,0,0,0-3.09-3.32,5.81,5.81,0,0,0-1.21-.72c-.31-.14-.51-.18-.59-.11s-.09.3,0,.63.18.75.29,1.27a19.75,19.75,0,0,1,.58,3.74,15.93,15.93,0,0,1-.26,3.87c-.22,1.12-.5,2-.62,2.56-.05.28-.08.55-.12.82s0,.54,0,.8a5.39,5.39,0,0,0,.06.8,5.23,5.23,0,0,0,.11.78,6.22,6.22,0,0,0,.51,1.45,3.18,3.18,0,0,0,1,1.13,2.23,2.23,0,0,0,1.43.39,3.25,3.25,0,0,0,1.69-.6,6.48,6.48,0,0,0,2.57-4.18,11.35,11.35,0,0,0-.16-4.27A14.81,14.81,0,0,0,336.62,127.49Z"/><path class="cls-61" d="M353.44,124.43a15.84,15.84,0,0,0-4.55-2.48c-.91-.33-2.42-.74-4.12-1.32a34.39,34.39,0,0,1-5.35-2.34,32,32,0,0,1-4.42-3,9.59,9.59,0,0,0-1.53-1.09c-.42-.2-.67-.27-.74-.19s0,.36.14.75.38,1,.61,1.64a19.79,19.79,0,0,0,3.1,5.16,25.75,25.75,0,0,0,5.17,4.76,21.28,21.28,0,0,0,4.61,2.53,11.2,11.2,0,0,0,5.87.64c1.57-.3,2.61-1,2.81-2S354.58,125.39,353.44,124.43Z"/></g></g></svg>