<svg xmlns="http://www.w3.org/2000/svg" xmlns:xlink="http://www.w3.org/1999/xlink" viewBox="0 0 295.26 299.92"><defs><style>.cls-1{fill:url(#linear-gradient);}.cls-2{fill:url(#linear-gradient-2);}.cls-3{fill:url(#linear-gradient-3);}.cls-4{fill:url(#linear-gradient-4);}.cls-5{fill:url(#linear-gradient-5);}.cls-6{fill:url(#linear-gradient-6);}.cls-7{fill:url(#linear-gradient-7);}.cls-8{fill:url(#linear-gradient-8);}.cls-9{fill:url(#linear-gradient-9);}.cls-10{fill:url(#linear-gradient-10);}.cls-11{fill:url(#linear-gradient-11);}.cls-12{fill:url(#linear-gradient-12);}.cls-13{fill:url(#linear-gradient-13);}.cls-14{fill:url(#linear-gradient-14);}.cls-15{fill:url(#linear-gradient-15);}.cls-16{fill:url(#linear-gradient-16);}.cls-17{fill:url(#linear-gradient-17);}.cls-18{fill:url(#linear-gradient-18);}.cls-19{fill:url(#linear-gradient-19);}.cls-20{fill:url(#linear-gradient-20);}.cls-21{fill:url(#linear-gradient-21);}.cls-22{fill:url(#linear-gradient-22);}.cls-23{fill:url(#linear-gradient-23);}.cls-24{fill:url(#linear-gradient-24);}.cls-25{fill:url(#linear-gradient-25);}</style><linearGradient id="linear-gradient" x1="282.6" y1="21.92" x2="292" y2="21.92" gradientUnits="userSpaceOnUse"><stop offset="0" stop-color="#fef275"/><stop offset="1" stop-color="#bda32b"/></linearGradient><linearGradient id="linear-gradient-2" x1="280.07" y1="16.02" x2="290.42" y2="16.02" xlink:href="#linear-gradient"/><linearGradient id="linear-gradient-3" x1="277.01" y1="13.35" x2="282.09" y2="13.35" xlink:href="#linear-gradient"/><linearGradient id="linear-gradient-4" x1="243.23" y1="33.6" x2="273.95" y2="33.6" xlink:href="#linear-gradient"/><linearGradient id="linear-gradient-5" x1="244.93" y1="42.8" x2="273.33" y2="42.8" xlink:href="#linear-gradient"/><linearGradient id="linear-gradient-6" x1="242.23" y1="57.24" x2="257.46" y2="57.24" xlink:href="#linear-gradient"/><linearGradient id="linear-gradient-7" x1="242.65" y1="41.35" x2="288.9" y2="41.35" xlink:href="#linear-gradient"/><linearGradient id="linear-gradient-8" x1="243.29" y1="39.93" x2="269.84" y2="39.93" xlink:href="#linear-gradient"/><linearGradient id="linear-gradient-9" x1="272.32" y1="25.25" x2="278.42" y2="25.25" xlink:href="#linear-gradient"/><linearGradient id="linear-gradient-10" x1="236.37" y1="59.14" x2="241.85" y2="59.14" xlink:href="#linear-gradient"/><linearGradient id="linear-gradient-11" x1="239.61" y1="48.57" x2="244.34" y2="48.57" xlink:href="#linear-gradient"/><linearGradient id="linear-gradient-12" x1="236.68" y1="71.36" x2="278.03" y2="71.36" xlink:href="#linear-gradient"/><linearGradient id="linear-gradient-13" x1="250.88" y1="190.3" x2="288.08" y2="190.3" xlink:href="#linear-gradient"/><linearGradient id="linear-gradient-14" x1="277.76" y1="272.17" x2="286.04" y2="272.17" xlink:href="#linear-gradient"/><linearGradient id="linear-gradient-15" x1="184.55" y1="120.62" x2="295.26" y2="120.62" xlink:href="#linear-gradient"/><linearGradient id="linear-gradient-16" x1="246.75" y1="140.78" x2="255.02" y2="140.78" xlink:href="#linear-gradient"/><linearGradient id="linear-gradient-17" x1="277.34" y1="234.68" x2="286.17" y2="234.68" xlink:href="#linear-gradient"/><linearGradient id="linear-gradient-18" x1="278.33" y1="228.74" x2="285.1" y2="228.74" xlink:href="#linear-gradient"/><linearGradient id="linear-gradient-19" x1="67.19" y1="24.62" x2="151.26" y2="24.62" xlink:href="#linear-gradient"/><linearGradient id="linear-gradient-20" x1="0" y1="10.17" x2="55.32" y2="10.17" xlink:href="#linear-gradient"/><linearGradient id="linear-gradient-21" x1="133.47" y1="55.49" x2="223.26" y2="55.49" xlink:href="#linear-gradient"/><linearGradient id="linear-gradient-22" x1="154.46" y1="43.91" x2="161.97" y2="43.91" xlink:href="#linear-gradient"/><linearGradient id="linear-gradient-23" x1="61.61" y1="10.57" x2="68.65" y2="10.57" xlink:href="#linear-gradient"/><linearGradient id="linear-gradient-24" x1="69.22" y1="10.77" x2="73.02" y2="10.77" xlink:href="#linear-gradient"/><linearGradient id="linear-gradient-25" x1="223.16" y1="37.71" x2="235.18" y2="37.71" xlink:href="#linear-gradient"/></defs><g id="Layer_2" data-name="Layer 2"><g id="object"><path class="cls-1" d="M290.51,24.51a.72.72,0,0,0,.66-.05,1.57,1.57,0,0,0,.66-.8,2.64,2.64,0,0,0,.1-1.58,3.38,3.38,0,0,0-1-1.67,3.82,3.82,0,0,0-1-.69,4.73,4.73,0,0,0-1.51-.42,5.86,5.86,0,0,0-1.67.07,6.22,6.22,0,0,0-1.54.53,6.78,6.78,0,0,0-1.22.8c-.17.14-.32.28-.46.42l-.37.41-.27.35c-.07.11-.13.22-.17.3s-.12.28-.09.32.14,0,.32-.06l.69-.27.46-.17.51-.15a7,7,0,0,1,1.14-.2,4.68,4.68,0,0,1,1.13,0,4,4,0,0,1,1,.27,2.84,2.84,0,0,1,.64.39l.12.09.09.09.08.07a.46.46,0,0,0,.07.07l.42.4a3.64,3.64,0,0,1,.4.45C289.9,23.87,290.11,24.34,290.51,24.51Z"/><path class="cls-2" d="M288.56,17.13a25.15,25.15,0,0,0-6.25,3.67,0,0,0,0,1-.07,0l-1.77.05a.39.39,0,0,1-.4-.43l.17-1.77a.06.06,0,0,1,0-.07,24.8,24.8,0,0,0,4.12-6s4.85-1.2,5.89-1.42a.12.12,0,0,1,.15.16C290.12,12.38,288.59,17.12,288.56,17.13Z"/><path class="cls-3" d="M277.05,10a.74.74,0,0,1,.1-.66,1.58,1.58,0,0,1,.84-.6,2.69,2.69,0,0,1,1.59,0,3.38,3.38,0,0,1,1.59,1.1,3.81,3.81,0,0,1,.61,1.09,4.63,4.63,0,0,1,.31,1.53,5.58,5.58,0,0,1-.2,1.67,6.11,6.11,0,0,1-.64,1.5,6.69,6.69,0,0,1-.88,1.15c-.16.16-.31.3-.46.43s-.29.24-.43.33a2.9,2.9,0,0,1-.38.24,3.1,3.1,0,0,1-.3.16c-.18.07-.29.1-.32.06s0-.14.07-.31l.33-.67c.06-.13.12-.29.19-.44s.13-.33.2-.51a6.55,6.55,0,0,0,.28-1.12,4.79,4.79,0,0,0,0-1.13,3.87,3.87,0,0,0-.2-1,2.6,2.6,0,0,0-.34-.67,1.25,1.25,0,0,0-.08-.12.44.44,0,0,0-.08-.1l-.07-.09-.06-.07c-.14-.17-.25-.32-.37-.45A3.37,3.37,0,0,0,278,11C277.65,10.67,277.19,10.43,277.05,10Z"/><path class="cls-4" d="M273.94,12.93c0,.17-.16.31-.41.44a5,5,0,0,1-1.06.35l-.74.17-.41.09-.44.1c-.31.05-.62.14-.95.21s-.67.17-1,.28a11.56,11.56,0,0,0-2.09.84,9,9,0,0,0-1,.62c-.16.11-.3.25-.45.37a5.4,5.4,0,0,0-.42.41,7.46,7.46,0,0,0-1.38,2.13,13.45,13.45,0,0,0-.89,2.91,31.7,31.7,0,0,0-.54,4.36C262,28,262,30.14,262,32.46s0,4.83-.11,7.46c-.05.65-.1,1.32-.18,2,0,.34-.08.67-.14,1l0,.26-.05.26c0,.18-.07.36-.11.53a14.5,14.5,0,0,1-1.54,3.9,18.17,18.17,0,0,1-1.1,1.69A18.65,18.65,0,0,1,257.5,51a16.87,16.87,0,0,1-2.82,2.39,14.77,14.77,0,0,1-5.77,2.37c-.45.08-.88.11-1.28.15s-.78,0-1.14,0a9.46,9.46,0,0,1-1-.08c-.3,0-.57-.1-.82-.15a7.05,7.05,0,0,1-1.1-.34c-.24-.1-.36-.17-.35-.21s.15,0,.4,0l1.11.05c.24,0,.5,0,.79,0a7.72,7.72,0,0,0,.92-.09c.33,0,.68-.1,1-.17s.74-.18,1.13-.31a14,14,0,0,0,4.85-2.77,15.52,15.52,0,0,0,2.2-2.36,15.12,15.12,0,0,0,.93-1.38,16.22,16.22,0,0,0,.76-1.5,11.92,11.92,0,0,0,.91-3.22c0-.14,0-.27,0-.41l0-.2v-.22c0-.3,0-.59,0-.89,0-.6,0-1.2,0-1.81-.08-2.43-.32-4.88-.51-7.22s-.32-4.58-.3-6.58A28,28,0,0,1,258,20.9a15.63,15.63,0,0,1,1.36-4A10.8,10.8,0,0,1,262,13.58c.26-.22.54-.42.81-.61a9.27,9.27,0,0,1,.84-.5,10.58,10.58,0,0,1,1.69-.72,11.72,11.72,0,0,1,3.07-.5,11,11,0,0,1,1.3,0,11.25,11.25,0,0,1,1.13.14l.5.09.46.12a6,6,0,0,1,.78.25,3.79,3.79,0,0,1,1,.54C273.86,12.6,274,12.77,273.94,12.93Z"/><path class="cls-5" d="M270,30.46c.17-.12.52.05,1,.48a7.49,7.49,0,0,1,1.57,2.26l.18.43c.07.14.11.3.17.46a8.92,8.92,0,0,1,.26,1,7.8,7.8,0,0,1,.06,2.38,8.06,8.06,0,0,1-.79,2.53,9.66,9.66,0,0,1-1.61,2.27,13.45,13.45,0,0,1-2.76,2.15A18,18,0,0,1,264,46.23a38,38,0,0,1-4.86,1,32.57,32.57,0,0,0-4.7,1,13.81,13.81,0,0,0-2.09.84,12,12,0,0,0-1.8,1.13,22.94,22.94,0,0,0-2.72,2.64c-.39.41-.76.77-1.09,1.08s-.64.56-.89.77c-.54.36-.84.55-.87.51s.21-.31.64-.76l.72-.88c.27-.36.57-.76.89-1.22a22,22,0,0,1,2.49-3.1,13.34,13.34,0,0,1,4.1-2.67A31.85,31.85,0,0,1,258.65,45a40.28,40.28,0,0,0,4.47-1.28A17,17,0,0,0,266.56,42a12.43,12.43,0,0,0,2.12-1.76A7.08,7.08,0,0,0,270.53,37a6.56,6.56,0,0,0,.19-1.62c0-.27,0-.53,0-.78s0-.25-.05-.37l-.06-.36c-.16-.95-.42-1.74-.55-2.33S269.85,30.58,270,30.46Z"/><path class="cls-6" d="M257.41,55.28c.09.11.07.29-.05.53a2.33,2.33,0,0,1-.25.4,5,5,0,0,1-.4.46,8.56,8.56,0,0,1-2.91,1.88,12.4,12.4,0,0,1-3,.69,14.64,14.64,0,0,1-4-.17c-.32,0-.64-.13-1-.19l-.47-.13L245,58.6c-.55-.22-1-.44-1.41-.63l-.95-.41c-.23-.08-.37-.14-.36-.18s.14,0,.4,0a8.18,8.18,0,0,1,1.06.14c.44.09.95.21,1.49.3.13,0,.27,0,.41.06l.41,0c.3,0,.6,0,.91,0a16.13,16.13,0,0,0,3.62-.4,19.41,19.41,0,0,0,2.53-.82c1.1-.44,2.09-.89,2.86-1.19.19-.08.37-.14.53-.19a3.41,3.41,0,0,1,.43-.11C257.14,55.15,257.33,55.17,257.41,55.28Z"/><path class="cls-7" d="M287.56,27.59a.64.64,0,0,1,.49.35,3.73,3.73,0,0,1,.46,1.08,5.23,5.23,0,0,1,.19.8c0,.15.06.3.08.46l.06.51c0,.35.05.73.06,1.14s0,.84-.07,1.3a11.09,11.09,0,0,1-.73,3,9.64,9.64,0,0,1-.83,1.63,8.93,8.93,0,0,1-.57.8c-.21.26-.43.52-.67.77a10.62,10.62,0,0,1-3.5,2.35,15.43,15.43,0,0,1-4.09,1.07,26.8,26.8,0,0,1-5.17.09c-2-.12-4.22-.42-6.54-.77s-4.75-.78-7.17-1c-.6-.06-1.2-.11-1.8-.14-.29,0-.59,0-.88,0H256a11.9,11.9,0,0,0-3.26.67,13.31,13.31,0,0,0-1.55.65c-.5.26-1,.53-1.45.83a15.15,15.15,0,0,0-2.51,2,14,14,0,0,0-3.11,4.62c-.16.38-.28.75-.39,1.1s-.2.69-.26,1-.11.63-.15.91-.06.55-.08.78c0,.48-.05.86-.05,1.11s0,.4-.06.41-.09-.12-.17-.37a6.92,6.92,0,0,1-.25-1.12c0-.25-.07-.53-.08-.83s0-.64,0-1,.05-.73.09-1.14.13-.82.24-1.25a14.82,14.82,0,0,1,2.79-5.58,16.34,16.34,0,0,1,2.58-2.62,17.32,17.32,0,0,1,1.58-1.15,16.53,16.53,0,0,1,1.76-1,14.2,14.2,0,0,1,4-1.26l.54-.06.27,0,.25,0q.51,0,1-.06c.67,0,1.33,0,2,0,2.63,0,5.13.25,7.45.42s4.43.32,6.24.33a32.44,32.44,0,0,0,4.39-.22,14,14,0,0,0,3-.67A7.73,7.73,0,0,0,283,36.26a5.56,5.56,0,0,0,.44-.39c.13-.14.28-.27.4-.42a7.71,7.71,0,0,0,.69-.93,11.52,11.52,0,0,0,1-2c.14-.33.24-.67.36-1s.2-.63.28-.93l.13-.43.12-.41.22-.72a6,6,0,0,1,.43-1C287.24,27.74,287.4,27.6,287.56,27.59Z"/><path class="cls-8" d="M269.79,30.21c-.13.17-.51.12-1.08-.08s-1.35-.48-2.28-.72l-.35-.09-.37-.07c-.25-.05-.51-.07-.77-.1a6.43,6.43,0,0,0-1.63.07A7.12,7.12,0,0,0,260,30.83a12.64,12.64,0,0,0-1.92,2,16.94,16.94,0,0,0-2,3.3,40.41,40.41,0,0,0-1.61,4.37,31.67,31.67,0,0,1-1.88,4.75,13,13,0,0,1-3,3.89,21.3,21.3,0,0,1-3.28,2.27c-.48.28-.9.55-1.27.79s-.68.47-.94.65c-.48.39-.78.61-.81.57a3.38,3.38,0,0,1,.58-.82c.22-.23.5-.52.83-.83s.73-.65,1.17-1a24.12,24.12,0,0,0,2.83-2.52A11.21,11.21,0,0,0,250,46.51a14,14,0,0,0,1-2,34,34,0,0,0,1.33-4.62,37.61,37.61,0,0,1,1.33-4.78,18.64,18.64,0,0,1,2.09-4,12.94,12.94,0,0,1,2.35-2.58,9.34,9.34,0,0,1,2.37-1.44,7.87,7.87,0,0,1,2.59-.61,8.11,8.11,0,0,1,2.37.24,9,9,0,0,1,1,.34c.15.06.31.12.45.19l.4.22a7.71,7.71,0,0,1,2.15,1.73C269.78,29.69,269.92,30.05,269.79,30.21Z"/><path class="cls-9" d="M277.45,27.49a3.06,3.06,0,1,1,.16-4.32A3.07,3.07,0,0,1,277.45,27.49Z"/><path class="cls-10" d="M241,61.14a2.74,2.74,0,1,1,.15-3.87A2.74,2.74,0,0,1,241,61.14Z"/><path class="cls-11" d="M244.25,41.11c.1.09.11.28.05.53a3,3,0,0,1-.14.42,5.57,5.57,0,0,1-.23.52c-.35.75-.88,1.7-1.39,2.76a17.14,17.14,0,0,0-1,2.47,16,16,0,0,0-.65,3.58c0,.3,0,.61,0,.91,0,.14,0,.27,0,.41s0,.28,0,.41c0,.55.13,1.06.18,1.5a6.46,6.46,0,0,1,.06,1.08c0,.26-.05.4-.08.4s-.08-.14-.14-.38-.18-.57-.34-1-.34-.89-.51-1.45c0-.15-.09-.29-.13-.45l-.09-.47c0-.31-.1-.63-.13-1a14.9,14.9,0,0,1,.13-4,12.08,12.08,0,0,1,.9-2.93,8.58,8.58,0,0,1,2.09-2.77c.18-.14.34-.26.49-.36a2.86,2.86,0,0,1,.42-.22C244,41,244.15,41,244.25,41.11Z"/><path class="cls-12" d="M277.83,78.57c-.54.52-2-.08-4-1.28s-4.59-3-7.47-4.67c-.72-.43-1.66-1-2.78-1.59a35.65,35.65,0,0,0-3.91-1.75A29.07,29.07,0,0,0,254.9,68a30.44,30.44,0,0,0-5.14-.49,39.81,39.81,0,0,0-9.09,1.09c-2.38.56-3.91,1-4,.85s1.26-1,3.53-2.15a33.84,33.84,0,0,1,9.31-2.94,29.56,29.56,0,0,1,11.47.44,31.06,31.06,0,0,1,4.77,1.56A30.72,30.72,0,0,1,269.09,68a25.49,25.49,0,0,1,7.27,6.48C277.84,76.51,278.36,78.06,277.83,78.57Z"/><path class="cls-13" d="M272.49,220.77a34.33,34.33,0,0,1,.91-3.7c.39-1.26.83-2.55,1.34-3.85,1-2.62,2.25-5.33,3.48-8.14.61-1.4,1.22-2.82,1.86-4.25s1.28-2.89,1.92-4.35,1.26-3,1.86-4.46,1.17-3,1.68-4.56c.26-.76.49-1.54.72-2.31.13-.38.22-.78.33-1.16s.21-.78.3-1.17c.17-.78.37-1.56.5-2.35.06-.39.15-.79.2-1.18s.11-.79.16-1.18c0-.2.06-.39.07-.59l.05-.59.09-1.18c0-.39,0-.78.05-1.16s0-.77,0-1.16l0-1.16c0-.38,0-.77,0-1.15v-.58l0-.57c0-.39,0-.77-.05-1.15a27.38,27.38,0,0,0-.67-4.52l-.14-.55c-.05-.19-.09-.37-.15-.55-.12-.37-.24-.73-.35-1.09s-.29-.7-.43-1.06c-.07-.17-.15-.34-.24-.52l-.25-.51c-.09-.17-.16-.34-.26-.5l-.29-.5a9.74,9.74,0,0,0-.6-1c-.21-.31-.42-.63-.64-.94l-.7-.9a4.82,4.82,0,0,0-.36-.43c-.12-.14-.24-.29-.37-.43l-.37-.42c-.12-.14-.25-.28-.38-.41l-.78-.81-.41-.39a5.22,5.22,0,0,0-.43-.39l-.45-.38c-.14-.12-.3-.23-.46-.35s-.63-.46-.95-.68a18.38,18.38,0,0,0-2-1.16,20.5,20.5,0,0,0-2.15-.93,19.83,19.83,0,0,0-2.24-.67,20.37,20.37,0,0,0-8.87-.2,17.64,17.64,0,0,0-3.7,1.19,16.85,16.85,0,0,0-2.85,1.65,15.41,15.41,0,0,0-2.18,1.89l-.46.5a3,3,0,0,0-.23.27l-.22.27c-.15.18-.27.36-.4.55l-.2.28-.17.28a11.36,11.36,0,0,0-1.06,2.31,12.2,12.2,0,0,0-.55,2.32,14,14,0,0,0,.72,6.58c.11.34.26.67.4,1,.07.17.16.33.23.49s.16.33.25.48l.26.48c.1.15.2.3.29.46l.15.22.16.23.31.44.35.42.17.21.19.21.37.4.4.38.41.38c.14.12.28.24.43.35.3.23.59.46.91.66a14.28,14.28,0,0,0,2,1.09l.54.22.26.1.28.09.55.18.57.14.28.07.29.06.57.1.58.06.29,0h.29l.57,0h.86l.28,0,.56-.05.55-.08.27,0,.27-.05.53-.12.51-.14.25-.07.24-.08.49-.17.46-.19.23-.1.22-.1.43-.21.41-.24c.27-.14.51-.32.76-.48a8.62,8.62,0,0,0,2.24-2.23,6.16,6.16,0,0,0,1-2.31,4.89,4.89,0,0,0,0-2,1.43,1.43,0,0,0,0-.22l-.06-.21-.11-.39c-.11-.24-.2-.47-.3-.67l-.33-.56-.13-.17a3.15,3.15,0,0,0-3.37-2.19c-1.93.05-3.53,1.31-3.58,2.82s1.49,2.7,3.42,2.65a3.79,3.79,0,0,0,3.34-1.89c0,.07,0,.13,0,.2s0,.24.05.36l0,.19v.2a5,5,0,0,1-.22,1.73,5.91,5.91,0,0,1-1,1.9,7.87,7.87,0,0,1-2,1.77,6,6,0,0,1-.66.38l-.35.17-.36.17-.19.08-.19.07-.39.14-.4.12-.21.06-.21,0-.42.1-.43.08-.22,0-.22,0-.45.05-.45,0h-.91l-.46,0-.24,0-.22,0-.47-.07-.45-.1-.23,0-.23-.06-.45-.13-.45-.16-.22-.08-.21-.09-.44-.19a11.46,11.46,0,0,1-5.3-5.22c-.07-.14-.14-.29-.2-.43s-.14-.29-.2-.44c-.11-.3-.24-.59-.33-.9a12,12,0,0,1-.48-1.88,12.63,12.63,0,0,1-.06-4,10.24,10.24,0,0,1,.49-2,9.05,9.05,0,0,1,.9-1.92l.14-.24.16-.22c.11-.15.21-.3.33-.44l.17-.22c.06-.07.12-.15.19-.22l.4-.43a13.32,13.32,0,0,1,1.83-1.58,13.89,13.89,0,0,1,5.35-2.34,16.91,16.91,0,0,1,3.57-.34c.31,0,.63,0,1,0s.64.06,1,.08c.65.09,1.3.2,1.95.35a19.67,19.67,0,0,1,1.95.57,17,17,0,0,1,1.88.79,16.55,16.55,0,0,1,1.8,1c.28.19.57.38.84.59s.28.2.41.31l.4.32.38.34.37.35.75.75.37.38.35.4.35.39c.12.14.24.27.35.41l.66.83c.21.28.41.57.61.86a10.17,10.17,0,0,1,.57.88l.27.46a5.2,5.2,0,0,1,.25.46l.24.47c.08.15.16.31.23.47l.41,1c.12.33.23.66.35,1,.06.16.1.33.15.51s.09.34.14.51a26,26,0,0,1,.71,4.28c0,.37.05.74.07,1.11l0,.56v.56l0,1.12v.5a2,2,0,0,0-.21.36,5.79,5.79,0,0,0-.42,1.54c-.1.6-.32,1.27-.51,2a35.06,35.06,0,0,1-1.87,5.13c-.9,1.87-2,3.93-3.19,6.09-1.59,2.95-3,5.73-4.08,8.15-.52,1.22-1,2.33-1.34,3.33-.18.49-.34.95-.5,1.38l-.35,1.18c-.15.35-.31.73-.5,1.15s-.35.88-.54,1.37c-.38,1-.81,2.11-1.24,3.34a36.41,36.41,0,0,0-2,8.59,21.74,21.74,0,0,0,0,3.42c0,.55.13,1.09.19,1.62,0,.26.1.52.15.77s.09.51.17.76a18.06,18.06,0,0,0,2,4.55c.06.28.12.56.19.83-.38-.55-.81-1.19-1.24-1.94l-.28-.5-.28-.52c-.2-.36-.37-.74-.56-1.13-.36-.8-.72-1.64-1-2.55a22.6,22.6,0,0,1-.79-2.89,12.69,12.69,0,0,1-.21-1.54c0-.27,0-.53,0-.8s0-.55,0-.82a37.65,37.65,0,0,1,1-8.21c.54-2.4,1.11-4.39,1.52-5.75.31-.67.67-1.48,1.14-2.41s1-2,1.55-3.13,1.29-2.37,2-3.68l2.33-4.07c.61-1,1.2-2.05,1.76-3s1.19-1.86,1.8-2.72,1.2-1.69,1.73-2.47,1-1.53,1.39-2.22a13.53,13.53,0,0,0,1.41-3.39l.11-.55c0-.16,0-.29.05-.4l0-.33-.09.33c0,.1-.07.23-.11.39s-.13.33-.2.53a16.14,16.14,0,0,1-1.8,3.2c-.47.65-1,1.36-1.59,2.1l-1.91,2.39a31.29,31.29,0,0,0-2,2.75c-.6,1-1.21,2-1.82,3-.83,1.41-1.55,2.81-2.26,4.13s-1.23,2.6-1.76,3.77-.88,2.28-1.25,3.23-.61,1.8-.82,2.49a50.18,50.18,0,0,0-2.18,5.69A28.38,28.38,0,0,0,266,215.8c0,.29,0,.57,0,.85s0,.56.07.84a12.58,12.58,0,0,0,.26,1.63,19.74,19.74,0,0,0,1,3,25.44,25.44,0,0,0,1.27,2.56c.24.38.45.76.69,1.11l.34.52.35.48a19.75,19.75,0,0,0,2.07,2.44,11.36,11.36,0,0,0,.52,1.3,7,7,0,0,0,1.39,1.95,2.53,2.53,0,0,1,.37-.18l.07,0a6.39,6.39,0,0,1-1.28-1.92c0-.07-.06-.14-.08-.2l.19.15.16.14.51.79.6,1h0l-.43-1c-.19-.39-.41-.87-.67-1.42l-.91-1.88c-.08-.16-.15-.33-.23-.51A20.46,20.46,0,0,1,272.49,220.77Zm.34,8.72.23.35.28.44,0-.05c-.09-.09-.2-.22-.33-.37S272.88,229.61,272.83,229.49Zm-1.48-4.61a15.44,15.44,0,0,1-.52-2c-.07-.24-.08-.49-.13-.73s-.07-.5-.1-.76c0-.51-.11-1-.12-1.56a26.49,26.49,0,0,1,.08-3.31,50.51,50.51,0,0,1,1.61-8.46c.32-1.24.63-2.37.9-3.37.14-.5.26-1,.38-1.4s.25-.82.35-1.17.31-.73.5-1.14l.65-1.35c.45-1,1-2,1.64-3.22,1.26-2.35,2.81-5.07,4.4-8a66.25,66.25,0,0,0,3-6.22,27.05,27.05,0,0,0,1.46-5.31,17.67,17.67,0,0,0,.26-2.05,6.3,6.3,0,0,1,.2-1.52,0,0,0,0,0,0,0v.27c0,.38,0,.76,0,1.14l0,1.14-.06,1.14,0,.57c0,.19,0,.38-.06.57l-.12,1.14c-.05.38-.12.76-.18,1.14-.11.77-.28,1.53-.43,2.29-.08.38-.18.76-.27,1.14s-.18.77-.29,1.14c-.22.76-.42,1.52-.67,2.28-.46,1.51-1,3-1.54,4.51s-1.15,3-1.75,4.45-1.21,2.92-1.81,4.37-1.19,2.88-1.76,4.28c-1.15,2.81-2.32,5.55-3.27,8.21-.48,1.33-.9,2.64-1.25,3.93a34.23,34.23,0,0,0-.82,3.78A23.83,23.83,0,0,0,271.35,224.88Z"/><path class="cls-14" d="M286,244.74s-5.7,1.78-8.28-.32c0,0,6.36,32.65,6.1,55.5Z"/><path class="cls-15" d="M248.52,143.31l.46.16.57.21a7.12,7.12,0,0,0,.8.24l1,.25,1.28.18a4.26,4.26,0,0,0,.73.05l.78,0c.54,0,1.12-.06,1.73-.09l.94-.15.49-.08.49-.12,1-.28,1-.38a16.17,16.17,0,0,0,4.23-2.53,15.65,15.65,0,0,0,3.63-4.44,11.45,11.45,0,0,0,.68-1.41,10.63,10.63,0,0,0,.56-1.49l.26-.78a6.67,6.67,0,0,0,.19-.8c.06-.27.13-.54.19-.81a7.76,7.76,0,0,0,.15-.84,20,20,0,0,0-3.33-14.34c-.38-.56-.83-1.09-1.26-1.65s-.95-1-1.44-1.53-1.08-.95-1.64-1.4l-.89-.63a9.06,9.06,0,0,0-.92-.6l-1-.55a8.48,8.48,0,0,0-1-.5l-1-.45-.52-.22-.53-.17c-.71-.22-1.42-.48-2.16-.66l-2.24-.46a25.48,25.48,0,0,0-25.49,11.78c-.45.75-.84,1.54-1.27,2.31s-.68,1.63-1,2.45a32.24,32.24,0,0,0-1.37,5.08,31.15,31.15,0,0,0,17.07,33.53A36.06,36.06,0,0,0,251,165.39a37.65,37.65,0,0,0,10.6-.27,37,37,0,0,0,9.05-2.74,36.52,36.52,0,0,0,7.08-4.17,37.81,37.81,0,0,0,5.09-4.61,35.61,35.61,0,0,0,4.58-5.12,36.29,36.29,0,0,0,4.12-7.12,46.36,46.36,0,0,0,2-30.84c-.12-.48-.28-1-.43-1.44s-.3-1-.48-1.44c-.36-1-.69-1.93-1.12-2.87a46.35,46.35,0,0,0-2.85-5.62,46.63,46.63,0,0,0-8.23-10.23,46.31,46.31,0,0,0-11.28-7.81c-.76-.4-1.55-.74-2.33-1.08s-1.58-.64-2.37-.94-1.59-.55-2.38-.81l-1.18-.38-1.2-.33A52.79,52.79,0,0,0,250,75.78a45,45,0,0,0-9.51.17,46.35,46.35,0,0,0-8.86,2,66,66,0,0,0-14.76,7.36,139.68,139.68,0,0,0-11.39,8.39c-3.35,2.71-6.3,5.24-8.87,7.48s-4.76,4.19-6.55,5.78l-5.55,5s2.16-1.55,6-4.39l7-5.18c2.74-2,5.86-4.31,9.35-6.75s7.37-5,11.67-7.51a66.25,66.25,0,0,1,14.26-6.3A44,44,0,0,1,241,80.26a42,42,0,0,1,8.6.07,51.36,51.36,0,0,1,8.79,1.79l1.1.31,1.1.37c.73.25,1.49.47,2.19.76s1.44.53,2.14.86,1.41.61,2.1,1a44.46,44.46,0,0,1,17.86,16.06,45.13,45.13,0,0,1,2.76,5c.42.85.75,1.72,1.12,2.58.17.43.32.87.48,1.31s.32.86.45,1.3a44.94,44.94,0,0,1,2.06,10.41,45.46,45.46,0,0,1-2.41,18.42A36.36,36.36,0,0,1,282,152.78a36.71,36.71,0,0,1-12.23,7.45,35.87,35.87,0,0,1-18.27,1.7,33.45,33.45,0,0,1-9.9-3.29,27.44,27.44,0,0,1-8.45-6.95,27.78,27.78,0,0,1-5.22-10.24,27.32,27.32,0,0,1-.51-11.92,30.19,30.19,0,0,1,1.15-4.32c.28-.66.53-1.34.83-2s.65-1.28,1-1.9a21.52,21.52,0,0,1,13.06-9.69,21.79,21.79,0,0,1,7.85-.56l1.9.32c.63.12,1.24.32,1.85.48a17.66,17.66,0,0,1,3.41,1.39,7.6,7.6,0,0,1,.78.46l.76.48c.48.35.94.73,1.41,1.08s.86.81,1.27,1.22.78.86,1.13,1.32a17.59,17.59,0,0,1,3.6,12.14,6,6,0,0,1-.09.74c0,.25-.07.49-.11.74a6,6,0,0,1-.12.72l-.18.7a9.72,9.72,0,0,1-.39,1.36,12,12,0,0,1-.5,1.27,14.18,14.18,0,0,1-2.92,4.2,15,15,0,0,1-3.67,2.64l-.93.44-.93.34a4,4,0,0,1-.45.16l-.45.12-.87.23c-.58.08-1.13.2-1.64.23l-.76,0a4.24,4.24,0,0,1-.71,0l-1.26,0-1-.14a5,5,0,0,1-.81-.16l-.58-.14Z"/><path class="cls-16" d="M253.82,144.24c4.23-5.07-3.9-10-6.65-5.39-1.9,3.21,3.11,7.2,6.2,5.14Z"/><path class="cls-17" d="M286.13,237a1.71,1.71,0,0,1-1.22,1.15,4,4,0,0,1-2.46-.06,8.22,8.22,0,0,1-2-1,8.31,8.31,0,0,1-2.22-2.24,5.36,5.36,0,0,1-.87-2.57,3.07,3.07,0,0,1,.07-.82c0-.19.1-.3.16-.31s.36.33.73.78a5.6,5.6,0,0,0,1.58,1.28,16.91,16.91,0,0,0,3.76,1.15,4.7,4.7,0,0,1,1.89,1.1A1.69,1.69,0,0,1,286.13,237Z"/><path class="cls-18" d="M284.89,227.21a1.15,1.15,0,0,1,.13,1.11,2.7,2.7,0,0,1-1,1.31,6.14,6.14,0,0,1-1.36.66,5.47,5.47,0,0,1-2.08.31,3.64,3.64,0,0,1-1.73-.55c-.38-.27-.55-.5-.52-.57s.32-.06.71-.08a3.94,3.94,0,0,0,1.32-.35,11.24,11.24,0,0,0,2.1-1.57,3.26,3.26,0,0,1,1.35-.58A1.11,1.11,0,0,1,284.89,227.21Z"/><path class="cls-19" d="M72.28,20.2,71.77,20,69.92,19l-1.4-.71-1-.46,0,0,1,.63.78.53.13.17a1.57,1.57,0,0,1,.15.19l-.2-.09A6.39,6.39,0,0,1,67.42,18l0,.07a3.07,3.07,0,0,1-.2.36,7,7,0,0,0,1.92,1.45,10.64,10.64,0,0,0,1.29.55,19.28,19.28,0,0,0,2.38,2.13l.47.37.51.35c.34.25.71.47,1.09.72a23.8,23.8,0,0,0,2.52,1.33,18.53,18.53,0,0,0,2.94,1.05,14.48,14.48,0,0,0,1.62.31l.84.09.85,0A28.28,28.28,0,0,0,92,25.62a47.69,47.69,0,0,0,5.75-2c.69-.19,1.54-.42,2.51-.76s2.06-.72,3.26-1.16S106,20.61,107.38,20s2.75-1.36,4.19-2.14l3.07-1.75a30.4,30.4,0,0,0,2.8-1.9l2.44-1.85c.76-.58,1.48-1.09,2.14-1.53a16.15,16.15,0,0,1,3.25-1.72c.2-.07.38-.14.54-.18l.39-.1.33-.09-.33,0-.4,0-.55.11a13.17,13.17,0,0,0-3.43,1.31c-.7.38-1.45.82-2.25,1.33s-1.64,1.08-2.52,1.67-1.8,1.19-2.77,1.72l-3.07,1.68-4.13,2.22c-1.33.66-2.58,1.3-3.73,1.89s-2.23,1-3.17,1.47-1.77.78-2.44,1.07c-1.37.37-3.38.9-5.79,1.37a37.36,37.36,0,0,1-8.23.78c-.28,0-.55,0-.82,0l-.8-.07a15,15,0,0,1-1.54-.25,22.18,22.18,0,0,1-2.86-.86c-.9-.34-1.74-.73-2.52-1.1-.39-.21-.76-.39-1.12-.59l-.52-.3-.49-.29c-.73-.45-1.37-.89-1.9-1.29.27.07.54.15.82.21a17.72,17.72,0,0,0,4.5,2.08,6.87,6.87,0,0,0,.75.19l.77.17c.53.08,1.06.19,1.61.23a21.63,21.63,0,0,0,3.43.07,35.86,35.86,0,0,0,8.63-1.76C92.91,21.44,94,21,95,20.68c.5-.18,1-.34,1.39-.51l1.16-.47,1.19-.32,1.4-.46c1-.31,2.12-.76,3.35-1.24,2.45-1,5.27-2.36,8.26-3.87,2.19-1.12,4.28-2.18,6.18-3A36.11,36.11,0,0,1,123.13,9c.75-.17,1.42-.37,2-.45a6.14,6.14,0,0,0,1.56-.38,3.07,3.07,0,0,0,.36-.2h.5l1.12.06.56,0,.56.05c.37,0,.74.05,1.1.1a25.67,25.67,0,0,1,4.26.82l.51.16a4.32,4.32,0,0,1,.51.16l1,.38,1,.43c.16.07.32.16.47.24l.46.26a4.17,4.17,0,0,1,.46.26l.45.28c.29.19.59.37.87.59s.57.41.84.64l.81.68c.14.11.27.23.4.35l.38.37.39.36c.13.12.25.25.37.38l.73.76.34.39c.11.13.23.25.33.39l.31.4c.11.14.2.28.3.42s.38.57.56.86a15.8,15.8,0,0,1,1,1.82,19.3,19.3,0,0,1,.74,1.91,17.12,17.12,0,0,1,.51,2,16.74,16.74,0,0,1,.3,1.95c0,.33.06.65.07,1s0,.64,0,.95a16.67,16.67,0,0,1-.44,3.56,14.28,14.28,0,0,1-1.06,3,13.13,13.13,0,0,1-1.42,2.3A12.71,12.71,0,0,1,144.65,38l-.44.39a1.74,1.74,0,0,1-.22.18l-.22.17c-.14.12-.3.21-.45.32l-.23.15-.24.13a9.82,9.82,0,0,1-1.94.86,11.2,11.2,0,0,1-2,.43,12.53,12.53,0,0,1-4-.16,11.78,11.78,0,0,1-1.87-.53c-.3-.1-.6-.23-.89-.36l-.43-.2-.43-.22a11.48,11.48,0,0,1-5.08-5.43l-.18-.44L126,33.1l-.07-.23-.15-.45c0-.15-.07-.3-.11-.45l-.06-.23a1.57,1.57,0,0,1,0-.23l-.09-.46c0-.15,0-.31-.05-.46l0-.23a1.93,1.93,0,0,1,0-.24l0-.46c0-.15,0-.3,0-.46V29l0-.22,0-.45c0-.15,0-.3.07-.45l0-.22,0-.22.09-.43.11-.42c0-.06,0-.13.05-.2l.07-.2.13-.41c.05-.12.1-.25.16-.38l.07-.19.09-.18c0-.12.11-.25.17-.37l.18-.34a7.06,7.06,0,0,1,.4-.65,7.92,7.92,0,0,1,1.82-2,6.14,6.14,0,0,1,1.93-1,4.66,4.66,0,0,1,1.74-.17h.19l.19,0,.36.05.2.06a3.77,3.77,0,0,0-2,3.28c-.09,1.93,1.05,3.49,2.56,3.48S136.85,25.88,137,24a3.14,3.14,0,0,0-2.09-3.43l-.18-.14-.54-.34c-.2-.11-.43-.2-.67-.31l-.39-.13-.2-.07-.22,0a5.18,5.18,0,0,0-2,0,6.32,6.32,0,0,0-2.33.93,8.34,8.34,0,0,0-2.29,2.18c-.17.24-.35.48-.51.75l-.24.4-.22.43-.12.21-.1.23-.2.45-.18.48-.09.25c0,.08-.05.16-.08.25l-.15.5c0,.18-.09.35-.13.53l-.06.26c0,.09,0,.18,0,.27l-.09.55-.06.56,0,.28,0,.28c0,.19,0,.38,0,.57s0,.39,0,.58a2.81,2.81,0,0,0,0,.29l0,.29c0,.19,0,.38,0,.58l.09.57c0,.1,0,.2,0,.29l.07.29.12.57.17.55.08.28.1.27.2.54a13.38,13.38,0,0,0,1,2c.19.33.41.62.63.93.11.15.23.29.35.44a3.62,3.62,0,0,0,.36.42l.37.41.39.38.2.19.21.18.41.36.44.33.21.16.23.15c.15.1.3.21.45.3l.47.28a4.31,4.31,0,0,0,.47.26l.48.24c.33.15.66.31,1,.43a13.49,13.49,0,0,0,2.08.63,13.91,13.91,0,0,0,4.48.26,13,13,0,0,0,2.33-.48,10.75,10.75,0,0,0,2.33-1l.29-.16.28-.18c.19-.13.38-.25.57-.4l.27-.21a2,2,0,0,0,.27-.22l.52-.45A16,16,0,0,0,147.75,38a17,17,0,0,0,1.72-2.8,17.21,17.21,0,0,0,1.29-3.67,21.12,21.12,0,0,0-.58-11.13,21.35,21.35,0,0,0-.87-2.17,17.88,17.88,0,0,0-1.11-2.07c-.21-.32-.42-.65-.65-1l-.34-.47c-.13-.15-.25-.3-.37-.46s-.25-.29-.37-.43-.26-.3-.39-.43l-.78-.8-.4-.39-.42-.38-.41-.39-.43-.37-.88-.72c-.3-.23-.61-.44-.92-.67s-.63-.42-1-.62l-.48-.3c-.16-.1-.34-.18-.5-.27l-.51-.27c-.17-.09-.34-.18-.51-.25l-1-.45-1.07-.39a5,5,0,0,0-.55-.16l-.55-.16a27.15,27.15,0,0,0-4.5-.78L130,6l-.58,0-.57,0-1.16,0H125.4l-1.17,0L123.05,6l-.59,0c-.2,0-.39,0-.59.06l-1.18.13c-.4,0-.79.11-1.19.17-.79.11-1.57.29-2.36.44-.39.07-.78.18-1.18.27s-.78.18-1.17.29c-.78.22-1.56.42-2.33.67-1.55.46-3.08,1-4.6,1.55s-3,1.15-4.5,1.75L99,13.14l-4.31,1.75c-2.84,1.15-5.57,2.31-8.22,3.26-1.32.48-2.62.89-3.89,1.24a36.12,36.12,0,0,1-3.72.81A20.46,20.46,0,0,1,72.28,20.2Zm-2.53-.72-.37-.34,0,0,.43.29.35.24Zm9.1,1.62a36.53,36.53,0,0,0,3.8-.71c1.3-.33,2.62-.71,4-1.15,2.69-.89,5.45-2,8.29-3.06l4.33-1.64,4.42-1.69q2.22-.86,4.49-1.63c1.51-.51,3-1,4.55-1.43.76-.23,1.53-.41,2.29-.61.38-.1.77-.17,1.15-.26s.76-.17,1.15-.24c.77-.13,1.53-.28,2.3-.37l1.14-.15,1.15-.09.57-.05H123l1.14,0h1.14l1.14,0h.24a6.5,6.5,0,0,1-1.52.16,19.37,19.37,0,0,0-2.07.2,28.18,28.18,0,0,0-5.33,1.32,65.25,65.25,0,0,0-6.3,2.87c-3,1.51-5.76,3-8.14,4.19-1.2.57-2.29,1.13-3.26,1.55l-1.36.62-1.16.47-1.18.31-1.41.35-3.39.81a50.16,50.16,0,0,1-8.5,1.38,24.33,24.33,0,0,1-3.31,0c-.54,0-1-.1-1.56-.15L77.43,22c-.25-.05-.5-.07-.73-.14a15.32,15.32,0,0,1-2-.58A23.61,23.61,0,0,0,78.85,21.1Z"/><path class="cls-20" d="M55.21,6s-1.92,5.64.11,8.28c0,0-32.47-7.21-55.32-7.56Z"/><path class="cls-21" d="M155.62,46.2s0-.16-.1-.47l-.12-.59a5.65,5.65,0,0,1-.13-.82c0-.31-.08-.66-.12-1s0-.81,0-1.26a5.74,5.74,0,0,1,0-.71c0-.24,0-.49.07-.75,0-.52.18-1.06.28-1.64l.25-.86c0-.15.08-.3.13-.45a4.13,4.13,0,0,1,.17-.45c.12-.3.24-.6.36-.92s.31-.6.47-.92a15.43,15.43,0,0,1,2.73-3.6,14.24,14.24,0,0,1,4.28-2.8,13,13,0,0,1,1.28-.47,10,10,0,0,1,1.38-.36l.7-.16c.24-.06.48-.06.73-.1l.73-.09a4.65,4.65,0,0,1,.75-.06,17.52,17.52,0,0,1,12,3.91c.44.36.85.78,1.29,1.16s.78.87,1.18,1.31.71.94,1,1.44l.46.77a6.85,6.85,0,0,1,.44.79,18,18,0,0,1,1.31,3.44c.14.62.32,1.23.43,1.86s.18,1.27.26,1.91a21.82,21.82,0,0,1-.76,7.84,21.58,21.58,0,0,1-10,12.79c-.63.35-1.29.64-1.93,1s-1.35.51-2,.77a29,29,0,0,1-4.35,1,27.37,27.37,0,0,1-11.9-.83,27.46,27.46,0,0,1-16.83-14.11,33.55,33.55,0,0,1-3-10,35.9,35.9,0,0,1,2.18-18.23,36.74,36.74,0,0,1,7.77-12,36.19,36.19,0,0,1,12.46-7,45.16,45.16,0,0,1,28.83.41c.43.14.86.32,1.29.49l1.29.51c.85.39,1.72.75,2.55,1.19a46,46,0,0,1,5,2.89A44.37,44.37,0,0,1,214,29.24c.35.69.63,1.41.92,2.13s.54,1.43.8,2.16.47,1.46.7,2.2l.34,1.11.29,1.11a51.24,51.24,0,0,1,1.55,8.84,42.36,42.36,0,0,1-.16,8.59,43.68,43.68,0,0,1-1.79,8.08A65.65,65.65,0,0,1,210,77.55c-2.58,4.23-5.28,8-7.81,11.46s-4.9,6.49-7,9.18l-5.37,6.89c-2.94,3.78-4.54,5.9-4.54,5.9l5.11-5.42c1.64-1.75,3.65-3.88,6-6.39s4.91-5.39,7.7-8.67a140,140,0,0,0,8.69-11.17,65.91,65.91,0,0,0,7.74-14.56,46,46,0,0,0,2.28-8.8,44.81,44.81,0,0,0,.42-9.51,52.75,52.75,0,0,0-1.54-9.67l-.3-1.21L221,34.39c-.24-.8-.44-1.6-.74-2.4s-.54-1.61-.88-2.39-.63-1.59-1-2.36a46.74,46.74,0,0,0-7.51-11.48,49.86,49.86,0,0,0-4.77-4.66,48.68,48.68,0,0,0-5.24-3.83,45.31,45.31,0,0,0-5.55-3c-.93-.46-1.89-.82-2.83-1.2-.48-.19-1-.35-1.44-.52s-.94-.33-1.43-.47A46.34,46.34,0,0,0,167.75.71,45.63,45.63,0,0,0,158.7,3.3a36.58,36.58,0,0,0-12.46,8.37,37.27,37.27,0,0,0-4.74,5,35.88,35.88,0,0,0-4.35,7,37.46,37.46,0,0,0-3.53,19.56,35.72,35.72,0,0,0,2.87,11.29,31.17,31.17,0,0,0,33.07,18,32.53,32.53,0,0,0,5.11-1.23c.83-.32,1.67-.62,2.48-1s1.58-.78,2.34-1.21a25.41,25.41,0,0,0,7.64-6.85,25.75,25.75,0,0,0,4.23-8.92,25.42,25.42,0,0,0,.58-9.4c-.14-.76-.27-1.51-.41-2.25s-.4-1.46-.6-2.18l-.15-.53-.21-.53-.42-1a7.77,7.77,0,0,0-.48-1l-.51-1a8.25,8.25,0,0,0-.59-.94l-.6-.91c-.43-.57-.9-1.12-1.35-1.67s-1-1-1.5-1.49-1.06-.9-1.62-1.3a20,20,0,0,0-14.24-3.7,5.66,5.66,0,0,0-.84.13l-.82.16c-.27.06-.55.09-.81.17L166,26a11.71,11.71,0,0,0-1.51.52,10.8,10.8,0,0,0-1.42.65,15.62,15.62,0,0,0-4.54,3.51,15.85,15.85,0,0,0-2.63,4.16c-.15.35-.28.69-.42,1l-.3,1c0,.17-.1.33-.13.49s-.07.33-.1.49c-.06.31-.12.62-.17.93,0,.61-.14,1.18-.14,1.73,0,.27,0,.53,0,.78a5.78,5.78,0,0,0,0,.73c.06.47.09.89.15,1.28s.16.74.22,1a7.64,7.64,0,0,0,.22.81c.08.22.14.42.19.57Z"/><path class="cls-22" d="M154.83,40.88c5.19-4.1,9.91,4.17,5.22,6.79-3.26,1.82-7.12-3.3-5-6.33Z"/><path class="cls-23" d="M63,6.13a1.72,1.72,0,0,1,1.56.64,4.75,4.75,0,0,1,1,1.92,17,17,0,0,0,1.06,3.77,5.82,5.82,0,0,0,1.24,1.61c.43.38.78.64.75.77s-.12.1-.31.14a3.24,3.24,0,0,1-.81,0A5.29,5.29,0,0,1,65,14.08a8,8,0,0,1-2.19-2.26,8,8,0,0,1-1-2,4,4,0,0,1,0-2.46A1.76,1.76,0,0,1,63,6.13Z"/><path class="cls-24" d="M72.71,7.64A1.12,1.12,0,0,1,73,8.73a3.21,3.21,0,0,1-.62,1.33,11.12,11.12,0,0,0-1.6,2.06,3.7,3.7,0,0,0-.38,1.31c0,.38,0,.67-.12.7S70,14,69.73,13.6a3.63,3.63,0,0,1-.5-1.74,5.21,5.21,0,0,1,.35-2.07,5.36,5.36,0,0,1,.69-1.34,2.74,2.74,0,0,1,1.33-1A1.17,1.17,0,0,1,72.71,7.64Z"/><path class="cls-25" d="M223.43,16.79c.57-.46,2,.26,3.86,2a25.51,25.51,0,0,1,5.51,8,30.21,30.21,0,0,1,1.25,3.52,31.15,31.15,0,0,1,.95,4.92,28.64,28.64,0,0,1,.08,5.72A30.69,30.69,0,0,1,234,46.68a33.7,33.7,0,0,1-4.09,8.87c-1.4,2.11-2.49,3.29-2.61,3.21s.52-1.53,1.37-3.83A39.38,39.38,0,0,0,230.92,46a30.7,30.7,0,0,0,.15-5.16,29.54,29.54,0,0,0-.71-4.88,35.8,35.8,0,0,0-1.25-4.09c-.46-1.19-.89-2.2-1.24-3-1.34-3.07-2.76-5.84-3.69-8S222.84,17.26,223.43,16.79Z"/></g></g></svg>