<svg xmlns="http://www.w3.org/2000/svg" xmlns:xlink="http://www.w3.org/1999/xlink" viewBox="0 0 513.73 134.66"><defs><style>.cls-1{fill:url(#linear-gradient);}.cls-2{fill:url(#linear-gradient-2);}.cls-3{fill:url(#linear-gradient-3);}.cls-4{fill:url(#linear-gradient-4);}.cls-5{fill:url(#linear-gradient-5);}.cls-6{fill:url(#linear-gradient-6);}.cls-7{fill:url(#linear-gradient-7);}.cls-8{fill:url(#linear-gradient-8);}.cls-9{fill:url(#linear-gradient-9);}.cls-10{fill:url(#linear-gradient-10);}.cls-11{fill:url(#linear-gradient-11);}.cls-12{fill:url(#linear-gradient-12);}.cls-13{fill:url(#linear-gradient-13);}.cls-14{fill:url(#linear-gradient-14);}.cls-15{fill:url(#linear-gradient-15);}.cls-16{fill:url(#linear-gradient-16);}.cls-17{fill:url(#linear-gradient-17);}.cls-18{fill:url(#linear-gradient-18);}.cls-19{fill:url(#linear-gradient-19);}.cls-20{fill:url(#linear-gradient-20);}.cls-21{fill:url(#linear-gradient-21);}</style><linearGradient id="linear-gradient" x1="247.94" y1="118.86" x2="267.64" y2="118.86" gradientUnits="userSpaceOnUse"><stop offset="0" stop-color="#fef275"/><stop offset="1" stop-color="#bd812b"/></linearGradient><linearGradient id="linear-gradient-2" x1="254.89" y1="101" x2="260.7" y2="101" xlink:href="#linear-gradient"/><linearGradient id="linear-gradient-3" x1="250.09" y1="89.79" x2="265.49" y2="89.79" xlink:href="#linear-gradient"/><linearGradient id="linear-gradient-4" x1="160.83" y1="55.1" x2="223.26" y2="55.1" xlink:href="#linear-gradient"/><linearGradient id="linear-gradient-5" x1="89.06" y1="39.07" x2="231.16" y2="39.07" xlink:href="#linear-gradient"/><linearGradient id="linear-gradient-6" x1="190.13" y1="44.61" x2="202.29" y2="44.61" xlink:href="#linear-gradient"/><linearGradient id="linear-gradient-7" x1="202.48" y1="45.76" x2="210.49" y2="45.76" xlink:href="#linear-gradient"/><linearGradient id="linear-gradient-8" x1="173.82" y1="43.27" x2="187.91" y2="43.27" xlink:href="#linear-gradient"/><linearGradient id="linear-gradient-9" x1="0.85" y1="56.67" x2="272.96" y2="56.67" xlink:href="#linear-gradient"/><linearGradient id="linear-gradient-10" x1="0" y1="100.96" x2="23.44" y2="100.96" xlink:href="#linear-gradient"/><linearGradient id="linear-gradient-11" x1="15.17" y1="93.01" x2="40.4" y2="93.01" xlink:href="#linear-gradient"/><linearGradient id="linear-gradient-12" x1="32.98" y1="85.93" x2="49.57" y2="85.93" xlink:href="#linear-gradient"/><linearGradient id="linear-gradient-13" x1="290.47" y1="55.1" x2="352.9" y2="55.1" xlink:href="#linear-gradient"/><linearGradient id="linear-gradient-14" x1="282.57" y1="39.07" x2="424.66" y2="39.07" xlink:href="#linear-gradient"/><linearGradient id="linear-gradient-15" x1="311.44" y1="44.61" x2="323.59" y2="44.61" xlink:href="#linear-gradient"/><linearGradient id="linear-gradient-16" x1="303.24" y1="45.76" x2="311.25" y2="45.76" xlink:href="#linear-gradient"/><linearGradient id="linear-gradient-17" x1="325.81" y1="43.27" x2="339.91" y2="43.27" xlink:href="#linear-gradient"/><linearGradient id="linear-gradient-18" x1="240.76" y1="56.67" x2="512.88" y2="56.67" xlink:href="#linear-gradient"/><linearGradient id="linear-gradient-19" x1="490.29" y1="100.96" x2="513.73" y2="100.96" xlink:href="#linear-gradient"/><linearGradient id="linear-gradient-20" x1="473.32" y1="93.01" x2="498.55" y2="93.01" xlink:href="#linear-gradient"/><linearGradient id="linear-gradient-21" x1="464.15" y1="85.93" x2="480.75" y2="85.93" xlink:href="#linear-gradient"/></defs><g id="Layer_2" data-name="Layer 2"><g id="object"><path class="cls-1" d="M257.69,103.05c-21.95,27.66,0,31.61,0,31.61C280.08,129,257.69,103.05,257.69,103.05Zm-.95,24.22a1,1,0,1,1,1.05,1A1,1,0,0,1,256.74,127.27Zm1-3c-6.59-12.63,0-14.43,0-14.43C264.49,112.49,257.76,124.32,257.76,124.32Z"/><path class="cls-2" d="M260.7,101a2.9,2.9,0,0,0-2.91-2.9h0a2.9,2.9,0,0,0-2.9,2.9h0a2.9,2.9,0,0,0,2.9,2.91h0A2.91,2.91,0,0,0,260.7,101Z"/><path class="cls-3" d="M265.49,89.81s-7.66,10-7.7,9.88c0,.09-7.7-9.88-7.7-9.88,2.52-1.17,7.69-9.94,7.7-9.92C257.87,79.75,263,88.64,265.49,89.81Z"/><path class="cls-4" d="M160.83,55l2.49,0c1.61,0,3.94,0,6.81-.05,5.74-.12,13.63-.69,22.29-.81,2.16-.07,4.27,0,6.31,0s4,.15,5.82.35a95.83,95.83,0,0,1,9.82,1.57c1.39.3,2.64.62,3.74.89s2,.56,2.79.8l2.36.8-2.21-1.16c-.73-.35-1.64-.73-2.69-1.2s-2.29-.88-3.66-1.34a66.62,66.62,0,0,0-9.87-2.46,48.93,48.93,0,0,0-6-.65c-2.08-.08-4.24-.18-6.44-.11A181,181,0,0,0,170,53.72Z"/><path class="cls-5" d="M91.62,10.77a19.66,19.66,0,0,1,3.2-4.36,20.66,20.66,0,0,1,3.7-3,23.21,23.21,0,0,1,3.88-2l1-.37.51-.17.53-.15a10.3,10.3,0,0,1,1.06-.27l.54-.12.53-.08A20.9,20.9,0,0,1,110.81,0a27.52,27.52,0,0,1,4.09.44,31.45,31.45,0,0,1,7.51,2.43,30.15,30.15,0,0,1,3.36,1.83c.54.32,1,.69,1.57,1,.26.18.5.37.75.56s.5.37.73.57l.72.59.68.62.34.3.32.33.64.64.61.68.3.34.28.35c.19.23.38.46.56.7l.53.72c.17.24.33.49.49.74s.32.5.47.75c.27.52.58,1,.81,1.56a19.25,19.25,0,0,1,1.2,3.22c.06.28.12.55.19.83l.09.41.06.41c0,.28.09.56.13.83l.06.83,0,.41c0,.14,0,.28,0,.42s0,.54,0,.81-.05.54-.07.81l0,.4c0,.14,0,.27-.07.4s-.1.52-.14.78-.14.51-.2.76l-.1.38-.13.37-.26.72c-.11.23-.21.47-.31.7s-.1.23-.16.34l-.18.33c-.12.22-.23.43-.36.65l-.4.61-.2.3-.22.29-.44.56c-.15.18-.31.35-.47.53l-.23.25c-.08.09-.17.16-.25.24l-.5.47-.52.43a10.65,10.65,0,0,1-1.06.78,12.94,12.94,0,0,1-4.49,1.88,12,12,0,0,1-4.2.16,11.25,11.25,0,0,1-3.36-1l-.35-.16-.32-.19-.63-.35c-.37-.26-.73-.5-1-.74l-.83-.71-.26-.26a4.82,4.82,0,1,1,2.42.43l.32.17.59.24.31.13.33.1a10.38,10.38,0,0,0,3,.57,10.56,10.56,0,0,0,3.54-.41,11.17,11.17,0,0,0,3.64-1.81,9,9,0,0,0,.84-.69l.41-.38.39-.41.2-.21.18-.22.37-.45.33-.48.17-.24.15-.25.3-.52.27-.54.13-.27.12-.29.22-.57.19-.59.09-.3.07-.31c0-.2.09-.41.13-.62l.09-.63c0-.11,0-.21,0-.32l0-.33c0-.21,0-.43,0-.65s0-.44,0-.66,0-.22,0-.33l0-.33c0-.23,0-.45-.07-.68l-.13-.67-.06-.34-.09-.33-.18-.68a19.94,19.94,0,0,0-7.11-9.71c-.21-.17-.44-.33-.66-.49s-.44-.33-.68-.48c-.46-.31-.92-.62-1.41-.9a26.18,26.18,0,0,0-3-1.58A28,28,0,0,0,114.26,4a23.33,23.33,0,0,0-3.54-.35,17.43,17.43,0,0,0-3.54.25l-.44.07-.43.1c-.28.06-.57.12-.85.21l-.42.13a3.45,3.45,0,0,0-.42.14l-.86.32a18.86,18.86,0,0,0-3.26,1.66,16.77,16.77,0,0,0-3,2.44,15.5,15.5,0,0,0-2.62,3.54,17.54,17.54,0,0,0-1.72,4.61c-.11.41-.17.85-.25,1.29s-.1.88-.16,1.33a23.52,23.52,0,0,0,0,2.79A24.32,24.32,0,0,0,93,25.43a26.51,26.51,0,0,0,.73,2.92,26,26,0,0,0,1.12,2.91c.23.47.45.95.72,1.42l.38.7.43.69a7.91,7.91,0,0,0,.44.68l.47.68,1,1.37c.18.23.34.47.53.69s.36.45.55.67l.55.67c.19.23.37.46.57.67l1.19,1.3c.4.43.84.83,1.26,1.25s.86.81,1.31,1.2l.68.6c.22.2.47.37.7.56l.71.56c.24.18.48.37.73.54l1.51,1,1.58,1c.26.17.53.31.81.46l.82.45a59.84,59.84,0,0,0,7,3.1c.6.23,1.22.43,1.84.65l.93.33.94.3,1.89.6,1.91.57c.64.2,1.28.38,1.93.56l1.94.54,1.94.48,1,.24c.33.08.65.13,1,.2l2,.41c.66.12,1.32.22,2,.33,1.33.24,2.67.39,4,.57.67.09,1.35.14,2,.21s1.34.15,2,.19c1.35.09,2.69.2,4,.25,2.7.14,5.41.17,8.11.19s5.39,0,8.06-.12,5.33-.15,7.95-.22,5.24-.14,7.8-.2c5.11-.13,10.1-.33,14.9-.27,2.39,0,4.74.13,7,.29s4.5.46,6.63.81A45.89,45.89,0,0,1,222.18,62a26.44,26.44,0,0,1,4.6,2.72,12.72,12.72,0,0,1,3.3,3.51,7.5,7.5,0,0,1,.87,2,7.28,7.28,0,0,1,.2,2l0,.49c0,.16-.05.31-.07.47a5.54,5.54,0,0,1-.23.89,6.79,6.79,0,0,1-.74,1.53,6,6,0,0,1-2,2,3.5,3.5,0,0,1-2,.5,3,3,0,0,1-1.23-.38l-.27-.18c-.06,0-.08-.07-.08-.08a2.73,2.73,0,0,1,.39.18A3.13,3.13,0,0,0,226,78a3.32,3.32,0,0,0,1.86-.56,5.75,5.75,0,0,0,1.82-2,6.65,6.65,0,0,0,.64-1.46,5.69,5.69,0,0,0,.18-.84c0-.14.05-.29.06-.44s0-.3,0-.45a6.78,6.78,0,0,0-.25-1.87,7,7,0,0,0-.86-1.84,12,12,0,0,0-3.21-3.22,26.51,26.51,0,0,0-4.51-2.5,45.74,45.74,0,0,0-11.37-3.16c-2.11-.29-4.28-.53-6.54-.64s-4.56-.17-6.93-.14c-4.75,0-9.71.35-14.84.58-2.57.11-5.15.22-7.78.36l-8,.38c-2.68.12-5.39.2-8.11.26s-5.47.06-8.23,0c-1.37,0-2.75-.11-4.13-.18-.69,0-1.38-.11-2.07-.16s-1.38-.1-2.07-.18c-1.38-.16-2.76-.29-4.12-.51-.69-.11-1.38-.2-2.06-.32l-2-.38c-.34-.06-.68-.12-1-.2l-1-.23-2-.47-2-.51c-.66-.17-1.31-.34-2-.53l-2-.55-1.94-.59-1-.29-1-.32c-.65-.22-1.29-.42-1.92-.65a62.38,62.38,0,0,1-7.42-3.16l-.88-.46c-.3-.16-.6-.3-.88-.48l-1.72-1-1.64-1.1c-.28-.18-.54-.38-.8-.58l-.79-.59c-.26-.21-.53-.39-.77-.61l-.74-.63c-.5-.42-1-.83-1.45-1.29s-.93-.87-1.37-1.33-.87-.92-1.29-1.38c-.22-.23-.42-.47-.62-.7l-.61-.71-.59-.71c-.2-.23-.38-.48-.57-.72l-1.11-1.44L94,36.68c-.18-.25-.36-.5-.52-.77s-.33-.52-.49-.78-.3-.53-.45-.79c-.31-.53-.57-1.08-.84-1.61a28.09,28.09,0,0,1-1.31-3.31,29,29,0,0,1-.88-3.35,29.67,29.67,0,0,1-.41-3.33A22.41,22.41,0,0,1,91.62,10.77Z"/><path class="cls-6" d="M191.76,39a1.17,1.17,0,0,0-.87.37,2.52,2.52,0,0,0-.63,1.21,5.35,5.35,0,0,0,.83,4.08,9,9,0,0,0,2.48,2.44A16.83,16.83,0,0,0,197.34,49a27.46,27.46,0,0,0,3.38,1c.9.2,1.49.27,1.56.14s-.35-.55-1-1.16l-2.55-2.26a24,24,0,0,1-2.51-2.59,16,16,0,0,1-1.32-1.94c-.5-.8-1-1.46-1.47-2.08A2.53,2.53,0,0,0,191.76,39Z"/><path class="cls-7" d="M204.5,40.11c-.47-.16-1.09.14-1.55.94a4.43,4.43,0,0,0-.23,3.46A7.47,7.47,0,0,0,204.16,47a13.93,13.93,0,0,0,2.6,2.38c1.85,1.32,3.55,2.17,3.71,2s-1-1.76-2.12-3.54a18.69,18.69,0,0,1-1.43-2.63,11.74,11.74,0,0,1-.64-1.85c-.23-.75-.48-1.39-.72-2A2.12,2.12,0,0,0,204.5,40.11Z"/><path class="cls-8" d="M175.42,37.46a1.26,1.26,0,0,0-.92.48,2.72,2.72,0,0,0-.37.59,2.41,2.41,0,0,0-.23.8,5.9,5.9,0,0,0,1.24,4.43,10,10,0,0,0,2.92,2.5,18.5,18.5,0,0,0,4.31,1.83,28.4,28.4,0,0,0,3.81.85c1,.15,1.66.18,1.73,0s-.43-.58-1.23-1.21l-3-2.28a26.59,26.59,0,0,1-3-2.67,15.69,15.69,0,0,1-1.61-2c-.62-.85-1.22-1.53-1.78-2.19A2.85,2.85,0,0,0,175.42,37.46Z"/><path class="cls-9" d="M272.14,37.67a27.43,27.43,0,0,0-2.86-7.13,31.77,31.77,0,0,0-2-3.12c-.37-.49-.75-1-1.13-1.43A15.1,15.1,0,0,0,265,24.64a31.39,31.39,0,0,0-5.18-4.59l-1.38-1L257,18.25l-.72-.41-.73-.36-1.46-.7-1.49-.58c-.24-.09-.49-.2-.74-.28l-.75-.23-1.49-.44-1.51-.31-.74-.15-.75-.08-1.48-.17c-.49,0-1,0-1.46-.07h-1.43a30.57,30.57,0,0,0-5.42.63A24.53,24.53,0,0,0,232,16.68a14.79,14.79,0,0,0-4,2.71,9.85,9.85,0,0,0-2.44,3.73l-.33,1c-.08.33-.15.66-.21,1a14.2,14.2,0,0,0-.19,1.91,10.52,10.52,0,0,0,1.57,6.31,5.49,5.49,0,0,0,2,1.77,5.29,5.29,0,0,0,2.1.53,7.16,7.16,0,0,0,1.69-.14,3.47,3.47,0,1,0-.28-.16,8,8,0,0,1-1.38,0A4.64,4.64,0,0,1,226.93,33a9.73,9.73,0,0,1-1-5.86,9.39,9.39,0,0,1,3.18-6.44,12.92,12.92,0,0,1,3.63-2.11,22.12,22.12,0,0,1,4.5-1.13,27.44,27.44,0,0,1,5-.26l1.3.07c.43.05.87.08,1.31.14l1.3.23.66.11.65.18,1.32.35,1.3.47.65.23.64.29,1.3.59,1.26.7.63.35.61.41,1.23.81,1.18.92A28.47,28.47,0,0,1,262,27.29a14.62,14.62,0,0,1,1,1.24c.3.43.62.85.92,1.29a31.26,31.26,0,0,1,1.58,2.78,23.25,23.25,0,0,1,2.12,6.12,20.7,20.7,0,0,1,.33,6.57,21.61,21.61,0,0,1-5.95,12.22,46,46,0,0,1-12.34,9.14,77.91,77.91,0,0,1-7.44,3.45c-.64.25-1.29.52-1.94.75l-2,.67c-.66.22-1.31.47-2,.67l-2,.57a85.86,85.86,0,0,1-17.05,2.78c-11.82.78-24.24-.46-36.85-2.63-3.16-.56-6.28-1.14-9.42-1.77l-9.36-1.85-9.26-1.81-9.13-1.71c-12.1-2.2-23.88-4-35.19-5.09l-4.21-.42L99.57,60c-2.77-.17-5.5-.39-8.18-.47-5.37-.21-10.6-.27-15.66-.17A174.1,174.1,0,0,0,47.7,62a98.51,98.51,0,0,0-22.3,6.67A65,65,0,0,0,17,73.16c-1.27.75-2.39,1.61-3.49,2.36-.54.4-1.05.81-1.55,1.2s-1,.76-1.44,1.18a50.38,50.38,0,0,0-4.57,4.45c-.6.71-1.18,1.33-1.66,1.94L3,86c-.39.49-.69,1-1,1.36l-.65,1-.53.82.59-.77.74-.94a15.83,15.83,0,0,1,1-1.28l1.39-1.56c.52-.57,1.14-1.14,1.78-1.78a49.12,49.12,0,0,1,4.8-4c.46-.37,1-.69,1.49-1s1-.71,1.58-1.07c1.13-.65,2.27-1.41,3.55-2a64.49,64.49,0,0,1,8.47-3.8,99.64,99.64,0,0,1,22-5.18c1-.14,2.06-.26,3.1-.37a68.51,68.51,0,0,1,15.36,2.13A111.91,111.91,0,0,1,80.81,72c5,1.94,10.18,4.3,15.64,6.91s11.19,5.47,17.31,8.26c1.53.69,3.14,1.33,4.73,2l2.4,1,1.22.5,1.24.43,5,1.74,1.27.43c.42.14.86.25,1.29.37l2.61.73,2.6.72,1.3.35c.44.11.88.19,1.31.29L144,96.79l1.29.26,1.3.19,2.59.38,2.56.36,1.28.18,1.28.11,5,.39,1.25.1,1.25,0,2.47,0,2.44,0c.81,0,1.62,0,2.42,0l4.74-.22c.78-.05,1.56-.05,2.32-.14l2.29-.24,4.47-.49c1.46-.2,2.89-.47,4.3-.7l2.1-.35c.69-.12,1.38-.23,2-.39l4-.91c1.3-.31,2.58-.55,3.81-.93l3.61-1,1.74-.51.86-.25.83-.28,6.3-2.19L218,88c1.73-.67,3.27-1.43,4.71-2.09l3.92-1.82c4.61-2.38,7.13-3.74,7.13-3.74L226.22,83l-4.09,1.3c-1.5.46-3.1,1-4.87,1.47l-5.63,1.56-6.35,1.49a150.55,150.55,0,0,1-31.6,3.57l-4.52,0c-.76,0-1.53-.05-2.3-.1l-2.32-.14L162.2,92,161,91.93l-1.18-.14-4.77-.54-1.2-.13-1.2-.21-2.42-.4-2.44-.41-1.23-.2-1.22-.28-4.91-1.08-1.24-.28L138,87.91l-2.47-.68L133,86.55c-.41-.12-.82-.22-1.23-.35l-1.2-.4-4.79-1.59-1.19-.39-1.16-.46-2.31-.9c-1.54-.6-3.07-1.16-4.58-1.78-6-2.54-11.91-5.16-17.61-7.49s-11.22-4.38-16.51-6a107.14,107.14,0,0,0-11.68-2.88c1.63,0,3.27,0,5,.06q7.42.18,15.34.78c2.64.17,5.3.49,8,.75l4.07.4,4.12.54c11.06,1.42,22.61,3.46,34.57,5.84l18.26,3.73,9.37,1.92c3.15.64,6.37,1.26,9.61,1.82,13,2.24,26,3.45,38.62,2.41a89.09,89.09,0,0,0,18.4-3.4l2.2-.67c.72-.24,1.43-.52,2.15-.78l2.14-.8c.7-.28,1.38-.57,2.07-.87a80.69,80.69,0,0,0,7.95-4,51,51,0,0,0,13.58-10.84A30.13,30.13,0,0,0,270.83,54a24.44,24.44,0,0,0,2.07-8.24A25.08,25.08,0,0,0,272.14,37.67Z"/><path class="cls-10" d="M4.87,125.13c-1.46.05-2.86-1.68-3.8-4.62a28.58,28.58,0,0,1-.83-11.65A50.28,50.28,0,0,1,2.75,98.79,46.3,46.3,0,0,1,9.3,86.39a32,32,0,0,1,4.6-4.91,26.24,26.24,0,0,1,4.59-3.13c2.83-1.45,4.81-1.75,4.94-1.48s-1.38,1.49-3.27,3.64a31.2,31.2,0,0,0-2.91,3.92,33.82,33.82,0,0,0-2.55,5.11,51.62,51.62,0,0,0-2.94,11.57c-.54,3.73-.74,7-1,9a50.16,50.16,0,0,1-2.2,10.45C7.59,123.31,6.34,125.08,4.87,125.13Z"/><path class="cls-11" d="M20.25,111.9a2.6,2.6,0,0,1-2.2-.81,6.66,6.66,0,0,1-1-1.28,10.16,10.16,0,0,1-.85-1.78,20.19,20.19,0,0,1-.59-10.52,36.57,36.57,0,0,1,3-8.67,34.06,34.06,0,0,1,7.25-10.18A18.73,18.73,0,0,1,31,75.24a13.41,13.41,0,0,1,5-1.15,9.94,9.94,0,0,1,3.34.52c.75.29,1.12.53,1.1.7,0,.33-1.75.47-3.87,1.45A12.2,12.2,0,0,0,33.36,79a15.93,15.93,0,0,0-2.72,3.65A35,35,0,0,0,27.34,92c-.68,3.09-1,5.81-1.32,7.47a44.3,44.3,0,0,1-2.34,8.45,16.16,16.16,0,0,1-.73,1.5,7.82,7.82,0,0,1-.8,1.2A3.21,3.21,0,0,1,20.25,111.9Z"/><path class="cls-12" d="M37.12,97.57a4.3,4.3,0,0,1-3.39-2.78,10.13,10.13,0,0,1-.48-6.24,21.76,21.76,0,0,1,2.1-5.17,23,23,0,0,1,4.83-6.2A12.78,12.78,0,0,1,43.51,75a9.1,9.1,0,0,1,3.2-.74c1.88,0,2.87.6,2.86.89s-1,.73-2,1.63a9.12,9.12,0,0,0-2.51,4c-1.17,3.47-1.25,8-1.68,9.93A11,11,0,0,1,41,95.69,4.82,4.82,0,0,1,37.12,97.57Z"/><path class="cls-13" d="M352.9,55l-2.5,0c-1.61,0-3.93,0-6.8-.05-5.74-.12-13.64-.69-22.29-.81-2.16-.07-4.27,0-6.31,0s-4,.15-5.82.35a95.83,95.83,0,0,0-9.82,1.57c-1.39.3-2.64.62-3.74.89s-2,.56-2.79.8l-2.36.8,2.21-1.16c.73-.35,1.63-.73,2.69-1.2s2.29-.88,3.66-1.34a66.3,66.3,0,0,1,9.87-2.46,48.71,48.71,0,0,1,6-.65c2.08-.08,4.23-.18,6.44-.11a181,181,0,0,1,22.35,2.07Z"/><path class="cls-14" d="M422.1,10.77a19.32,19.32,0,0,0-3.19-4.36,21,21,0,0,0-3.7-3,23.21,23.21,0,0,0-3.88-2l-1-.37L409.8.91l-.53-.15a9.68,9.68,0,0,0-1.06-.27l-.53-.12-.53-.08A20.9,20.9,0,0,0,402.92,0a27.52,27.52,0,0,0-4.09.44,31.45,31.45,0,0,0-7.51,2.43A29.29,29.29,0,0,0,388,4.71c-.54.32-1.06.69-1.57,1-.26.18-.5.37-.75.56s-.5.37-.74.57l-.71.59-.68.62-.34.3-.32.33-.65.64-.6.68-.3.34-.29.35-.56.7-.52.72a8.6,8.6,0,0,0-.49.74c-.16.25-.32.5-.47.75-.28.52-.58,1-.81,1.56a18.41,18.41,0,0,0-1.2,3.22c-.06.28-.13.55-.19.83l-.09.41-.07.41-.12.83-.06.83,0,.41c0,.14,0,.28,0,.42s0,.54,0,.81.05.54.07.81l0,.4c0,.14.05.27.07.4s.09.52.14.78.13.51.2.76l.1.38.13.37.26.72.31.7c.05.11.1.23.16.34l.18.33.35.65.4.61.21.3.22.29.43.56c.16.18.32.35.47.53l.24.25a2.83,2.83,0,0,0,.25.24l.49.47c.17.15.35.29.53.43a8.75,8.75,0,0,0,1.06.78,12.9,12.9,0,0,0,4.48,1.88,12.11,12.11,0,0,0,4.21.16,11.19,11.19,0,0,0,3.35-1l.35-.16.33-.19.62-.35c.38-.26.74-.5,1.05-.74l.83-.71.26-.26a4.82,4.82,0,1,0-2.42.43l-.32.17-.6.24-.31.13-.32.1a10.45,10.45,0,0,1-3,.57,10.56,10.56,0,0,1-3.54-.41,11.07,11.07,0,0,1-3.64-1.81,10.7,10.7,0,0,1-.85-.69l-.41-.38-.39-.41-.19-.21-.18-.22-.37-.45-.33-.48-.17-.24-.15-.25c-.1-.17-.2-.35-.31-.52s-.17-.36-.26-.54l-.14-.27-.11-.29L380,27l-.18-.59-.09-.3-.07-.31c-.05-.2-.09-.41-.14-.62s-.06-.42-.08-.63,0-.21-.05-.32v-.33c0-.21,0-.43,0-.65s0-.44,0-.66,0-.22,0-.33l0-.33c0-.23.05-.45.07-.68l.13-.67.06-.34.09-.33.18-.68A19.94,19.94,0,0,1,387,9.54c.21-.17.43-.33.66-.49s.44-.33.67-.48c.47-.31.93-.62,1.42-.9a26.18,26.18,0,0,1,3-1.58A28,28,0,0,1,399.47,4,23.33,23.33,0,0,1,403,3.66a17.48,17.48,0,0,1,3.54.25L407,4l.43.1a8.29,8.29,0,0,1,.86.21l.42.13a3.45,3.45,0,0,1,.42.14l.86.32a18.86,18.86,0,0,1,3.26,1.66,17.12,17.12,0,0,1,3,2.44,16.11,16.11,0,0,1,2.62,3.54,17.54,17.54,0,0,1,1.72,4.61c.11.41.16.85.24,1.29s.11.88.16,1.33a21.55,21.55,0,0,1,0,2.79,24.32,24.32,0,0,1-.32,2.89,26.51,26.51,0,0,1-.73,2.92,26,26,0,0,1-1.12,2.91c-.24.47-.45.95-.72,1.42-.13.23-.25.47-.39.7l-.42.69a8,8,0,0,1-.45.68l-.46.68-1,1.37c-.18.23-.35.47-.53.69l-.55.67-.56.67c-.18.23-.37.46-.57.67-.39.43-.79.86-1.18,1.3s-.84.83-1.26,1.25-.87.81-1.31,1.2l-.68.6c-.22.2-.47.37-.7.56l-.72.56c-.23.18-.47.37-.73.54l-1.5,1-1.58,1c-.26.17-.54.31-.81.46l-.82.45a59.84,59.84,0,0,1-7,3.1c-.6.23-1.23.43-1.84.65l-.93.33-.94.3-1.89.6-1.92.57c-.63.2-1.28.38-1.93.56l-1.94.54-1.93.48-1,.24c-.33.08-.66.13-1,.2l-2,.41c-.66.12-1.32.22-2,.33-1.32.24-2.66.39-4,.57-.66.09-1.34.14-2,.21s-1.34.15-2,.19c-1.35.09-2.7.2-4,.25-2.7.14-5.41.17-8.11.19s-5.39,0-8.06-.12-5.33-.15-8-.22-5.24-.14-7.79-.2c-5.11-.13-10.1-.33-14.9-.27-2.4,0-4.74.13-7,.29s-4.5.46-6.64.81A45.93,45.93,0,0,0,291.55,62a26.07,26.07,0,0,0-4.6,2.72,12.57,12.57,0,0,0-3.3,3.51,7.2,7.2,0,0,0-.87,2,7.3,7.3,0,0,0-.21,2c0,.16,0,.33.05.49s.05.31.07.47a6.8,6.8,0,0,0,.22.89,7.24,7.24,0,0,0,.74,1.53,6,6,0,0,0,2,2,3.49,3.49,0,0,0,2,.5,2.91,2.91,0,0,0,1.22-.38,2.85,2.85,0,0,0,.28-.18c.05,0,.08-.07.08-.08a3.09,3.09,0,0,0-.4.18,3,3,0,0,1-1.19.27,3.32,3.32,0,0,1-1.86-.56,5.87,5.87,0,0,1-1.83-2,7.16,7.16,0,0,1-.64-1.46,5.68,5.68,0,0,1-.17-.84c0-.14-.05-.29-.06-.44s0-.3,0-.45a6.42,6.42,0,0,1,.25-1.87,6.94,6.94,0,0,1,.85-1.84,12.16,12.16,0,0,1,3.22-3.22,26.13,26.13,0,0,1,4.51-2.5,45.62,45.62,0,0,1,11.37-3.16c2.1-.29,4.28-.53,6.53-.64s4.57-.17,6.94-.14c4.75,0,9.7.35,14.84.58,2.57.11,5.15.22,7.77.36l8,.38c2.68.12,5.39.2,8.12.26s5.47.06,8.22,0c1.38,0,2.76-.11,4.14-.18.69,0,1.38-.11,2.07-.16s1.38-.1,2.07-.18c1.37-.16,2.75-.29,4.12-.51.69-.11,1.37-.2,2.06-.32l2-.38c.34-.06.68-.12,1-.2l1-.23,2-.47,2-.51c.66-.17,1.32-.34,2-.53l2-.55,1.95-.59,1-.29,1-.32c.64-.22,1.29-.42,1.92-.65a62.24,62.24,0,0,0,7.41-3.16l.89-.46c.3-.16.59-.3.88-.48l1.71-1,1.65-1.1c.28-.18.54-.38.8-.58l.78-.59c.26-.21.53-.39.78-.61l.74-.63c.49-.42,1-.83,1.44-1.29s.94-.87,1.38-1.33l1.29-1.38c.22-.23.42-.47.62-.7l.6-.71.6-.71c.2-.23.38-.48.57-.72l1.11-1.44.53-.76c.18-.25.36-.5.52-.77l.49-.78c.16-.26.3-.53.45-.79.31-.53.57-1.08.84-1.61a28.09,28.09,0,0,0,1.31-3.31,27.06,27.06,0,0,0,.87-3.35,25.65,25.65,0,0,0,.41-3.33A22.31,22.31,0,0,0,422.1,10.77Z"/><path class="cls-15" d="M322,39a1.14,1.14,0,0,1,.86.37,2.44,2.44,0,0,1,.64,1.21,5.36,5.36,0,0,1-.84,4.08,8.77,8.77,0,0,1-2.47,2.44A17,17,0,0,1,316.39,49,28,28,0,0,1,313,50c-.9.2-1.49.27-1.56.14s.35-.55,1-1.16L315,46.75a23,23,0,0,0,2.5-2.59,15.21,15.21,0,0,0,1.33-1.94c.5-.8,1-1.46,1.47-2.08A2.53,2.53,0,0,1,322,39Z"/><path class="cls-16" d="M309.23,40.11c.47-.16,1.08.14,1.55.94a4.48,4.48,0,0,1,.23,3.46A7.36,7.36,0,0,1,309.56,47,13.62,13.62,0,0,1,307,49.4c-1.85,1.32-3.55,2.17-3.71,2s1-1.76,2.12-3.54a17.82,17.82,0,0,0,1.44-2.63,12.9,12.9,0,0,0,.64-1.85c.22-.75.48-1.39.71-2A2.16,2.16,0,0,1,309.23,40.11Z"/><path class="cls-17" d="M338.3,37.46a1.26,1.26,0,0,1,.93.48,2.71,2.71,0,0,1,.36.59,2.2,2.2,0,0,1,.24.8,5.9,5.9,0,0,1-1.24,4.43,10,10,0,0,1-2.92,2.5,18.5,18.5,0,0,1-4.31,1.83,28.74,28.74,0,0,1-3.81.85c-1,.15-1.67.18-1.73,0s.43-.58,1.22-1.21l3-2.28a26.59,26.59,0,0,0,3-2.67,17.72,17.72,0,0,0,1.61-2c.62-.85,1.22-1.53,1.78-2.19A2.83,2.83,0,0,1,338.3,37.46Z"/><path class="cls-18" d="M241.58,37.67a28.15,28.15,0,0,1,2.86-7.13,33.83,33.83,0,0,1,2-3.12c.36-.49.75-1,1.12-1.43a15.2,15.2,0,0,1,1.18-1.35,31.39,31.39,0,0,1,5.18-4.59l1.38-1,1.43-.84.71-.41.74-.36,1.46-.7,1.48-.58c.25-.09.49-.2.74-.28l.76-.23,1.49-.44,1.5-.31.75-.15.75-.08,1.48-.17c.49,0,1,0,1.46-.07h1.42a30.57,30.57,0,0,1,5.43.63,24.23,24.23,0,0,1,4.88,1.57,14.69,14.69,0,0,1,4,2.71,9.82,9.82,0,0,1,2.43,3.73c.12.34.23.67.34,1s.15.66.2,1a14.24,14.24,0,0,1,.2,1.91,10.52,10.52,0,0,1-1.57,6.31,5.49,5.49,0,0,1-2,1.77,5.29,5.29,0,0,1-2.11.53,7.08,7.08,0,0,1-1.68-.14,3.47,3.47,0,1,1,.28-.16,8,8,0,0,0,1.38,0,4.9,4.9,0,0,0,1.89-.65A4.74,4.74,0,0,0,286.79,33a9.66,9.66,0,0,0,1-5.86,9.39,9.39,0,0,0-3.18-6.44A12.92,12.92,0,0,0,281,18.54a22.29,22.29,0,0,0-4.5-1.13,27.44,27.44,0,0,0-5-.26l-1.3.07c-.44.05-.88.08-1.31.14l-1.31.23-.65.11-.66.18-1.31.35-1.3.47-.66.23-.64.29-1.29.59-1.26.7-.63.35-.61.41-1.23.81-1.18.92a27.6,27.6,0,0,0-4.36,4.29,14.72,14.72,0,0,0-1,1.24c-.3.43-.62.85-.91,1.29a27,27,0,0,0-1.58,2.78,23.63,23.63,0,0,0-2.13,6.12,20.7,20.7,0,0,0-.33,6.57,21.69,21.69,0,0,0,6,12.22,45.86,45.86,0,0,0,12.34,9.14,78.88,78.88,0,0,0,7.43,3.45c.65.25,1.3.52,1.95.75l2,.67c.65.22,1.31.47,2,.67l2,.57a86,86,0,0,0,17.06,2.78c11.82.78,24.24-.46,36.85-2.63,3.16-.56,6.28-1.14,9.41-1.77l9.37-1.85,9.25-1.81,9.14-1.71c12.09-2.2,23.87-4,35.19-5.09l4.21-.42,4.18-.27c2.76-.17,5.49-.39,8.18-.47,5.37-.21,10.6-.27,15.66-.17A174.22,174.22,0,0,1,466,62a98.26,98.26,0,0,1,22.29,6.67,64.47,64.47,0,0,1,8.45,4.48c1.27.75,2.38,1.61,3.49,2.36.54.4,1,.81,1.55,1.2s1,.76,1.43,1.18a49.32,49.32,0,0,1,4.58,4.45c.6.71,1.17,1.33,1.66,1.94L510.75,86c.39.49.69,1,.95,1.36l.65,1,.53.82-.6-.77-.73-.94a15.83,15.83,0,0,0-1.05-1.28l-1.39-1.56c-.52-.57-1.14-1.14-1.78-1.78a50.35,50.35,0,0,0-4.8-4c-.46-.37-1-.69-1.49-1l-1.58-1.07c-1.14-.65-2.27-1.41-3.55-2a64.49,64.49,0,0,0-8.47-3.8,99.6,99.6,0,0,0-22-5.18c-1-.14-2.05-.26-3.09-.37A68.59,68.59,0,0,0,447,67.42,112.32,112.32,0,0,0,432.92,72c-5,1.94-10.18,4.3-15.65,6.91s-11.18,5.47-17.3,8.26c-1.54.69-3.14,1.33-4.73,2l-2.41,1-1.21.5-1.24.43-5,1.74-1.27.43c-.43.14-.86.25-1.3.37l-2.6.73-2.61.72-1.3.35c-.43.11-.87.19-1.31.29l-5.21,1.09-1.29.26-1.3.19-2.59.38L362,98l-1.27.18-1.28.11-5,.39-1.25.1-1.25,0-2.47,0-2.45,0c-.81,0-1.61,0-2.41,0l-4.74-.22c-.78-.05-1.56-.05-2.33-.14l-2.28-.24-4.47-.49c-1.46-.2-2.89-.47-4.31-.7l-2.09-.35c-.7-.12-1.38-.23-2.06-.39l-4-.91c-1.29-.31-2.57-.55-3.8-.93l-3.61-1-1.74-.51-.86-.25-.84-.28-6.29-2.19L295.69,88c-1.72-.67-3.27-1.43-4.7-2.09l-3.92-1.82c-4.62-2.38-7.13-3.74-7.13-3.74L287.51,83l4.09,1.3c1.5.46,3.1,1,4.87,1.47l5.62,1.56,6.36,1.49a150.55,150.55,0,0,0,31.6,3.57l4.52,0c.76,0,1.53-.05,2.3-.1l2.31-.14,2.34-.13,1.18-.07,1.18-.14,4.77-.54,1.21-.13,1.2-.21,2.42-.4,2.44-.41,1.22-.2,1.22-.28,4.92-1.08,1.24-.28,1.23-.35,2.47-.68,2.47-.68c.4-.12.82-.22,1.22-.35l1.21-.4,4.79-1.59,1.19-.39,1.16-.46,2.31-.9c1.54-.6,3.06-1.16,4.58-1.78,6-2.54,11.91-5.16,17.61-7.49s11.22-4.38,16.51-6A107.14,107.14,0,0,1,443,64.34c-1.63,0-3.28,0-4.95.06q-7.42.18-15.34.78c-2.64.17-5.3.49-8,.75l-4.07.4-4.12.54c-11.06,1.42-22.61,3.46-34.57,5.84l-18.27,3.73-9.36,1.92c-3.15.64-6.37,1.26-9.61,1.82-13,2.24-26,3.45-38.62,2.41a89,89,0,0,1-18.4-3.4l-2.2-.67c-.73-.24-1.44-.52-2.15-.78l-2.14-.8q-1-.42-2.07-.87a80.69,80.69,0,0,1-7.95-4,50.84,50.84,0,0,1-13.58-10.84A30.13,30.13,0,0,1,242.9,54a24.44,24.44,0,0,1-2.07-8.24A25.37,25.37,0,0,1,241.58,37.67Z"/><path class="cls-19" d="M508.86,125.13c1.46.05,2.86-1.68,3.8-4.62a28.42,28.42,0,0,0,.82-11.65A49.44,49.44,0,0,0,511,98.79a46.33,46.33,0,0,0-6.56-12.4,32.46,32.46,0,0,0-4.59-4.91,26.24,26.24,0,0,0-4.59-3.13c-2.84-1.45-4.81-1.75-4.94-1.48s1.38,1.49,3.27,3.64a31.2,31.2,0,0,1,2.9,3.92A32.93,32.93,0,0,1,499,89.54,51.62,51.62,0,0,1,502,101.11c.53,3.73.74,7,1,9a50.11,50.11,0,0,0,2.21,10.45C506.14,123.31,507.39,125.08,508.86,125.13Z"/><path class="cls-20" d="M493.48,111.9a2.61,2.61,0,0,0,2.2-.81,6.66,6.66,0,0,0,1-1.28,10.92,10.92,0,0,0,.85-1.78,20.3,20.3,0,0,0,.59-10.52,37,37,0,0,0-3-8.67,34.06,34.06,0,0,0-7.25-10.18,18.73,18.73,0,0,0-5.14-3.42,13.41,13.41,0,0,0-5-1.15,9.87,9.87,0,0,0-3.33.52c-.75.29-1.13.53-1.11.7,0,.33,1.76.47,3.88,1.45A12.33,12.33,0,0,1,480.36,79a16,16,0,0,1,2.73,3.65,35,35,0,0,1,3.3,9.33c.68,3.09,1,5.81,1.32,7.47a43.58,43.58,0,0,0,2.34,8.45,14,14,0,0,0,.73,1.5,7.15,7.15,0,0,0,.8,1.2A3.21,3.21,0,0,0,493.48,111.9Z"/><path class="cls-21" d="M476.6,97.57a4.3,4.3,0,0,0,3.4-2.78,10.06,10.06,0,0,0,.47-6.24,21.34,21.34,0,0,0-2.1-5.17,23,23,0,0,0-4.82-6.2A13.12,13.12,0,0,0,470.22,75a9.1,9.1,0,0,0-3.2-.74c-1.89,0-2.87.6-2.87.89s1,.73,2,1.63a9.12,9.12,0,0,1,2.51,4c1.17,3.47,1.25,8,1.67,9.93a11.13,11.13,0,0,0,2.37,4.9A4.8,4.8,0,0,0,476.6,97.57Z"/></g></g></svg>